<?xml version="1.0" encoding="UTF-8"?>
<svg id="_레이어_2" data-name="레이어 2" xmlns="http://www.w3.org/2000/svg" viewBox="0 0 1520.91 1030.46">
  <g id="buff">
    <g>
      <polygon points="1519.41 1026.54 1.5 1028.95 1.5 3.91 1519.41 1.5 1519.41 1026.54" fill="none" stroke="#000" stroke-miterlimit="10" stroke-width="3"/>
      <g>
        <rect x="16.04" y="17.31" width="1486.39" height="38.75" stroke="#000" stroke-miterlimit="10" stroke-width="3"/>
        <rect x="1462.97" y="19.05" width="37.97" height="36.15" fill="#fff"/>
        <line x1="1462.31" y1="18.78" x2="1462.31" y2="57.31" fill="none" stroke="#000" stroke-miterlimit="10" stroke-width="4"/>
        <text transform="translate(1473.57 49.34)" font-family="MonaS12-Bold, MonaS12" font-size="32.85" font-weight="700"><tspan x="0" y="0">X</tspan></text>
      </g>
      <rect x="18.04" y="75.34" width="1482.74" height="933.14" fill="#efefef" stroke="#000" stroke-miterlimit="10" stroke-width="3"/>
    </g>
    <text transform="translate(21.92 48.77)" fill="#fff" font-family="MonaS12-Bold, MonaS12" font-size="35" font-weight="700"><tspan x="0" y="0" letter-spacing="-.05em">I</tspan><tspan x="12.98" y="0" letter-spacing="0em">t</tspan><tspan x="30.2" y="0" letter-spacing=".01em">e</tspan><tspan x="51.06" y="0" letter-spacing="0em">m</tspan><tspan x="77.65" y="0" letter-spacing="0em">s</tspan><tspan x="97.98" y="0" letter-spacing="0em">_</tspan><tspan x="115.31" y="0" letter-spacing="0em">D</tspan><tspan x="141.48" y="0" letter-spacing=".01em">a</tspan><tspan x="162.41" y="0" letter-spacing=".01em">i</tspan><tspan x="171.62" y="0" letter-spacing="-.05em">l</tspan><tspan x="181.55" y="0">y </tspan><tspan x="213.63" y="0" letter-spacing="0em">B</tspan><tspan x="237.24" y="0" letter-spacing="0em">u</tspan><tspan x="257.38" y="0" letter-spacing="0em">f</tspan><tspan x="274.6" y="0" letter-spacing="0em">f</tspan></text>
  </g>
</svg>