<?xml version="1.0" encoding="UTF-8"?>
<svg id="_레이어_2" data-name="레이어 2" xmlns="http://www.w3.org/2000/svg" viewBox="0 0 410.2 211.36">
  <g id="test">
    <g>
      <rect y="176.57" width="341.25" height="23.28" fill="#eede4f"/>
      <path d="M330.55,169.88l-28.48-64.93h-.03c-.33,5.11-4.44,9.16-9.46,9.16s-9.25-4.16-9.47-9.38h-.07c-.23,5.22-4.38,9.38-9.47,9.38s-9.37-4.28-9.49-9.6h-.05c.01.19.03.38.03.57,0,5.43-4.25,9.83-9.5,9.83s-9.5-4.4-9.5-9.83c0-.21.02-.41.03-.61l-28.06,65.41h113.52Z" fill="#eede4f"/>
      <path d="M251.69,169.88l-28.03-64.93h-.03c-.33,5.11-4.44,9.16-9.46,9.16s-9.25-4.16-9.47-9.38h-.07c-.23,5.22-4.38,9.38-9.47,9.38s-9.37-4.28-9.49-9.6h-.05c.01.19.03.38.03.57,0,5.43-4.25,9.83-9.5,9.83s-9.5-4.4-9.5-9.83c0-.21.02-.41.03-.61l-28.9,65.41h113.92Z" fill="#eede4f"/>
      <g>
        <line x1="251.69" y1="82.39" x2="214.33" y2="162.71" fill="none" stroke="#231815" stroke-miterlimit="10" stroke-width="3.47"/>
        <line x1="291.23" y1="82.39" x2="328.59" y2="162.71" fill="none" stroke="#231815" stroke-miterlimit="10" stroke-width="3.47"/>
        <line x1="289.67" y1="81.38" x2="253.27" y2="81.38" fill="none" stroke="#231815" stroke-miterlimit="10" stroke-width="3.47"/>
        <path d="M245.98,102.64c0,4.02,3.26,7.28,7.28,7.28s7.28-3.26,7.28-7.28" fill="none" stroke="#231815" stroke-miterlimit="10" stroke-width="3.47"/>
        <path d="M264.02,102.64c0,4.02,3.26,7.28,7.28,7.28s7.28-3.26,7.28-7.28" fill="none" stroke="#231815" stroke-miterlimit="10" stroke-width="3.47"/>
        <path d="M282.06,102.64c0,4.02,3.26,7.28,7.28,7.28s7.28-3.26,7.28-7.28" fill="none" stroke="#231815" stroke-miterlimit="10" stroke-width="3.47"/>
        <line x1="173.18" y1="82.89" x2="135.82" y2="163.22" fill="none" stroke="#231815" stroke-miterlimit="10" stroke-width="3.47"/>
        <line x1="212.71" y1="82.89" x2="230.28" y2="120.65" fill="none" stroke="#231815" stroke-miterlimit="10" stroke-width="3.47"/>
        <line x1="211.15" y1="81.88" x2="174.75" y2="81.88" fill="none" stroke="#231815" stroke-miterlimit="10" stroke-width="3.47"/>
        <path d="M167.46,103.14c0,4.02,3.26,7.28,7.28,7.28s7.28-3.26,7.28-7.28" fill="none" stroke="#231815" stroke-miterlimit="10" stroke-width="3.47"/>
        <path d="M185.5,103.14c0,4.02,3.26,7.28,7.28,7.28s7.28-3.26,7.28-7.28" fill="none" stroke="#231815" stroke-miterlimit="10" stroke-width="3.47"/>
        <path d="M203.54,103.14c0,4.02,3.26,7.28,7.28,7.28s7.28-3.26,7.28-7.28" fill="none" stroke="#231815" stroke-miterlimit="10" stroke-width="3.47"/>
      </g>
      <g>
        <polygon points="343.01 44.24 298.74 44.24 298.74 55.29 308.66 55.29 308.66 58.84 312.11 58.84 312.11 66.61 330 66.61 330 58.84 333.25 58.84 333.25 55.29 343.01 55.29 343.01 44.24" fill="#eede4f"/>
        <path d="M313.82,21.88c2.09-4.51,7.44-6.47,11.94-4.38s6.47,7.44,4.38,11.94" fill="#eede4f"/>
        <g>
          <line x1="299.49" y1="16.66" x2="337.28" y2="34.19" fill="none" stroke="#231815" stroke-miterlimit="10" stroke-width="3.47"/>
          <circle cx="318.38" cy="25.43" r="9.38" fill="none" stroke="#231815" stroke-miterlimit="10" stroke-width="3.47"/>
          <line x1="355.43" y1="44.38" x2="281.34" y2="44.38" fill="none" stroke="#231815" stroke-miterlimit="10" stroke-width="3.47"/>
          <line x1="330.73" y1="68.38" x2="306.18" y2="68.38" fill="none" stroke="#231815" stroke-miterlimit="10" stroke-width="3.47"/>
          <line x1="306.11" y1="57.16" x2="296.26" y2="57.16" fill="none" stroke="#231815" stroke-miterlimit="10" stroke-width="3.47"/>
          <line x1="340.54" y1="57.16" x2="330.69" y2="57.16" fill="none" stroke="#231815" stroke-miterlimit="10" stroke-width="3.47"/>
          <line x1="294.52" y1="55.43" x2="294.52" y2="44.38" fill="none" stroke="#231815" stroke-miterlimit="10" stroke-width="3.47"/>
          <line x1="307.91" y1="58.98" x2="307.91" y2="70.02" fill="none" stroke="#231815" stroke-miterlimit="10" stroke-width="3.47"/>
          <line x1="329" y1="69.91" x2="329" y2="58.86" fill="none" stroke="#231815" stroke-miterlimit="10" stroke-width="3.47"/>
          <line x1="342.25" y1="55.43" x2="342.25" y2="44.38" fill="none" stroke="#231815" stroke-miterlimit="10" stroke-width="3.47"/>
          <line x1="318.45" y1="70.02" x2="318.45" y2="102.91" fill="none" stroke="#231815" stroke-miterlimit="10" stroke-width="3.47"/>
        </g>
      </g>
      <g>
        <path d="M168.87,26.6v-7.83s0-1.33,0-1.33c0-4.02,3.26-7.28,7.28-7.28" fill="none" stroke="#231815" stroke-miterlimit="10" stroke-width="3.47"/>
        <path d="M168.87,36.2v-7.83s0-1.33,0-1.33c0-4.02,3.26-7.28,7.28-7.28" fill="none" stroke="#231815" stroke-miterlimit="10" stroke-width="3.47"/>
        <path d="M168.87,53.82v-15.85s0-1.33,0-1.33c0-4.02,3.26-7.28,7.28-7.28" fill="none" stroke="#231815" stroke-miterlimit="10" stroke-width="3.47"/>
        <path d="M188.29,26.6v-7.83s0-1.33,0-1.33c0-4.02,3.26-7.28,7.28-7.28" fill="none" stroke="#231815" stroke-miterlimit="10" stroke-width="3.47"/>
        <path d="M188.29,36.2v-7.83s0-1.33,0-1.33c0-4.02,3.26-7.28,7.28-7.28" fill="none" stroke="#231815" stroke-miterlimit="10" stroke-width="3.47"/>
        <path d="M188.29,53.82v-15.85s0-1.33,0-1.33c0-4.02,3.26-7.28,7.28-7.28" fill="none" stroke="#231815" stroke-miterlimit="10" stroke-width="3.47"/>
      </g>
      <g>
        <path d="M37.79,116.43c0-4.02,3.26-7.28,7.28-7.28s7.28,3.26,7.28,7.28" fill="none" stroke="#231815" stroke-miterlimit="10" stroke-width="3.47"/>
        <path d="M55.83,116.43c0-4.02,3.26-7.28,7.28-7.28s7.28,3.26,7.28,7.28" fill="none" stroke="#231815" stroke-miterlimit="10" stroke-width="3.47"/>
      </g>
      <g>
        <path d="M84.05,91.77c0-4.02,3.26-7.28,7.28-7.28s7.28,3.26,7.28,7.28" fill="none" stroke="#231815" stroke-miterlimit="10" stroke-width="3.47"/>
        <path d="M102.09,91.77c0-4.02,3.26-7.28,7.28-7.28s7.28,3.26,7.28,7.28" fill="none" stroke="#231815" stroke-miterlimit="10" stroke-width="3.47"/>
      </g>
      <g>
        <path d="M322.66,129.12c0-4.02,3.26-7.28,7.28-7.28s7.28,3.26,7.28,7.28" fill="none" stroke="#231815" stroke-miterlimit="10" stroke-width="3.47"/>
        <path d="M340.69,129.12c0-4.02,3.26-7.28,7.28-7.28s7.28,3.26,7.28,7.28" fill="none" stroke="#231815" stroke-miterlimit="10" stroke-width="3.47"/>
      </g>
      <line x1="93.28" y1="177.56" x2="332.51" y2="177.56" fill="none" stroke="#231815" stroke-miterlimit="10" stroke-width="3.47"/>
      <line x1="143.44" y1="53.82" x2="215.96" y2="53.82" fill="none" stroke="#231815" stroke-miterlimit="10" stroke-width="3.47"/>
      <g>
        <path d="M107.35,36.66v-7.83s0-1.33,0-1.33c0-4.02,3.26-7.28,7.28-7.28" fill="none" stroke="#231815" stroke-miterlimit="10" stroke-width="3.47"/>
        <path d="M107.35,46.25v-7.83s0-1.33,0-1.33c0-4.02,3.26-7.28,7.28-7.28" fill="none" stroke="#231815" stroke-miterlimit="10" stroke-width="3.47"/>
        <path d="M107.35,63.87v-15.85s0-1.33,0-1.33c0-4.02,3.26-7.28,7.28-7.28" fill="none" stroke="#231815" stroke-miterlimit="10" stroke-width="3.47"/>
        <path d="M126.77,36.66v-7.83s0-1.33,0-1.33c0-4.02,3.26-7.28,7.28-7.28" fill="none" stroke="#231815" stroke-miterlimit="10" stroke-width="3.47"/>
        <path d="M126.77,46.25v-7.83s0-1.33,0-1.33c0-4.02,3.26-7.28,7.28-7.28" fill="none" stroke="#231815" stroke-miterlimit="10" stroke-width="3.47"/>
        <path d="M126.77,63.87v-15.85s0-1.33,0-1.33c0-4.02,3.26-7.28,7.28-7.28" fill="none" stroke="#231815" stroke-miterlimit="10" stroke-width="3.47"/>
      </g>
      <line x1="85.55" y1="63.87" x2="158.06" y2="63.87" fill="none" stroke="#231815" stroke-miterlimit="10" stroke-width="3.47"/>
      <line x1="286.51" y1="187.25" x2="359.03" y2="187.25" fill="none" stroke="#231815" stroke-miterlimit="10" stroke-width="3.47"/>
      <g>
        <path d="M37.86,167.33v-7.83s0-1.33,0-1.33c0-4.02,3.26-7.28,7.28-7.28" fill="none" stroke="#231815" stroke-miterlimit="10" stroke-width="3.47"/>
        <path d="M37.86,176.92v-7.83s0-1.33,0-1.33c0-4.02,3.26-7.28,7.28-7.28" fill="none" stroke="#231815" stroke-miterlimit="10" stroke-width="3.47"/>
        <path d="M37.86,194.54v-15.85s0-1.33,0-1.33c0-4.02,3.26-7.28,7.28-7.28" fill="none" stroke="#231815" stroke-miterlimit="10" stroke-width="3.47"/>
        <path d="M57.28,167.33v-7.83s0-1.33,0-1.33c0-4.02,3.26-7.28,7.28-7.28" fill="none" stroke="#231815" stroke-miterlimit="10" stroke-width="3.47"/>
        <path d="M57.28,176.92v-7.83s0-1.33,0-1.33c0-4.02,3.26-7.28,7.28-7.28" fill="none" stroke="#231815" stroke-miterlimit="10" stroke-width="3.47"/>
        <path d="M57.28,194.54v-15.85s0-1.33,0-1.33c0-4.02,3.26-7.28,7.28-7.28" fill="none" stroke="#231815" stroke-miterlimit="10" stroke-width="3.47"/>
      </g>
      <line x1="6.36" y1="194.54" x2="78.88" y2="194.54" fill="none" stroke="#231815" stroke-miterlimit="10" stroke-width="3.47"/>
      <g>
        <g>
          <path d="M369.18,182.41v-7.83s0-1.33,0-1.33c0-4.02,3.26-7.28,7.28-7.28" fill="none" stroke="#231815" stroke-miterlimit="10" stroke-width="3.47"/>
          <path d="M369.18,192.01v-7.83s0-1.33,0-1.33c0-4.02,3.26-7.28,7.28-7.28" fill="none" stroke="#231815" stroke-miterlimit="10" stroke-width="3.47"/>
          <path d="M369.18,209.62v-15.85s0-1.33,0-1.33c0-4.02,3.26-7.28,7.28-7.28" fill="none" stroke="#231815" stroke-miterlimit="10" stroke-width="3.47"/>
          <path d="M388.6,182.41v-7.83s0-1.33,0-1.33c0-4.02,3.26-7.28,7.28-7.28" fill="none" stroke="#231815" stroke-miterlimit="10" stroke-width="3.47"/>
          <path d="M388.6,192.01v-7.83s0-1.33,0-1.33c0-4.02,3.26-7.28,7.28-7.28" fill="none" stroke="#231815" stroke-miterlimit="10" stroke-width="3.47"/>
          <path d="M388.6,209.62v-15.85s0-1.33,0-1.33c0-4.02,3.26-7.28,7.28-7.28" fill="none" stroke="#231815" stroke-miterlimit="10" stroke-width="3.47"/>
        </g>
        <line x1="337.69" y1="209.62" x2="410.2" y2="209.62" fill="none" stroke="#231815" stroke-miterlimit="10" stroke-width="3.47"/>
      </g>
      <g>
        <rect x="349.95" y="89.79" width="5.32" height="5.32" fill="#eede4f"/>
        <rect x="344.68" y="95.11" width="5.32" height="5.32" transform="translate(694.67 195.55) rotate(180)" fill="#eede4f"/>
        <rect x="344.68" y="84.47" width="5.32" height="5.32" transform="translate(694.67 174.26) rotate(180)" fill="#eede4f"/>
        <rect x="339.4" y="89.79" width="5.32" height="5.32" fill="#eede4f"/>
      </g>
      <g>
        <rect x="70.34" y="76.46" width="5.32" height="5.32" fill="#eede4f"/>
        <rect x="65.07" y="81.78" width="5.32" height="5.32" transform="translate(135.46 168.88) rotate(-180)" fill="#eede4f"/>
        <rect x="65.07" y="71.13" width="5.32" height="5.32" transform="translate(135.46 147.59) rotate(-180)" fill="#eede4f"/>
        <rect x="59.79" y="76.46" width="5.32" height="5.32" fill="#eede4f"/>
      </g>
      <g>
        <rect x="268.75" y="5.32" width="5.32" height="5.32" fill="#eede4f"/>
        <rect x="263.47" y="10.65" width="5.32" height="5.32" transform="translate(532.27 26.62) rotate(-180)" fill="#eede4f"/>
        <rect x="263.47" y="0" width="5.32" height="5.32" transform="translate(532.27 5.32) rotate(-180)" fill="#eede4f"/>
        <rect x="258.2" y="5.32" width="5.32" height="5.32" fill="#eede4f"/>
      </g>
    </g>
  </g>
</svg>