<?xml version="1.0" encoding="UTF-8"?>
<svg id="_레이어_2" data-name="레이어 2" xmlns="http://www.w3.org/2000/svg" viewBox="0 0 59.81 83.93">
  <defs>
    <style>
      .cls-1 {
        fill: #ee8cb4;
      }

      .cls-2 {
        fill: #040000;
      }
    </style>
  </defs>
  <g id="_레이어_1-2" data-name="레이어 1">
    <g>
      <polygon class="cls-1" points="21.68 0 36.13 0 56.01 33.01 58.52 63.72 38.49 82.11 13.51 81.15 1.09 56.9 4.39 33.53 21.68 0"/>
      <g>
        <path class="cls-2" d="M5.65,54.26c0,13.39,10.86,24.25,24.25,24.25,13.39,0,24.25-10.86,24.25-24.25,0-.08-.02-.15-.02-.23h5.68c0,16.52-13.39,29.91-29.9,29.91-16.52,0-29.9-13.39-29.9-29.91h5.68c0,.08-.02.15-.02.23Z"/>
        <rect class="cls-2" x="13.06" y="-1.27" width="5.68" height="51" transform="translate(12.43 -4.54) rotate(26.4)"/>
        <rect class="cls-2" x="41.07" y="-1.27" width="5.68" height="51" transform="translate(94.01 26.42) rotate(153.6)"/>
        <path class="cls-2" d="M19,68.93c3.01,3.01,6.65,4.52,10.91,4.52s7.89-1.51,10.91-4.52c3.01-3.01,4.52-6.63,4.52-10.86v-6.15h-5.74v6.15c0,2.67-.94,4.94-2.82,6.82-1.91,1.88-4.2,2.82-6.87,2.82s-4.95-.94-6.87-2.82c-1.88-1.88-2.82-4.16-2.82-6.82v-6.15h-5.74v6.15c0,4.23,1.51,7.85,4.52,10.86Z"/>
        <rect class="cls-2" x="19.57" y="28.45" width="5.68" height="20.28" transform="translate(22.3 -6.03) rotate(30)"/>
        <rect class="cls-2" x="34.56" y="28.45" width="5.68" height="20.28" transform="translate(89.08 53.31) rotate(150)"/>
      </g>
    </g>
  </g>
</svg>