<?xml version="1.0" encoding="UTF-8"?>
<svg id="_레이어_2" data-name="레이어 2" xmlns="http://www.w3.org/2000/svg" width="50.51mm" height="70.59mm" viewBox="0 0 143.19 200.1">
  <g id="_디자인" data-name="디자인">
    <g>
      <path d="M118.73,82.62c9.68-4.34,16.42-14.05,16.42-25.34,0-15.33-12.43-27.76-27.76-27.76-4.29,0-8.35.97-11.98,2.71.04-.64.07-1.29.07-1.94,0-15.33-12.43-27.76-27.76-27.76s-27.76,12.43-27.76,27.76c0,.71.04,1.41.09,2.1-3.71-1.84-7.88-2.88-12.3-2.88C12.43,29.52,0,41.95,0,57.28c0,11.29,6.74,21,16.42,25.34-9.04,4.58-15.25,13.95-15.25,24.78,0,15.33,12.43,27.76,27.76,27.76,7.3,0,13.93-2.82,18.88-7.42,5.09,5.98,12.67,9.78,21.14,9.78,7.82,0,14.88-3.24,19.93-8.45,4.75,3.81,10.78,6.09,17.34,6.09,15.33,0,27.76-12.43,27.76-27.76,0-10.83-6.2-20.2-15.25-24.78ZM36.99,71.59c-6,0-10.86-4.86-10.86-10.86s4.86-10.86,10.86-10.86,10.86,4.86,10.86,10.86-4.86,10.86-10.86,10.86ZM108.22,117.16c-6,0-10.86-4.86-10.86-10.86s4.86-10.86,10.86-10.86,10.86,4.86,10.86,10.86-4.86,10.86-10.86,10.86Z" fill="#7cc9c8"/>
      <g>
        <path d="M47.5,28.65c0-14.3,11.59-25.9,25.9-25.9s25.9,11.59,25.9,25.9" fill="none" stroke="#231815" stroke-miterlimit="10" stroke-width="5.5"/>
        <path d="M21.11,78.13c-12.92-6.13-18.44-21.57-12.31-34.49,6.13-12.92,21.57-18.44,34.49-12.31" fill="none" stroke="#231815" stroke-miterlimit="10" stroke-width="5.5"/>
        <path d="M21.11,83.53c-12.92,6.13-18.44,21.57-12.31,34.49,6.13,12.92,21.57,18.44,34.49,12.31" fill="none" stroke="#231815" stroke-miterlimit="10" stroke-width="5.5"/>
        <path d="M125.63,78.07c12.92-6.13,18.44-21.57,12.31-34.49-6.13-12.92-21.57-18.44-34.49-12.31" fill="none" stroke="#231815" stroke-miterlimit="10" stroke-width="5.5"/>
        <path d="M125.63,83.47c12.92,6.13,18.44,21.57,12.31,34.49-6.13,12.92-21.57,18.44-34.49,12.31" fill="none" stroke="#231815" stroke-miterlimit="10" stroke-width="5.5"/>
        <line x1="60.41" y1="91.38" x2="60.41" y2="171.29" fill="none" stroke="#231815" stroke-miterlimit="10" stroke-width="5.5"/>
        <line x1="89.75" y1="91.38" x2="89.75" y2="171.29" fill="none" stroke="#231815" stroke-miterlimit="10" stroke-width="5.5"/>
        <line x1="76.42" y1="180.74" x2="76.42" y2="200.1" fill="none" stroke="#231815" stroke-miterlimit="10" stroke-width="5.5"/>
        <line x1="92.43" y1="180.79" x2="104.09" y2="196.25" fill="none" stroke="#231815" stroke-miterlimit="10" stroke-width="5.5"/>
        <line x1="60.41" y1="180.79" x2="48.75" y2="196.25" fill="none" stroke="#231815" stroke-miterlimit="10" stroke-width="5.5"/>
        <g>
          <path d="M54.37,56.49c0-5.44-5.82-9.42-11.08-9.42s-11.08,3.98-11.08,9.42" fill="none" stroke="#231815" stroke-miterlimit="10" stroke-width="5.5"/>
          <path d="M32.22,61.37c0,5.44,5.82,9.42,11.08,9.42s11.08-3.98,11.08-9.42" fill="none" stroke="#231815" stroke-miterlimit="10" stroke-width="5.5"/>
        </g>
        <g>
          <path d="M125.59,103.3c0-5.44-5.82-9.42-11.08-9.42s-11.08,3.98-11.08,9.42" fill="none" stroke="#231815" stroke-miterlimit="10" stroke-width="5.5"/>
          <path d="M103.44,108.18c0,5.44,5.82,9.42,11.08,9.42s11.08-3.98,11.08-9.42" fill="none" stroke="#231815" stroke-miterlimit="10" stroke-width="5.5"/>
        </g>
      </g>
    </g>
  </g>
</svg>