<?xml version="1.0" encoding="UTF-8"?>
<svg id="_레이어_2" data-name="레이어 2" xmlns="http://www.w3.org/2000/svg" width="23.96mm" height="30.11mm" viewBox="0 0 67.91 85.35">
  <g id="_디자인" data-name="디자인">
    <g>
      <path d="M60.63,29.79c0-8.47-6.87-15.34-15.34-15.34-.16,0-.31.02-.47.02-1.9-6.32-7.75-10.92-14.69-10.92-7.32,0-13.44,5.13-14.97,12-8.39.1-15.16,6.92-15.16,15.33,0,5.22,2.61,9.83,6.6,12.6-.54,1.57-.85,3.25-.85,5.01,0,8.47,6.87,15.34,15.34,15.34,3.79,0,7.26-1.38,9.94-3.66,2.43,1.62,5.36,2.57,8.5,2.57,8.47,0,15.34-6.87,15.34-15.34,0-1.76-.31-3.44-.85-5.01,3.99-2.77,6.6-7.38,6.6-12.6ZM31.78,48.39c-6.29,0-11.39-5.1-11.39-11.39s5.1-11.39,11.39-11.39,11.39,5.1,11.39,11.39-5.1,11.39-11.39,11.39Z" fill="#7cc9c8"/>
      <g>
        <path d="M22.59,14.31c0-6.38,5.17-11.56,11.56-11.56s11.56,5.17,11.56,11.56" fill="none" stroke="#231815" stroke-miterlimit="10" stroke-width="5.5"/>
        <path d="M3.14,85.35c0-6.38,5.17-11.56,11.56-11.56s11.56,5.17,11.56,11.56" fill="none" stroke="#231815" stroke-miterlimit="10" stroke-width="5.5"/>
        <path d="M42.04,85.35c0-6.38,5.17-11.56,11.56-11.56s11.56,5.17,11.56,11.56" fill="none" stroke="#231815" stroke-miterlimit="10" stroke-width="5.5"/>
        <path d="M11.85,38.91c-6.07-1.97-9.39-8.49-7.42-14.56s8.49-9.39,14.56-7.42" fill="none" stroke="#231815" stroke-miterlimit="10" stroke-width="5.5"/>
        <path d="M31.92,56.7c-3.75,5.16-10.98,6.31-16.14,2.56s-6.31-10.98-2.56-16.14" fill="none" stroke="#231815" stroke-miterlimit="10" stroke-width="5.5"/>
        <path d="M56.44,38.9c6.07-1.97,9.39-8.49,7.42-14.56s-8.49-9.39-14.56-7.42" fill="none" stroke="#231815" stroke-miterlimit="10" stroke-width="5.5"/>
        <path d="M36.37,56.7c3.75,5.16,10.98,6.31,16.14,2.56s6.31-10.98,2.56-16.14" fill="none" stroke="#231815" stroke-miterlimit="10" stroke-width="5.5"/>
        <g>
          <path d="M45.22,31.92c0-5.44-5.82-9.42-11.08-9.42s-11.08,3.98-11.08,9.42" fill="none" stroke="#231815" stroke-miterlimit="10" stroke-width="5.5"/>
          <path d="M23.07,36.8c0,5.44,5.82,9.42,11.08,9.42s11.08-3.98,11.08-9.42" fill="none" stroke="#231815" stroke-miterlimit="10" stroke-width="5.5"/>
        </g>
      </g>
    </g>
  </g>
</svg>