<?xml version="1.0" encoding="UTF-8"?>
<svg id="_레이어_2" data-name="레이어 2" xmlns="http://www.w3.org/2000/svg" viewBox="0 0 95.43 205.87">
  <defs>
    <style>
      .cls-1 {
        fill: #ee8cb4;
      }

      .cls-2 {
        fill: #040000;
      }
    </style>
  </defs>
  <g id="_레이어_1-2" data-name="레이어 1">
    <g>
      <polygon class="cls-1" points="41.94 .52 53.56 .52 69.53 27.05 71.55 51.73 55.45 66.51 35.37 65.74 25.39 46.25 28.04 27.46 41.94 .52"/>
      <path class="cls-2" d="M32.31,62.05c4.61,4.61,10.18,6.92,16.69,6.92s12.08-2.31,16.69-6.92c4.61-4.61,6.92-10.15,6.92-16.63v-9.42h-8.78v9.42c0,4.08-1.44,7.56-4.32,10.44-2.93,2.88-6.43,4.32-10.51,4.32s-7.58-1.44-10.51-4.32c-2.88-2.88-4.32-6.36-4.32-10.44v-9.42h-8.78v9.42c0,6.47,2.31,12.02,6.92,16.63Z"/>
      <rect class="cls-2" x="19.54" y="107.98" width="8.69" height="80.51"/>
      <rect class="cls-2" x="68.26" y="107.98" width="8.69" height="80.51"/>
      <rect class="cls-2" x="44.02" y="83.51" width="8.69" height="40.26" transform="translate(152 55.28) rotate(90)"/>
      <rect class="cls-2" x="43.37" y="153.81" width="8.69" height="95.43" transform="translate(249.24 153.81) rotate(90)"/>
      <rect class="cls-2" x="44.65" y="67.33" width="8.69" height="23.68"/>
      <rect class="cls-2" x="33.18" y=".09" width="8.69" height="31.04" transform="translate(12.83 -16.67) rotate(30)"/>
      <rect class="cls-2" x="56.12" y=".09" width="8.69" height="31.04" transform="translate(120.64 -1.1) rotate(150)"/>
    </g>
  </g>
</svg>