<?xml version="1.0" encoding="UTF-8"?>
<svg id="_레이어_2" data-name="레이어 2" xmlns="http://www.w3.org/2000/svg" width="83.09mm" height="62.34mm" viewBox="0 0 235.54 176.7">
  <g id="_컬러" data-name="컬러">
    <path d="M207.47,109.95l-51.41-63.99h-32.08v-24.35h-53.21v24.35h-2.93v.3c-32.45,3.1-57.84,30.43-57.84,63.69s25.38,60.59,57.84,63.69v.3h88.22s51.41-63.99,51.41-63.99ZM53.89,123.41c-7.63,0-13.82-6.19-13.82-13.82s6.19-13.82,13.82-13.82,13.82,6.19,13.82,13.82-6.19,13.82-13.82,13.82ZM99.41,123.41c-7.63,0-13.82-6.19-13.82-13.82s6.19-13.82,13.82-13.82,13.81,6.19,13.81,13.82-6.19,13.82-13.81,13.82ZM144.92,123.41c-7.63,0-13.82-6.19-13.82-13.82s6.19-13.82,13.82-13.82,13.81,6.19,13.81,13.82-6.19,13.82-13.81,13.82Z" fill="#3b9cd0"/>
  </g>
  <g id="_디자인" data-name="디자인">
    <g>
      <line x1="96.12" y1="2.75" x2="67.2" y2="2.75" fill="none" stroke="#231815" stroke-miterlimit="10" stroke-width="5.5"/>
      <g>
        <path d="M146.8,173.95h-80.05c-35.34,0-63.99-28.65-63.99-63.99s28.65-63.99,63.99-63.99h80.05" fill="none" stroke="#231815" stroke-miterlimit="10" stroke-width="5.5"/>
        <line x1="200.8" y1="109.95" x2="149.39" y2="47.05" fill="none" stroke="#231815" stroke-miterlimit="10" stroke-width="5.5"/>
        <line x1="200.8" y1="109.95" x2="149.39" y2="172.82" fill="none" stroke="#231815" stroke-miterlimit="10" stroke-width="5.5"/>
        <line x1="197.67" y1="109.95" x2="232.79" y2="109.95" fill="none" stroke="#231815" stroke-miterlimit="10" stroke-width="5.5"/>
        <line x1="232.79" y1="78.79" x2="232.79" y2="141.12" fill="none" stroke="#231815" stroke-miterlimit="10" stroke-width="5.5"/>
        <g>
          <path d="M61.18,106.88c0-6.85-7.33-11.87-13.95-11.87s-13.95,5.01-13.95,11.87" fill="none" stroke="#231815" stroke-miterlimit="10" stroke-width="5.5"/>
          <path d="M33.27,113.03c0,6.85,7.33,11.87,13.95,11.87s13.95-5.01,13.95-11.87" fill="none" stroke="#231815" stroke-miterlimit="10" stroke-width="5.5"/>
        </g>
        <g>
          <path d="M106.83,106.88c0-6.85-7.33-11.87-13.95-11.87s-13.95,5.01-13.95,11.87" fill="none" stroke="#231815" stroke-miterlimit="10" stroke-width="5.5"/>
          <path d="M78.92,113.03c0,6.85,7.33,11.87,13.95,11.87s13.95-5.01,13.95-11.87" fill="none" stroke="#231815" stroke-miterlimit="10" stroke-width="5.5"/>
        </g>
        <g>
          <path d="M152.48,106.88c0-6.85-7.33-11.87-13.95-11.87s-13.95,5.01-13.95,11.87" fill="none" stroke="#231815" stroke-miterlimit="10" stroke-width="5.5"/>
          <path d="M124.58,113.03c0,6.85,7.33,11.87,13.95,11.87s13.95-5.01,13.95-11.87" fill="none" stroke="#231815" stroke-miterlimit="10" stroke-width="5.5"/>
        </g>
        <line x1="64.1" y1="25.07" x2="64.1" y2="45.96" fill="none" stroke="#231815" stroke-miterlimit="10" stroke-width="5.5"/>
        <line x1="117.31" y1="25.07" x2="117.31" y2="45.96" fill="none" stroke="#231815" stroke-miterlimit="10" stroke-width="5.5"/>
        <line x1="92.88" y1=".72" x2="92.88" y2="21.61" fill="none" stroke="#231815" stroke-miterlimit="10" stroke-width="5.5"/>
        <line x1="67.33" y1="21.83" x2="114.09" y2="21.83" fill="none" stroke="#231815" stroke-miterlimit="10" stroke-width="5.5"/>
      </g>
    </g>
  </g>
</svg>