<?xml version="1.0" encoding="UTF-8"?>
<svg id="_레이어_2" data-name="레이어 2" xmlns="http://www.w3.org/2000/svg" width="80.76mm" height="58.93mm" viewBox="0 0 228.93 167.04">
  <g id="_컬러" data-name="컬러">
    <path d="M152.72,4.84c-2.03.53-3.99,1.19-5.88,1.97l-110.44,29.28c-.89.19-1.79.4-2.68.64-.58.16-1.15.34-1.72.52l-.09.02h0C9.18,44.59-3.95,68.6,2.47,91.83l30.28-8.36v.02s93.86-25.02,93.86-25.02l81.4-21.08c-6.28-24.26-31.04-38.83-55.29-32.55Z" fill="#dce1e8"/>
    <rect y="99.37" width="217" height="67.67" fill="#dce1e8"/>
  </g>
  <g id="_디자인" data-name="디자인">
    <g>
      <line x1="44.92" y1="33.36" x2="158.17" y2="4.29" fill="none" stroke="#231815" stroke-miterlimit="10" stroke-width="5.5"/>
      <line x1="9.93" y1="89.81" x2="216.79" y2="36.71" fill="none" stroke="#231815" stroke-miterlimit="10" stroke-width="5.5"/>
      <path d="M9.84,92.66c-6.69-26.06,9.01-52.61,35.08-59.3,26.06-6.69,52.61,9.01,59.3,35.08" fill="none" stroke="#231815" stroke-miterlimit="10" stroke-width="5.5"/>
      <path d="M158.17,4.29c26.06-6.69,52.61,9.01,59.3,35.08" fill="none" stroke="#231815" stroke-miterlimit="10" stroke-width="5.5"/>
      <line x1="9.94" y1="97.73" x2="9.94" y2="159.67" fill="none" stroke="#231815" stroke-miterlimit="10" stroke-width="5.5"/>
      <line x1="108.5" y1="97.73" x2="108.5" y2="159.67" fill="none" stroke="#231815" stroke-miterlimit="10" stroke-width="5.5"/>
      <line x1="226.18" y1="97.73" x2="226.18" y2="159.67" fill="none" stroke="#231815" stroke-miterlimit="10" stroke-width="5.5"/>
      <line x1="12.71" y1="95.03" x2="223.46" y2="95.03" fill="none" stroke="#231815" stroke-miterlimit="10" stroke-width="5.5"/>
      <line x1="12.71" y1="162.4" x2="223.46" y2="162.4" fill="none" stroke="#231815" stroke-miterlimit="10" stroke-width="5.5"/>
      <path d="M111.12,85.09c0-6.34,5.14-11.48,11.48-11.48s11.48,5.14,11.48,11.48" fill="none" stroke="#231815" stroke-miterlimit="10" stroke-width="5.5"/>
      <path d="M139.56,85.09c0-6.34,5.14-11.48,11.48-11.48s11.48,5.14,11.48,11.48" fill="none" stroke="#231815" stroke-miterlimit="10" stroke-width="5.5"/>
      <path d="M167.94,85.09c0-6.34,5.14-11.48,11.48-11.48s11.48,5.14,11.48,11.48" fill="none" stroke="#231815" stroke-miterlimit="10" stroke-width="5.5"/>
      <path d="M196.38,85.09c0-6.34,5.14-11.48,11.48-11.48s11.48,5.14,11.48,11.48" fill="none" stroke="#231815" stroke-miterlimit="10" stroke-width="5.5"/>
    </g>
  </g>
</svg>