<?xml version="1.0" encoding="UTF-8"?>
<svg id="_레이어_2" data-name="레이어 2" xmlns="http://www.w3.org/2000/svg" width="18.07mm" height="11.58mm" viewBox="0 0 51.22 32.82">
  <g id="_컬러" data-name="컬러">
    <path d="M15.74,24.29l-12.69-3.39.08-8.35,10.32-4.05c.63-.85,1.39-1.63,2.28-2.29.3-.22.61-.43.93-.63,5.34-3.24,12.29-1.54,15.53,3.8,3.24,5.34,1.54,12.29-3.8,15.53-4.06,2.46-9.05,2.06-12.64-.62Z" fill="#3b9cd0"/>
    <polygon points="40.27 19.25 51.22 31.84 51.22 6.66 40.27 19.25" fill="#3b9cd0"/>
  </g>
  <g id="_디자인" data-name="디자인">
    <g>
      <path d="M1.03,12.53l11.52-4.66,1.96-.79c5.92-2.39,12.65.46,15.05,6.38" fill="none" stroke="#231815" stroke-miterlimit="10" stroke-width="5.5"/>
      <path d="M1.19,21.62l11.74,4.07,2,.69c6.03,2.09,12.61-1.1,14.7-7.13" fill="none" stroke="#231815" stroke-miterlimit="10" stroke-width="5.5"/>
      <line x1="38.1" y1="14.74" x2="48.73" y2="1.74" fill="none" stroke="#231815" stroke-miterlimit="10" stroke-width="5.5"/>
      <line x1="38.1" y1="18.09" x2="48.73" y2="31.08" fill="none" stroke="#231815" stroke-miterlimit="10" stroke-width="5.5"/>
    </g>
  </g>
</svg>