<?xml version="1.0" encoding="UTF-8"?>
<svg id="_레이어_2" data-name="레이어 2" xmlns="http://www.w3.org/2000/svg" width="23.82mm" height="30.11mm" viewBox="0 0 67.52 85.35">
  <g id="_디자인" data-name="디자인">
    <g>
      <path d="M62.31,20.48l-5.21-5.21h-7.08l-2.29,1.53-1.12-5.4-1.94-3.47-4.54-3.11-5.12-1.57-5.04,1.57-5.25,2.71-2.43,4.94v4.79l-3.54-1.99-8.69,2.81s-3.71,3.47-3.79,3.88-1.02,9.49-1.02,9.49l1.6,4.54,5.12,3.7,2.04-.24-2.76,4.96-.53,3.21,3.04,9.62,5.11,2.23,5.84,1.14,7.26-1.38,1.31-2.68h3.44l2.86,2.68s6.28,1.3,7.01,1.19c.74-.1,7.55-2.11,7.55-2.11l4.58-4.54,1.04-7.75-1.04-2.54-2.73-4.49,4.54-1.05,4.17-8.1v-3.34l-2.41-6.01ZM34.99,42.97c-4.44,0-8.05-3.6-8.05-8.05s3.6-8.05,8.05-8.05,8.05,3.6,8.05,8.05-3.6,8.05-8.05,8.05Z" fill="#7cc9c8"/>
      <g>
        <path d="M22.2,14.31c0-6.38,5.17-11.56,11.56-11.56s11.56,5.17,11.56,11.56" fill="none" stroke="#231815" stroke-miterlimit="10" stroke-width="5.5"/>
        <path d="M2.75,85.35c0-6.38,5.17-11.56,11.56-11.56s11.56,5.17,11.56,11.56" fill="none" stroke="#231815" stroke-miterlimit="10" stroke-width="5.5"/>
        <path d="M41.66,85.35c0-6.38,5.17-11.56,11.56-11.56s11.56,5.17,11.56,11.56" fill="none" stroke="#231815" stroke-miterlimit="10" stroke-width="5.5"/>
        <path d="M11.46,38.91c-6.07-1.97-9.39-8.49-7.42-14.56s8.49-9.39,14.56-7.42" fill="none" stroke="#231815" stroke-miterlimit="10" stroke-width="5.5"/>
        <path d="M31.53,56.7c-3.75,5.16-10.98,6.31-16.14,2.56s-6.31-10.98-2.56-16.14" fill="none" stroke="#231815" stroke-miterlimit="10" stroke-width="5.5"/>
        <path d="M56.06,38.9c6.07-1.97,9.39-8.49,7.42-14.56s-8.49-9.39-14.56-7.42" fill="none" stroke="#231815" stroke-miterlimit="10" stroke-width="5.5"/>
        <path d="M35.98,56.7c3.75,5.16,10.98,6.31,16.14,2.56s6.31-10.98,2.56-16.14" fill="none" stroke="#231815" stroke-miterlimit="10" stroke-width="5.5"/>
        <g>
          <path d="M44.84,31.92c0-5.44-5.82-9.42-11.08-9.42s-11.08,3.98-11.08,9.42" fill="none" stroke="#231815" stroke-miterlimit="10" stroke-width="5.5"/>
          <path d="M22.68,36.8c0,5.44,5.82,9.42,11.08,9.42s11.08-3.98,11.08-9.42" fill="none" stroke="#231815" stroke-miterlimit="10" stroke-width="5.5"/>
        </g>
      </g>
    </g>
  </g>
</svg>