<?xml version="1.0" encoding="UTF-8"?>
<svg id="_레이어_2" data-name="레이어 2" xmlns="http://www.w3.org/2000/svg" width="85.65mm" height="62.34mm" viewBox="0 0 242.78 176.7">
  <g id="_디자인" data-name="디자인">
    <g>
      <polygon points="58.1 105.11 49.02 98.46 22.23 105.11 22.23 111.76 45.88 118.04 56.04 111.02 74.69 118.04 73.03 96.98 58.1 105.11" fill="#3b9cd0"/>
      <polygon points="151.52 47.25 119.03 43.86 119.03 20.12 115.02 23.51 62.68 23.51 64.3 43.87 19.57 61.98 0 108.17 13.81 150.23 52.83 172.7 145.77 175.85 201.07 111.16 151.52 47.25" fill="#3b9cd0"/>
      <g>
        <line x1="103.36" y1="2.75" x2="74.44" y2="2.75" fill="none" stroke="#231815" stroke-miterlimit="10" stroke-width="5.5"/>
        <g>
          <path d="M154.04,173.95h-80.05c-35.34,0-63.99-28.65-63.99-63.99s28.65-63.99,63.99-63.99h80.05" fill="none" stroke="#231815" stroke-miterlimit="10" stroke-width="5.5"/>
          <line x1="208.04" y1="109.95" x2="156.63" y2="47.05" fill="none" stroke="#231815" stroke-miterlimit="10" stroke-width="5.5"/>
          <line x1="208.04" y1="109.95" x2="156.63" y2="172.82" fill="none" stroke="#231815" stroke-miterlimit="10" stroke-width="5.5"/>
          <line x1="204.91" y1="109.95" x2="240.03" y2="109.95" fill="none" stroke="#231815" stroke-miterlimit="10" stroke-width="5.5"/>
          <line x1="240.03" y1="78.79" x2="240.03" y2="141.12" fill="none" stroke="#231815" stroke-miterlimit="10" stroke-width="5.5"/>
          <g>
            <path d="M68.42,106.88c0-6.85-7.33-11.87-13.95-11.87s-13.95,5.01-13.95,11.87" fill="none" stroke="#231815" stroke-miterlimit="10" stroke-width="5.5"/>
            <path d="M40.51,113.03c0,6.85,7.33,11.87,13.95,11.87s13.95-5.01,13.95-11.87" fill="none" stroke="#231815" stroke-miterlimit="10" stroke-width="5.5"/>
          </g>
          <g>
            <path d="M114.07,106.88c0-6.85-7.33-11.87-13.95-11.87s-13.95,5.01-13.95,11.87" fill="none" stroke="#231815" stroke-miterlimit="10" stroke-width="5.5"/>
            <path d="M86.16,113.03c0,6.85,7.33,11.87,13.95,11.87s13.95-5.01,13.95-11.87" fill="none" stroke="#231815" stroke-miterlimit="10" stroke-width="5.5"/>
          </g>
          <g>
            <path d="M159.72,106.88c0-6.85-7.33-11.87-13.95-11.87s-13.95,5.01-13.95,11.87" fill="none" stroke="#231815" stroke-miterlimit="10" stroke-width="5.5"/>
            <path d="M131.82,113.03c0,6.85,7.33,11.87,13.95,11.87s13.95-5.01,13.95-11.87" fill="none" stroke="#231815" stroke-miterlimit="10" stroke-width="5.5"/>
          </g>
          <line x1="71.34" y1="25.07" x2="71.34" y2="45.96" fill="none" stroke="#231815" stroke-miterlimit="10" stroke-width="5.5"/>
          <line x1="124.55" y1="25.07" x2="124.55" y2="45.96" fill="none" stroke="#231815" stroke-miterlimit="10" stroke-width="5.5"/>
          <line x1="100.12" y1=".72" x2="100.12" y2="21.61" fill="none" stroke="#231815" stroke-miterlimit="10" stroke-width="5.5"/>
          <line x1="74.57" y1="21.83" x2="121.33" y2="21.83" fill="none" stroke="#231815" stroke-miterlimit="10" stroke-width="5.5"/>
        </g>
      </g>
    </g>
  </g>
</svg>