<?xml version="1.0" encoding="UTF-8"?>
<svg id="_레이어_2" data-name="레이어 2" xmlns="http://www.w3.org/2000/svg" width="51.46mm" height="71.79mm" viewBox="0 0 145.86 203.5">
  <g id="_디자인" data-name="디자인">
    <g>
      <path d="M54.38,132.81l-16.49,7.58-27.03-17.15v-31.11l13.37-5.26-17.51-8.65L0,58.42l13.65-26.67,19.35-3.64,10.19,5.97,3.65-21.13,9.98-8.77L80.06,0s13.45,7.78,14.06,8.18,9.98,21.94,9.17,22.13c-.81.2,11.41-1,11.41-1l18.33,4.78,11.61,12.37,1.22,18.55-13.04,18.94-8.75.45,12.46,7.36,3.92,10.43,1.35,14.6-17.5,19.98-21.54,1.1-11.67-2.09" fill="#7cc9c8"/>
      <g>
        <path d="M44.89,32.05c0-14.3,11.59-25.9,25.9-25.9s25.9,11.59,25.9,25.9" fill="none" stroke="#231815" stroke-miterlimit="10" stroke-width="5.5"/>
        <path d="M18.5,81.54C5.58,75.41.07,59.97,6.2,47.04c6.13-12.92,21.57-18.44,34.49-12.31" fill="none" stroke="#231815" stroke-miterlimit="10" stroke-width="5.5"/>
        <path d="M18.5,86.94C5.58,93.06.07,108.51,6.2,121.43c6.13,12.92,21.57,18.44,34.49,12.31" fill="none" stroke="#231815" stroke-miterlimit="10" stroke-width="5.5"/>
        <path d="M123.02,81.47c12.92-6.13,18.44-21.57,12.31-34.49-6.13-12.92-21.57-18.44-34.49-12.31" fill="none" stroke="#231815" stroke-miterlimit="10" stroke-width="5.5"/>
        <path d="M123.02,86.88c12.92,6.13,18.44,21.57,12.31,34.49-6.13,12.92-21.57,18.44-34.49,12.31" fill="none" stroke="#231815" stroke-miterlimit="10" stroke-width="5.5"/>
        <line x1="57.81" y1="94.78" x2="57.81" y2="174.69" fill="none" stroke="#231815" stroke-miterlimit="10" stroke-width="5.5"/>
        <line x1="87.15" y1="94.78" x2="87.15" y2="174.69" fill="none" stroke="#231815" stroke-miterlimit="10" stroke-width="5.5"/>
        <line x1="73.81" y1="184.14" x2="73.81" y2="203.5" fill="none" stroke="#231815" stroke-miterlimit="10" stroke-width="5.5"/>
        <line x1="89.82" y1="184.2" x2="101.48" y2="199.66" fill="none" stroke="#231815" stroke-miterlimit="10" stroke-width="5.5"/>
        <line x1="57.81" y1="184.2" x2="46.15" y2="199.66" fill="none" stroke="#231815" stroke-miterlimit="10" stroke-width="5.5"/>
        <g>
          <path d="M51.76,59.89c0-5.44-5.82-9.42-11.08-9.42s-11.08,3.98-11.08,9.42" fill="none" stroke="#231815" stroke-miterlimit="10" stroke-width="5.5"/>
          <path d="M29.61,64.77c0,5.44,5.82,9.42,11.08,9.42s11.08-3.98,11.08-9.42" fill="none" stroke="#231815" stroke-miterlimit="10" stroke-width="5.5"/>
        </g>
        <g>
          <path d="M122.99,106.7c0-5.44-5.82-9.42-11.08-9.42s-11.08,3.98-11.08,9.42" fill="none" stroke="#231815" stroke-miterlimit="10" stroke-width="5.5"/>
          <path d="M100.84,111.58c0,5.44,5.82,9.42,11.08,9.42s11.08-3.98,11.08-9.42" fill="none" stroke="#231815" stroke-miterlimit="10" stroke-width="5.5"/>
        </g>
      </g>
    </g>
  </g>
</svg>