<?xml version="1.0" encoding="UTF-8"?>
<svg id="_레이어_2" data-name="레이어 2" xmlns="http://www.w3.org/2000/svg" viewBox="0 0 82.38 100.36">
  <defs>
    <style>
      .cls-1 {
        fill: #231815;
      }

      .cls-2 {
        fill: #7cc8c7;
      }
    </style>
  </defs>
  <g id="_레이어_1-2" data-name="레이어 1">
    <g>
      <path class="cls-2" d="M77.89,22.66l-6.58-6.58h-8.94l-2.89,1.93-1.42-6.82-2.44-4.39-5.73-3.93-6.46-1.98-6.36,1.98-6.63,3.42-3.07,6.24v6.05l-4.47-2.51-10.96,3.54s-4.68,4.39-4.78,4.89-1.29,11.98-1.29,11.98l2.02,5.74,6.47,4.67,2.58-.31-3.48,6.26-.68,4.05,3.84,12.14,6.45,2.82,7.37,1.43,9.17-1.74,1.65-3.38h4.35l3.61,3.38s7.93,1.64,8.85,1.5c.93-.13,9.53-2.66,9.53-2.66l5.78-5.73,1.31-9.78-1.31-3.21-3.45-5.66,5.74-1.32,5.27-10.22v-4.22l-3.04-7.59ZM43.4,51.06c-5.61,0-10.16-4.55-10.16-10.16s4.55-10.16,10.16-10.16,10.16,4.55,10.16,10.16-4.55,10.16-10.16,10.16Z"/>
      <g>
        <path class="cls-1" d="M35.39,31.47c2.2-2.17,4.83-3.25,7.89-3.25s5.7,1.08,7.89,3.25c1.72,1.72,2.74,3.72,3.1,6.01h6.66c-.39-4.08-2.09-7.64-5.11-10.66-3.46-3.46-7.64-5.2-12.54-5.2s-9.08,1.73-12.54,5.2c-3.02,3.02-4.72,6.57-5.11,10.66h6.66c.35-2.29,1.38-4.29,3.1-6.01Z"/>
        <path class="cls-1" d="M35.39,48.89c2.2,2.17,4.83,3.25,7.89,3.25s5.7-1.08,7.89-3.25c1.72-1.72,2.74-3.72,3.1-6.01h6.66c-.39,4.08-2.09,7.64-5.11,10.66-3.46,3.46-7.64,5.2-12.54,5.2s-9.08-1.73-12.54-5.2c-3.02-3.02-4.72-6.57-5.11-10.66h6.66c.35,2.29,1.38,4.29,3.1,6.01Z"/>
        <path class="cls-1" d="M35.39,9.84c2.2-2.17,4.83-3.25,7.89-3.25s5.7,1.08,7.89,3.25c1.72,1.72,2.74,3.72,3.1,6.01h6.66c-.39-4.08-2.09-7.64-5.11-10.66-3.46-3.46-7.64-5.2-12.54-5.2s-9.08,1.73-12.54,5.2c-3.02,3.02-4.72,6.57-5.11,10.66h6.66c.35-2.29,1.38-4.29,3.1-6.01Z"/>
        <path class="cls-1" d="M9.76,94.35c2.2-2.17,4.83-3.25,7.89-3.25s5.7,1.08,7.89,3.25c1.72,1.72,2.74,3.72,3.1,6.01h6.66c-.39-4.08-2.09-7.64-5.11-10.66-3.46-3.46-7.64-5.2-12.54-5.2s-9.08,1.73-12.54,5.2c-3.02,3.02-4.72,6.57-5.11,10.66h6.66c.35-2.29,1.38-4.29,3.1-6.01Z"/>
        <path class="cls-1" d="M12.02,38.71c-1.38-2.76-1.6-5.6-.65-8.51s2.79-5.08,5.53-6.5c2.17-1.1,4.39-1.46,6.67-1.09l2.06-6.33c-4-.89-7.91-.37-11.71,1.57-4.36,2.22-7.3,5.66-8.82,10.32-1.51,4.66-1.16,9.17,1.07,13.53,1.94,3.81,4.79,6.52,8.56,8.15l2.06-6.33c-2.06-1.04-3.66-2.64-4.76-4.8Z"/>
        <path class="cls-1" d="M31.86,69.72c-3.05.46-5.82-.21-8.29-2.01s-3.97-4.22-4.48-7.27c-.38-2.4-.03-4.63,1.03-6.68l-5.39-3.91c-2.09,3.53-2.8,7.41-2.13,11.62.77,4.84,3.13,8.7,7.09,11.57,3.96,2.88,8.36,3.93,13.2,3.17,4.22-.67,7.68-2.54,10.4-5.62l-5.39-3.91c-1.63,1.64-3.64,2.66-6.04,3.04Z"/>
        <path class="cls-1" d="M74.54,38.71c1.38-2.76,1.6-5.6.65-8.51s-2.79-5.08-5.53-6.5c-2.17-1.1-4.39-1.46-6.67-1.09l-2.06-6.33c4-.89,7.91-.37,11.71,1.57,4.36,2.22,7.3,5.66,8.82,10.32,1.51,4.66,1.16,9.17-1.07,13.53-1.94,3.81-4.79,6.52-8.56,8.15l-2.06-6.33c2.06-1.04,3.66-2.64,4.76-4.8Z"/>
        <path class="cls-1" d="M54.7,69.72c3.05.46,5.82-.21,8.29-2.01s3.97-4.22,4.48-7.27c.38-2.4.03-4.63-1.03-6.68l5.39-3.91c2.09,3.53,2.8,7.41,2.13,11.62-.77,4.84-3.13,8.7-7.09,11.57s-8.36,3.93-13.2,3.17c-4.22-.67-7.68-2.54-10.4-5.62l5.39-3.91c1.63,1.64,3.64,2.66,6.04,3.04Z"/>
        <path class="cls-1" d="M72.62,94.35c-2.2-2.17-4.83-3.25-7.89-3.25s-5.7,1.08-7.89,3.25c-1.72,1.72-2.74,3.72-3.1,6.01h-6.66c.39-4.08,2.09-7.64,5.11-10.66,3.46-3.46,7.64-5.2,12.54-5.2s9.08,1.73,12.54,5.2c3.02,3.02,4.72,6.57,5.11,10.66h-6.66c-.35-2.29-1.38-4.29-3.1-6.01Z"/>
      </g>
    </g>
  </g>
</svg>