<?xml version="1.0" encoding="UTF-8"?>
<svg id="_레이어_2" data-name="레이어 2" xmlns="http://www.w3.org/2000/svg" viewBox="0 0 191.54 244.76">
  <defs>
    <style>
      .cls-1 {
        fill: #040000;
      }

      .cls-2 {
        fill: #7cc8c7;
      }
    </style>
  </defs>
  <g id="_레이어_1-2" data-name="레이어 1">
    <g>
      <path class="cls-2" d="M71.41,174.39l-21.65,9.95-35.49-22.52v-40.85l17.56-6.91-22.99-11.36L0,76.72l17.92-35.02,25.41-4.78,13.38,7.85,4.8-27.75,13.11-11.52L105.13,0s17.66,10.21,18.46,10.74c.8.52,13.11,28.8,12.04,29.07-1.07.26,14.98-1.31,14.98-1.31l24.08,6.27,15.25,16.25,1.61,24.35-17.12,24.88-11.49.59,16.36,9.66,5.15,13.7,1.77,19.18-22.98,26.24-28.28,1.44-15.32-2.74"/>
      <g>
        <path class="cls-1" d="M67.77,42.94c0-16.02,12.99-29,29-29,16.02,0,29,12.99,29,29,0,.1-.03.18-.03.28h6.79c0-19.75-16.01-35.77-35.77-35.77-19.75,0-35.77,16.01-35.77,35.77h6.79c0-.1-.03-.18-.03-.28Z"/>
        <path class="cls-1" d="M28.38,99.42c-13.87-8.01-18.63-25.75-10.62-39.62,8.01-13.87,25.75-18.63,39.62-10.62.08.05.15.12.23.16l3.4-5.88c-17.11-9.88-38.98-4.02-48.86,13.09-9.88,17.11-4.02,38.98,13.09,48.86l3.4-5.88c-.08-.05-.17-.07-.26-.12Z"/>
        <path class="cls-1" d="M28.38,111.81c-13.87,8.01-18.63,25.75-10.62,39.62,8.01,13.87,25.75,18.63,39.62,10.62.08-.05.15-.12.23-.16l3.4,5.88c-17.11,9.88-38.98,4.02-48.86-13.09-9.88-17.11-4.02-38.98,13.09-48.86l3.4,5.88c-.08.05-.17.07-.26.12Z"/>
        <rect class="cls-1" x="122.03" y="220.77" width="6.79" height="23.89" transform="translate(-99.55 93.89) rotate(-30)"/>
        <rect class="cls-1" x="94.95" y="220.77" width="6.79" height="23.89"/>
        <rect class="cls-1" x="74.99" y="106.01" width="6.79" height="104.94"/>
        <rect class="cls-1" x="111.77" y="106.01" width="6.79" height="104.94"/>
        <path class="cls-1" d="M165.17,99.62c13.87-8.01,18.63-25.75,10.62-39.62-8.01-13.87-25.75-18.63-39.62-10.62-.08.05-.15.12-.23.16l-3.4-5.88c17.11-9.88,38.98-4.02,48.86,13.09,9.88,17.11,4.02,38.98-13.09,48.86l-3.4-5.88c.08-.05.17-.07.26-.12Z"/>
        <path class="cls-1" d="M165.17,112.01c13.87,8.01,18.63,25.75,10.62,39.62-8.01,13.87-25.75,18.63-39.62,10.62-.08-.05-.15-.12-.23-.16l-3.4,5.88c17.11,9.88,38.98,4.02,48.86-13.09,9.88-17.11,4.02-38.98-13.09-48.86l-3.4,5.88c.08.05.17.07.26.12Z"/>
        <rect class="cls-1" x="67.87" y="220.77" width="6.79" height="23.89" transform="translate(16.63 469.89) rotate(-150)"/>
      </g>
    </g>
  </g>
</svg>