<?xml version="1.0" encoding="UTF-8"?>
<svg id="_레이어_2" data-name="레이어 2" xmlns="http://www.w3.org/2000/svg" width="20.21mm" height="29.73mm" viewBox="0 0 57.29 84.28">
  <g id="_컬러" data-name="컬러">
    <path d="M47.05,45.25h.03L25.32,1.22,3.56,45.25h.03c-1.57,3.21-2.48,6.81-2.48,10.62,0,13.37,10.84,24.21,24.21,24.21s24.21-10.84,24.21-24.21c0-3.82-.91-7.41-2.48-10.62Z" fill="#ef8db5"/>
  </g>
  <g id="_디자인" data-name="디자인">
    <g>
      <line x1="25.99" y1="1.22" x2="2.75" y2="48.05" fill="none" stroke="#231815" stroke-miterlimit="10" stroke-width="5.5"/>
      <path d="M2.75,55.64c0,14.3,11.59,25.9,25.9,25.9s25.9-11.59,25.9-25.9" fill="none" stroke="#231815" stroke-miterlimit="10" stroke-width="5.5"/>
      <line x1="30.84" y1="1.22" x2="54.09" y2="48.05" fill="none" stroke="#231815" stroke-miterlimit="10" stroke-width="5.5"/>
      <line x1="26.31" y1="32.37" x2="17.04" y2="51.05" fill="none" stroke="#231815" stroke-miterlimit="10" stroke-width="5.5"/>
      <path d="M16.71,55.65c0,6.59,5.34,11.94,11.94,11.94s11.94-5.34,11.94-11.94" fill="none" stroke="#231815" stroke-miterlimit="10" stroke-width="5.5"/>
      <line x1="30.98" y1="32.37" x2="40.25" y2="51.05" fill="none" stroke="#231815" stroke-miterlimit="10" stroke-width="5.5"/>
    </g>
  </g>
</svg>