<?xml version="1.0" encoding="UTF-8"?>
<svg id="_레이어_2" data-name="레이어 2" xmlns="http://www.w3.org/2000/svg" width="83.8mm" height="34.88mm" viewBox="0 0 237.54 98.86">
  <g id="_컬러" data-name="컬러">
    <rect y="61.91" width="237.54" height="36.95" fill="#eede4f"/>
  </g>
  <g id="_디자인" data-name="디자인">
    <g>
      <path d="M54.72,28.85v-12.43s0-2.12,0-2.12c0-6.38,5.17-11.56,11.56-11.56" fill="none" stroke="#231815" stroke-miterlimit="10" stroke-width="5.5"/>
      <path d="M54.72,44.08v-12.43s0-2.12,0-2.12c0-6.38,5.17-11.56,11.56-11.56" fill="none" stroke="#231815" stroke-miterlimit="10" stroke-width="5.5"/>
      <path d="M54.72,72.04v-25.16s0-2.12,0-2.12c0-6.38,5.17-11.56,11.56-11.56" fill="none" stroke="#231815" stroke-miterlimit="10" stroke-width="5.5"/>
      <path d="M85.55,28.85v-12.43s0-2.12,0-2.12c0-6.38,5.17-11.56,11.56-11.56" fill="none" stroke="#231815" stroke-miterlimit="10" stroke-width="5.5"/>
      <path d="M85.55,44.08v-12.43s0-2.12,0-2.12c0-6.38,5.17-11.56,11.56-11.56" fill="none" stroke="#231815" stroke-miterlimit="10" stroke-width="5.5"/>
      <path d="M85.55,72.04v-25.16s0-2.12,0-2.12c0-6.38,5.17-11.56,11.56-11.56" fill="none" stroke="#231815" stroke-miterlimit="10" stroke-width="5.5"/>
    </g>
    <line x1="4.73" y1="72.04" x2="119.83" y2="72.04" fill="none" stroke="#231815" stroke-miterlimit="10" stroke-width="5.5"/>
    <g>
      <path d="M165.37,47.78v-12.43s0-2.12,0-2.12c0-6.38,5.17-11.56,11.56-11.56" fill="none" stroke="#231815" stroke-miterlimit="10" stroke-width="5.5"/>
      <path d="M165.37,63.01v-12.43s0-2.12,0-2.12c0-6.38,5.17-11.56,11.56-11.56" fill="none" stroke="#231815" stroke-miterlimit="10" stroke-width="5.5"/>
      <path d="M165.37,90.97v-25.16s0-2.12,0-2.12c0-6.38,5.17-11.56,11.56-11.56" fill="none" stroke="#231815" stroke-miterlimit="10" stroke-width="5.5"/>
      <path d="M196.19,47.78v-12.43s0-2.12,0-2.12c0-6.38,5.17-11.56,11.56-11.56" fill="none" stroke="#231815" stroke-miterlimit="10" stroke-width="5.5"/>
      <path d="M196.19,63.01v-12.43s0-2.12,0-2.12c0-6.38,5.17-11.56,11.56-11.56" fill="none" stroke="#231815" stroke-miterlimit="10" stroke-width="5.5"/>
      <path d="M196.19,90.97v-25.16s0-2.12,0-2.12c0-6.38,5.17-11.56,11.56-11.56" fill="none" stroke="#231815" stroke-miterlimit="10" stroke-width="5.5"/>
    </g>
    <line x1="115.38" y1="90.97" x2="230.47" y2="90.97" fill="none" stroke="#231815" stroke-miterlimit="10" stroke-width="5.5"/>
  </g>
</svg>