<?xml version="1.0" encoding="UTF-8"?>
<svg id="_레이어_2" data-name="레이어 2" xmlns="http://www.w3.org/2000/svg" width="41.48mm" height="49.61mm" viewBox="0 0 117.59 140.62">
  <g id="_디자인" data-name="디자인">
    <g>
      <polygon points="68.39 7.73 58.31 6.25 50.78 10.82 49.83 24.13 61.4 31.26 72.56 21.04 72.56 8.69 68.39 7.73" fill="#eede4f"/>
      <polyline points="26.5 49.81 26.5 67.25 33.41 70.01 46.47 86.51 74.47 87.81 75.22 72.7 89.75 70.01 96.25 63.51 96.25 49.73 26.5 49.81" fill="#eede4f"/>
      <g>
        <line x1="28.81" y1="3.73" x2="88.78" y2="31.55" fill="none" stroke="#231815" stroke-miterlimit="10" stroke-width="5.5"/>
        <circle cx="58.8" cy="17.64" r="14.89" fill="none" stroke="#231815" stroke-miterlimit="10" stroke-width="5.5"/>
        <line x1="117.59" y1="47.73" y2="47.73" fill="none" stroke="#231815" stroke-miterlimit="10" stroke-width="5.5"/>
        <line x1="78.39" y1="85.81" x2="39.42" y2="85.81" fill="none" stroke="#231815" stroke-miterlimit="10" stroke-width="5.5"/>
        <line x1="39.31" y1="68.01" x2="23.69" y2="68.01" fill="none" stroke="#231815" stroke-miterlimit="10" stroke-width="5.5"/>
        <line x1="93.95" y1="68.01" x2="78.33" y2="68.01" fill="none" stroke="#231815" stroke-miterlimit="10" stroke-width="5.5"/>
        <line x1="20.92" y1="65.25" x2="20.92" y2="47.73" fill="none" stroke="#231815" stroke-miterlimit="10" stroke-width="5.5"/>
        <line x1="42.17" y1="70.89" x2="42.17" y2="88.42" fill="none" stroke="#231815" stroke-miterlimit="10" stroke-width="5.5"/>
        <line x1="75.64" y1="88.23" x2="75.64" y2="70.7" fill="none" stroke="#231815" stroke-miterlimit="10" stroke-width="5.5"/>
        <line x1="96.67" y1="65.25" x2="96.67" y2="47.73" fill="none" stroke="#231815" stroke-miterlimit="10" stroke-width="5.5"/>
        <line x1="58.91" y1="88.42" x2="58.91" y2="140.62" fill="none" stroke="#231815" stroke-miterlimit="10" stroke-width="5.5"/>
      </g>
    </g>
  </g>
</svg>