<?xml version="1.0" encoding="UTF-8"?>
<svg id="_레이어_2" data-name="레이어 2" xmlns="http://www.w3.org/2000/svg" viewBox="0 0 411.34 277.9">
  <g id="test">
    <g>
      <circle cx="247.62" cy="83.79" r="41.94" fill="#ee8cb4"/>
      <path d="M380.09,57h.02l-15.92-32.22-15.92,32.22h.02c-1.15,2.35-1.82,4.98-1.82,7.77,0,9.78,7.93,17.72,17.72,17.72s17.72-7.93,17.72-17.72c0-2.79-.66-5.42-1.81-7.77Z" fill="#ee8cb4"/>
      <path d="M327.58,207.49h.02l-15.92-32.22-15.92,32.22h.02c-1.15,2.35-1.82,4.98-1.82,7.77,0,9.78,7.93,17.72,17.72,17.72s17.72-7.93,17.72-17.72c0-2.79-.66-5.42-1.81-7.77Z" fill="#ee8cb4"/>
      <path d="M34.92,104.78h.02l-15.92-32.22L3.1,104.78h.02c-1.15,2.35-1.82,4.98-1.82,7.77,0,9.78,7.93,17.72,17.72,17.72s17.72-7.93,17.72-17.72c0-2.79-.66-5.42-1.81-7.77Z" fill="#ee8cb4"/>
      <g>
        <circle cx="241.61" cy="82.03" r="41.8" fill="none" stroke="#231815" stroke-miterlimit="10" stroke-width="4.02"/>
        <line x1="229.78" y1="122.12" x2="218.4" y2="161.01" fill="none" stroke="#231815" stroke-miterlimit="10" stroke-width="4.02"/>
        <line x1="258.13" y1="119.79" x2="274.41" y2="156.89" fill="none" stroke="#231815" stroke-miterlimit="10" stroke-width="4.02"/>
        <line x1="278.35" y1="99.78" x2="314.67" y2="117.73" fill="none" stroke="#231815" stroke-miterlimit="10" stroke-width="4.02"/>
        <line x1="280.98" y1="71.45" x2="320.34" y2="61.86" fill="none" stroke="#231815" stroke-miterlimit="10" stroke-width="4.02"/>
        <line x1="264.78" y1="48.06" x2="288.77" y2="15.42" fill="none" stroke="#231815" stroke-miterlimit="10" stroke-width="4.02"/>
        <line x1="237.34" y1="40.56" x2="234.73" y2=".13" fill="none" stroke="#231815" stroke-miterlimit="10" stroke-width="4.02"/>
        <line x1="211.49" y1="52.45" x2="183.51" y2="23.15" fill="none" stroke="#231815" stroke-miterlimit="10" stroke-width="4.02"/>
        <line x1="199.34" y1="78.17" x2="159.07" y2="73.72" fill="none" stroke="#231815" stroke-miterlimit="10" stroke-width="4.02"/>
        <line x1="206.56" y1="105.69" x2="172.85" y2="128.16" fill="none" stroke="#231815" stroke-miterlimit="10" stroke-width="4.02"/>
      </g>
      <g>
        <line x1="360.64" y1="24.78" x2="343.63" y2="59.05" fill="none" stroke="#231815" stroke-miterlimit="10" stroke-width="4.02"/>
        <path d="M343.63,64.6c0,10.47,8.48,18.95,18.95,18.95s18.95-8.48,18.95-18.95" fill="none" stroke="#231815" stroke-miterlimit="10" stroke-width="4.02"/>
        <line x1="364.19" y1="24.78" x2="381.2" y2="59.05" fill="none" stroke="#231815" stroke-miterlimit="10" stroke-width="4.02"/>
        <line x1="360.87" y1="47.57" x2="354.09" y2="61.24" fill="none" stroke="#231815" stroke-miterlimit="10" stroke-width="4.02"/>
        <path d="M353.85,64.61c0,4.82,3.91,8.73,8.73,8.73s8.73-3.91,8.73-8.73" fill="none" stroke="#231815" stroke-miterlimit="10" stroke-width="4.02"/>
        <line x1="364.29" y1="47.57" x2="371.07" y2="61.24" fill="none" stroke="#231815" stroke-miterlimit="10" stroke-width="4.02"/>
      </g>
      <g>
        <line x1="19.02" y1="73.61" x2="2.01" y2="107.88" fill="none" stroke="#231815" stroke-miterlimit="10" stroke-width="4.02"/>
        <path d="M2.01,113.43c0,10.47,8.48,18.95,18.95,18.95s18.95-8.48,18.95-18.95" fill="none" stroke="#231815" stroke-miterlimit="10" stroke-width="4.02"/>
        <line x1="22.57" y1="73.61" x2="39.58" y2="107.88" fill="none" stroke="#231815" stroke-miterlimit="10" stroke-width="4.02"/>
        <line x1="19.25" y1="96.4" x2="12.47" y2="110.07" fill="none" stroke="#231815" stroke-miterlimit="10" stroke-width="4.02"/>
        <path d="M12.23,113.43c0,4.82,3.91,8.73,8.73,8.73s8.73-3.91,8.73-8.73" fill="none" stroke="#231815" stroke-miterlimit="10" stroke-width="4.02"/>
        <line x1="22.67" y1="96.4" x2="29.46" y2="110.07" fill="none" stroke="#231815" stroke-miterlimit="10" stroke-width="4.02"/>
      </g>
      <g>
        <line x1="312.17" y1="175.27" x2="295.16" y2="209.53" fill="none" stroke="#231815" stroke-miterlimit="10" stroke-width="4.02"/>
        <path d="M295.16,215.09c0,10.47,8.48,18.95,18.95,18.95s18.95-8.48,18.95-18.95" fill="none" stroke="#231815" stroke-miterlimit="10" stroke-width="4.02"/>
        <line x1="315.72" y1="175.27" x2="332.73" y2="209.53" fill="none" stroke="#231815" stroke-miterlimit="10" stroke-width="4.02"/>
        <line x1="312.41" y1="198.06" x2="305.62" y2="211.73" fill="none" stroke="#231815" stroke-miterlimit="10" stroke-width="4.02"/>
        <path d="M305.38,215.09c0,4.82,3.91,8.73,8.73,8.73s8.73-3.91,8.73-8.73" fill="none" stroke="#231815" stroke-miterlimit="10" stroke-width="4.02"/>
        <line x1="315.82" y1="198.06" x2="322.61" y2="211.73" fill="none" stroke="#231815" stroke-miterlimit="10" stroke-width="4.02"/>
      </g>
      <g>
        <path d="M391.05,196.16h0l-6.86-13.87-6.86,13.87h0c-.5,1.01-.78,2.14-.78,3.35,0,4.21,3.42,7.63,7.63,7.63s7.63-3.42,7.63-7.63c0-1.2-.29-2.34-.78-3.35Z" fill="#ee8cb4"/>
        <g>
          <line x1="385.91" y1="206.81" x2="385.91" y2="220.68" fill="none" stroke="#231815" stroke-miterlimit="10" stroke-width="4.02"/>
          <line x1="374.19" y1="228.9" x2="374.19" y2="268.99" fill="none" stroke="#231815" stroke-miterlimit="10" stroke-width="4.02"/>
          <line x1="397.64" y1="228.9" x2="397.64" y2="268.99" fill="none" stroke="#231815" stroke-miterlimit="10" stroke-width="4.02"/>
          <line x1="395.76" y1="226.95" x2="376.11" y2="226.95" fill="none" stroke="#231815" stroke-miterlimit="10" stroke-width="4.02"/>
          <line x1="411.34" y1="275.88" x2="360.52" y2="275.88" fill="none" stroke="#231815" stroke-miterlimit="10" stroke-width="4.02"/>
          <line x1="384.2" y1="181.04" x2="377.42" y2="194.71" fill="none" stroke="#231815" stroke-miterlimit="10" stroke-width="4.02"/>
          <path d="M377.18,198.07c0,4.82,3.91,8.73,8.73,8.73s8.73-3.91,8.73-8.73" fill="none" stroke="#231815" stroke-miterlimit="10" stroke-width="4.02"/>
          <line x1="387.62" y1="181.04" x2="394.41" y2="194.71" fill="none" stroke="#231815" stroke-miterlimit="10" stroke-width="4.02"/>
        </g>
      </g>
      <g>
        <path d="M67.89,190.99h0l-6.86-13.87-6.86,13.87h0c-.5,1.01-.78,2.14-.78,3.35,0,4.21,3.42,7.63,7.63,7.63s7.63-3.42,7.63-7.63c0-1.2-.29-2.34-.78-3.35Z" fill="#ee8cb4"/>
        <g>
          <line x1="63.57" y1="202.89" x2="63.57" y2="216.76" fill="none" stroke="#231815" stroke-miterlimit="10" stroke-width="4.02"/>
          <line x1="51.84" y1="224.98" x2="51.84" y2="265.07" fill="none" stroke="#231815" stroke-miterlimit="10" stroke-width="4.02"/>
          <line x1="75.29" y1="224.98" x2="75.29" y2="265.07" fill="none" stroke="#231815" stroke-miterlimit="10" stroke-width="4.02"/>
          <line x1="73.41" y1="223.03" x2="53.76" y2="223.03" fill="none" stroke="#231815" stroke-miterlimit="10" stroke-width="4.02"/>
          <line x1="89" y1="271.96" x2="38.18" y2="271.96" fill="none" stroke="#231815" stroke-miterlimit="10" stroke-width="4.02"/>
          <line x1="61.86" y1="177.12" x2="55.08" y2="190.79" fill="none" stroke="#231815" stroke-miterlimit="10" stroke-width="4.02"/>
          <path d="M54.83,194.15c0,4.82,3.91,8.73,8.73,8.73s8.73-3.91,8.73-8.73" fill="none" stroke="#231815" stroke-miterlimit="10" stroke-width="4.02"/>
          <line x1="65.28" y1="177.12" x2="72.06" y2="190.79" fill="none" stroke="#231815" stroke-miterlimit="10" stroke-width="4.02"/>
        </g>
      </g>
      <g>
        <path d="M128.55,160.81h0l-6.86-13.87-6.86,13.87h0c-.5,1.01-.78,2.14-.78,3.35,0,4.21,3.42,7.63,7.63,7.63s7.63-3.42,7.63-7.63c0-1.2-.29-2.34-.78-3.35Z" fill="#ee8cb4"/>
        <g>
          <line x1="124.23" y1="172.71" x2="124.23" y2="186.58" fill="none" stroke="#231815" stroke-miterlimit="10" stroke-width="4.02"/>
          <line x1="112.5" y1="194.8" x2="112.5" y2="234.89" fill="none" stroke="#231815" stroke-miterlimit="10" stroke-width="4.02"/>
          <line x1="135.95" y1="194.8" x2="135.95" y2="234.89" fill="none" stroke="#231815" stroke-miterlimit="10" stroke-width="4.02"/>
          <line x1="134.07" y1="192.85" x2="114.42" y2="192.85" fill="none" stroke="#231815" stroke-miterlimit="10" stroke-width="4.02"/>
          <line x1="149.65" y1="241.78" x2="98.84" y2="241.78" fill="none" stroke="#231815" stroke-miterlimit="10" stroke-width="4.02"/>
          <line x1="122.52" y1="146.94" x2="115.73" y2="160.61" fill="none" stroke="#231815" stroke-miterlimit="10" stroke-width="4.02"/>
          <path d="M115.49,163.97c0,4.82,3.91,8.73,8.73,8.73s8.73-3.91,8.73-8.73" fill="none" stroke="#231815" stroke-miterlimit="10" stroke-width="4.02"/>
          <line x1="125.94" y1="146.94" x2="132.72" y2="160.61" fill="none" stroke="#231815" stroke-miterlimit="10" stroke-width="4.02"/>
        </g>
      </g>
      <g>
        <path d="M136.57,64.35c1.23-4.66-1.56-9.44-6.22-10.67-4.66-1.23-9.44,1.56-10.67,6.22" fill="none" stroke="#231815" stroke-miterlimit="10" stroke-width="4.02"/>
        <path d="M115.77,58.87c-1.23,4.66-6.01,7.45-10.67,6.22-4.66-1.23-7.45-6.01-6.22-10.67" fill="none" stroke="#231815" stroke-miterlimit="10" stroke-width="4.02"/>
        <path d="M131.33,84.22c1.23-4.66-1.56-9.44-6.22-10.67-4.66-1.23-9.44,1.56-10.67,6.22" fill="none" stroke="#231815" stroke-miterlimit="10" stroke-width="4.02"/>
        <path d="M110.54,78.74c-1.23,4.66-6.01,7.45-10.67,6.22-4.66-1.23-7.45-6.01-6.22-10.67" fill="none" stroke="#231815" stroke-miterlimit="10" stroke-width="4.02"/>
      </g>
      <g>
        <path d="M247,183.69c4.82-.17,8.87,3.59,9.04,8.41.17,4.82-3.59,8.87-8.41,9.04" fill="none" stroke="#231815" stroke-miterlimit="10" stroke-width="4.02"/>
        <path d="M247.77,205.18c-4.82.17-8.59,4.22-8.41,9.04s4.22,8.59,9.04,8.41" fill="none" stroke="#231815" stroke-miterlimit="10" stroke-width="4.02"/>
        <path d="M226.47,184.43c4.82-.17,8.87,3.59,9.04,8.41.17,4.82-3.59,8.87-8.41,9.04" fill="none" stroke="#231815" stroke-miterlimit="10" stroke-width="4.02"/>
        <path d="M227.24,205.92c-4.82.17-8.59,4.22-8.41,9.04s4.22,8.59,9.04,8.41" fill="none" stroke="#231815" stroke-miterlimit="10" stroke-width="4.02"/>
      </g>
      <g>
        <rect x="127.31" y="132.35" width="6.18" height="6.18" fill="#ee8cb4"/>
        <rect x="121.19" y="126.16" width="6.18" height="6.18" transform="translate(248.56 258.51) rotate(180)" fill="#ee8cb4"/>
        <rect x="115.06" y="132.35" width="6.18" height="6.18" fill="#ee8cb4"/>
      </g>
      <g>
        <rect x="67.39" y="162.97" width="6.18" height="6.18" fill="#ee8cb4"/>
        <rect x="61.27" y="156.79" width="6.18" height="6.18" transform="translate(128.71 319.77) rotate(180)" fill="#ee8cb4"/>
        <rect x="55.14" y="162.97" width="6.18" height="6.18" fill="#ee8cb4"/>
      </g>
      <g>
        <rect x="78.44" y="55.89" width="6.18" height="6.18" transform="translate(12.09 131.8) rotate(-82.24)" fill="#ee8cb4"/>
        <rect x="71.49" y="61.12" width="6.18" height="6.18" transform="translate(148.27 -1.02) rotate(97.76)" fill="#ee8cb4"/>
        <rect x="76.79" y="68.02" width="6.18" height="6.18" transform="translate(-1.37 140.66) rotate(-82.24)" fill="#ee8cb4"/>
      </g>
    </g>
  </g>
</svg>