<?xml version="1.0" encoding="UTF-8"?>
<svg id="_레이어_2" data-name="레이어 2" xmlns="http://www.w3.org/2000/svg" viewBox="0 0 132.18 132.18">
  <defs>
    <style>
      .cls-1 {
        fill: #ff0005;
      }

      .cls-2 {
        fill: #ff5ebb;
      }
    </style>
  </defs>
  <g id="_오행_아이콘" data-name="오행 아이콘">
    <g>
      <rect class="cls-2" x="120.16" y="72.1" width="12.02" height="12.02"/>
      <rect class="cls-1" x="120.16" y="24.04" width="12.02" height="12.01"/>
      <rect class="cls-1" x="120.16" width="12.02" height="12.02"/>
      <rect class="cls-2" x="108.15" y="96.13" width="12.01" height="12.02"/>
      <rect class="cls-2" x="108.15" y="84.12" width="12.01" height="12.01"/>
      <rect class="cls-1" x="108.15" y="72.1" width="12.01" height="12.02"/>
      <rect class="cls-2" x="108.15" y="60.09" width="12.01" height="12.01"/>
      <rect class="cls-1" x="108.15" y="48.07" width="12.01" height="12.02"/>
      <rect class="cls-2" x="108.15" y="12.02" width="12.01" height="12.02"/>
      <rect class="cls-2" x="96.13" y="108.15" width="12.02" height="12.02"/>
      <rect class="cls-1" x="96.13" y="96.13" width="12.02" height="12.02"/>
      <rect class="cls-2" x="96.13" y="48.07" width="12.02" height="12.02"/>
      <rect class="cls-1" x="96.13" y="36.05" width="12.02" height="12.02"/>
      <rect class="cls-1" x="96.13" width="12.02" height="12.02"/>
      <rect class="cls-1" x="84.11" y="120.17" width="12.02" height="12.01"/>
      <rect class="cls-1" x="84.11" y="108.15" width="12.02" height="12.02"/>
      <rect class="cls-1" x="84.11" y="84.12" width="12.02" height="12.01"/>
      <rect class="cls-1" x="84.11" y="72.1" width="12.02" height="12.02"/>
      <rect class="cls-2" x="84.11" y="36.05" width="12.02" height="12.02"/>
      <rect class="cls-1" x="84.11" y="24.04" width="12.02" height="12.01"/>
      <rect class="cls-2" x="72.1" y="120.17" width="12.01" height="12.01"/>
      <rect class="cls-2" x="72.1" y="96.13" width="12.01" height="12.02"/>
      <rect class="cls-2" x="72.1" y="60.09" width="12.01" height="12.01"/>
      <rect class="cls-2" x="72.1" y="48.07" width="12.01" height="12.02"/>
      <rect class="cls-2" x="72.1" y="24.04" width="12.01" height="12.01"/>
      <rect class="cls-1" x="72.1" y="12.02" width="12.01" height="12.02"/>
      <rect class="cls-1" x="60.08" y="120.17" width="12.02" height="12.01"/>
      <rect class="cls-2" x="60.08" y="96.13" width="12.02" height="12.02"/>
      <rect class="cls-1" x="60.08" y="72.1" width="12.02" height="12.02"/>
      <rect class="cls-2" x="60.08" y="36.05" width="12.02" height="12.02"/>
      <rect class="cls-1" x="60.08" width="12.02" height="12.02"/>
      <rect class="cls-2" x="48.06" y="120.17" width="12.02" height="12.01"/>
      <rect class="cls-2" x="48.06" y="96.13" width="12.02" height="12.02"/>
      <rect class="cls-2" x="48.06" y="48.07" width="12.02" height="12.02"/>
      <rect class="cls-2" x="48.06" y="24.04" width="12.02" height="12.01"/>
      <rect class="cls-1" x="48.06" y="12.02" width="12.02" height="12.02"/>
      <rect class="cls-1" x="36.05" y="120.17" width="12.01" height="12.01"/>
      <rect class="cls-1" x="36.05" y="108.15" width="12.01" height="12.02"/>
      <rect class="cls-1" x="36.05" y="84.12" width="12.01" height="12.01"/>
      <rect class="cls-1" x="36.05" y="72.1" width="12.01" height="12.02"/>
      <rect class="cls-2" x="36.05" y="60.09" width="12.01" height="12.01"/>
      <rect class="cls-2" x="36.05" y="36.05" width="12.01" height="12.02"/>
      <rect class="cls-1" x="36.05" y="24.04" width="12.01" height="12.01"/>
      <rect class="cls-2" x="24.03" y="108.15" width="12.02" height="12.02"/>
      <rect class="cls-1" x="24.03" y="96.13" width="12.02" height="12.02"/>
      <rect class="cls-2" x="24.03" y="48.07" width="12.02" height="12.02"/>
      <rect class="cls-1" x="24.03" y="36.05" width="12.02" height="12.02"/>
      <rect class="cls-1" x="24.03" width="12.02" height="12.02"/>
      <rect class="cls-2" x="12.01" y="96.13" width="12.02" height="12.02"/>
      <rect class="cls-2" x="12.01" y="84.12" width="12.02" height="12.01"/>
      <rect class="cls-1" x="12.01" y="72.1" width="12.02" height="12.02"/>
      <rect class="cls-2" x="12.01" y="60.09" width="12.02" height="12.01"/>
      <rect class="cls-1" x="12.01" y="48.07" width="12.02" height="12.02"/>
      <rect class="cls-2" x="12.01" y="12.02" width="12.02" height="12.02"/>
      <rect class="cls-2" y="72.1" width="12.01" height="12.02"/>
      <rect class="cls-1" y="24.04" width="12.01" height="12.01"/>
      <rect class="cls-1" width="12.01" height="12.02"/>
    </g>
  </g>
</svg>