<?xml version="1.0" encoding="UTF-8"?>
<svg id="_레이어_2" data-name="레이어 2" xmlns="http://www.w3.org/2000/svg" viewBox="0 0 108.63 155.76">
  <g id="_레이어_1-2" data-name="레이어 1">
    <g>
      <path d="M70.19,6.74c-4.5-4.5-9.92-6.74-16.28-6.74s-11.72,2.25-16.21,6.74c-4.5,4.5-6.74,9.92-6.74,16.28s2.25,11.72,6.74,16.21c4.5,4.5,9.9,6.74,16.21,6.74s11.78-2.25,16.28-6.74c4.5-4.5,6.74-9.9,6.74-16.21s-2.25-11.78-6.74-16.28ZM64.09,33.2c-2.81,2.81-6.21,4.22-10.18,4.22s-7.37-1.4-10.18-4.22c-2.81-2.81-4.22-6.2-4.22-10.18s1.41-7.39,4.22-10.25c2.81-2.81,6.2-4.22,10.18-4.22s7.37,1.41,10.18,4.22c2.85,2.85,4.28,6.27,4.28,10.25s-1.43,7.37-4.28,10.18Z"/>
      <path d="M45.19,132.96l-.16-23.02,8.56-.06.16,23.02c.03,3.98,1.46,7.36,4.29,10.15,2.87,2.79,6.3,4.17,10.27,4.15l.06,8.56c-6.35.04-11.8-2.17-16.32-6.63-4.53-4.47-6.81-9.85-6.86-16.17Z"/>
      <path d="M73.97,132.96l-.16-23.02,8.56-.06.16,23.02c.03,3.98,1.46,7.36,4.29,10.15,2.87,2.79,6.3,4.17,10.27,4.15l.06,8.56c-6.35.04-11.8-2.17-16.32-6.63-4.53-4.47-6.81-9.85-6.86-16.17Z"/>
      <path d="M33.69,79.32l-.16-23.02,8.56-.06.16,23.02c.03,3.98,1.46,7.36,4.29,10.15,2.87,2.79,6.3,4.17,10.27,4.15l.06,8.56c-6.35.04-11.8-2.17-16.32-6.63-4.53-4.47-6.81-9.85-6.86-16.17Z"/>
      <path d="M108.63,31.58l-.07-23.02-8.56.03.07,23.02c.01,3.98-1.38,7.38-4.18,10.2-2.84,2.82-6.25,4.24-10.23,4.25l.03,8.56c6.36-.02,11.77-2.29,16.26-6.8,4.48-4.51,6.71-9.92,6.69-16.24Z"/>
      <path d="M8.56,32.31l.16-23.02-8.56-.06L0,32.25c-.04,6.31,2.17,11.73,6.63,16.26,4.47,4.53,9.88,6.81,16.23,6.86l.06-8.56c-3.98-.03-7.38-1.45-10.22-4.29-2.79-2.83-4.17-6.23-4.15-10.21Z"/>
      <path d="M79.7,79.32l.16-23.02-8.56-.06-.16,23.02c-.03,3.98-1.46,7.36-4.29,10.15-2.87,2.79-6.3,4.17-10.27,4.15l-.06,8.56c6.35.04,11.8-2.17,16.32-6.63,4.53-4.47,6.81-9.85,6.86-16.17Z"/>
    </g>
  </g>
</svg>