<?xml version="1.0" encoding="UTF-8"?>
<svg id="_레이어_2" data-name="레이어 2" xmlns="http://www.w3.org/2000/svg" width="188.52" height="70.36" viewBox="0 0 188.52 70.36">
  <g id="_레이어_1-2" data-name="레이어 1">
    <g>
      <g>
        <path d="M60.3,18.64c-4.51-4.51-9.95-6.77-16.33-6.77s-11.75,2.26-16.26,6.77c-4.51,4.51-6.77,9.95-6.77,16.33s2.26,11.75,6.77,16.26c4.51,4.51,9.93,6.77,16.26,6.77s11.82-2.25,16.33-6.77c4.51-4.51,6.77-9.93,6.77-16.26s-2.26-11.82-6.77-16.33ZM54.19,45.18c-2.82,2.82-6.22,4.23-10.21,4.23s-7.4-1.41-10.21-4.23c-2.82-2.82-4.23-6.22-4.23-10.21s1.41-7.42,4.23-10.28c2.82-2.82,6.22-4.23,10.21-4.23s7.39,1.41,10.21,4.23c2.86,2.86,4.29,6.29,4.29,10.28s-1.43,7.4-4.29,10.21Z"/>
        <path d="M121.86,37.46V14.36h-8.59v23.1c0,3.99-1.41,7.4-4.23,10.21-2.86,2.82-6.29,4.23-10.28,4.23v8.59c6.38,0,11.82-2.25,16.33-6.77,4.51-4.51,6.77-9.93,6.77-16.26Z"/>
        <path d="M84.26,37.46V14.36h-8.59v23.1c0,6.33,2.26,11.75,6.77,16.26,4.51,4.51,9.95,6.77,16.33,6.77v-8.59c-3.99,0-7.42-1.41-10.28-4.23-2.82-2.82-4.23-6.22-4.23-10.21Z"/>
        <path d="M164.33,34.9v23.1h-8.59v-23.1c0-3.99-1.41-7.4-4.23-10.21-2.86-2.82-6.29-4.23-10.28-4.23v-8.59c6.38,0,11.82,2.25,16.33,6.77,4.51,4.51,6.77,9.93,6.77,16.26Z"/>
      </g>
      <rect x="1.5" y="1.5" width="185.52" height="67.36" rx="33.68" ry="33.68" fill="none" stroke="#000" stroke-miterlimit="10" stroke-width="3"/>
    </g>
  </g>
</svg>