<?xml version="1.0" encoding="UTF-8"?>
<svg id="_레이어_2" data-name="레이어 2" xmlns="http://www.w3.org/2000/svg" width="178.05" height="85.07" viewBox="0 0 178.05 85.07">
  <g id="main">
    <g>
      <g>
        <path d="M53.07,24.51c-4.69-4.69-10.35-7.03-16.98-7.03s-12.22,2.35-16.91,7.03c-4.69,4.69-7.03,10.35-7.03,16.98s2.34,12.22,7.03,16.91c4.69,4.69,10.32,7.03,16.91,7.03s12.29-2.34,16.98-7.03c4.69-4.69,7.03-10.32,7.03-16.91s-2.34-12.29-7.03-16.98ZM46.72,52.11c-2.93,2.93-6.47,4.4-10.62,4.4s-7.69-1.46-10.62-4.4c-2.93-2.93-4.4-6.47-4.4-10.62s1.47-7.71,4.4-10.69c2.93-2.93,6.47-4.4,10.62-4.4s7.69,1.47,10.62,4.4c2.98,2.98,4.46,6.54,4.46,10.69s-1.49,7.69-4.46,10.62Z"/>
        <path d="M117.07,44.08v-24.01h-8.93v24.01c0,4.15-1.47,7.69-4.4,10.62-2.98,2.93-6.54,4.4-10.69,4.4v8.93c6.63,0,12.29-2.34,16.98-7.03,4.69-4.69,7.03-10.32,7.03-16.91Z"/>
        <path d="M77.98,44.08v-24.01h-8.93v24.01c0,6.58,2.34,12.22,7.03,16.91,4.69,4.69,10.35,7.03,16.98,7.03v-8.93c-4.15,0-7.71-1.46-10.69-4.4-2.93-2.93-4.4-6.47-4.4-10.62Z"/>
        <path d="M161.22,41.42v24.01h-8.93v-24.01c0-4.15-1.47-7.69-4.4-10.62-2.98-2.93-6.54-4.4-10.69-4.4v-8.93c6.63,0,12.29,2.34,16.98,7.03,4.69,4.69,7.03,10.32,7.03,16.91Z"/>
      </g>
      <rect x="19.12" width="139.89" height="6.41"/>
      <rect x="19.12" y="78.66" width="139.89" height="6.41"/>
      <g>
        <rect x="12.75" y="6.27" width="6.41" height="6.41"/>
        <rect x="6.38" y="12.66" width="6.41" height="6.41"/>
        <rect y="19.02" width="6.41" height="6.41"/>
        <rect x="0" y="59.5" width="6.41" height="6.41" transform="translate(6.41 125.4) rotate(-180)"/>
        <rect x="6.38" y="65.89" width="6.41" height="6.41" transform="translate(19.16 138.19) rotate(-180)"/>
        <rect x="12.75" y="72.25" width="6.41" height="6.41" transform="translate(31.9 150.9) rotate(-180)"/>
        <rect y="25.43" width="6.42" height="34.11"/>
      </g>
      <g>
        <rect x="158.89" y="6.27" width="6.41" height="6.41" transform="translate(324.19 18.95) rotate(-180)"/>
        <rect x="165.26" y="12.66" width="6.41" height="6.41" transform="translate(336.93 31.72) rotate(-180)"/>
        <rect x="171.64" y="19.02" width="6.41" height="6.41" transform="translate(349.69 44.45) rotate(-180)"/>
        <rect x="171.64" y="59.5" width="6.41" height="6.41"/>
        <rect x="165.26" y="65.89" width="6.41" height="6.41"/>
        <rect x="158.89" y="72.25" width="6.41" height="6.41"/>
        <rect x="171.63" y="25.43" width="6.42" height="34.11" transform="translate(349.68 84.97) rotate(-180)"/>
      </g>
    </g>
  </g>
</svg>