<?xml version="1.0" encoding="UTF-8"?>
<svg id="_레이어_2" data-name="레이어 2" xmlns="http://www.w3.org/2000/svg" width="303" height="142.47" viewBox="0 0 303 142.47">
  <g id="_레이어_1-2" data-name="레이어 1">
    <g>
      <g>
        <path d="M29.18,62.54h11v1.83h-7.33v5.5h7.33v1.83h-7.33v7.33h-3.67v-16.49Z"/>
        <path d="M41.93,62.54h3.67v3.67h-3.67v-3.67ZM41.93,68.04h3.67v11h-3.67v-11Z"/>
        <path d="M47.8,66.21h9.16v1.83h1.83v11h-3.67v-11h-1.83v1.83h-1.83v9.16h-3.67v-12.83Z"/>
        <path d="M60.76,69.87h1.83v-1.83h1.83v-1.83h3.67v-3.67h3.67v16.49h-7.33v-1.83h-1.83v-1.83h-1.83v-5.5ZM66.26,75.37v1.83h1.83v-9.16h-1.83v1.83h-1.83v5.5h1.83Z"/>
        <path d="M80.93,80.87h3.67v-5.5h-1.83v-3.67h-1.83v-5.5h3.67v5.5h3.67v-5.5h3.67v5.5h-1.83v3.67h-1.83v5.5h-1.83v1.83h-5.5v-1.83Z"/>
        <path d="M93.68,69.87h1.83v-1.83h1.83v-1.83h5.5v1.83h1.83v1.83h1.83v5.5h-1.83v1.83h-1.83v1.83h-5.5v-1.83h-1.83v-1.83h-1.83v-5.5ZM99.18,75.37v1.83h1.83v-1.83h1.83v-5.5h-1.83v-1.83h-1.83v1.83h-1.83v5.5h1.83Z"/>
        <path d="M108.48,66.21h3.67v11h1.83v-1.83h1.83v-9.16h3.67v12.83h-9.16v-1.83h-1.83v-11Z"/>
        <path d="M121.73,66.21h3.67v1.83h1.83v1.83h-1.83v9.16h-3.67v-12.83ZM127.23,66.21h3.67v1.83h-3.67v-1.83Z"/>
        <path d="M140.06,66.21h12.83v1.83h1.83v11h-3.67v-9.16h-1.83v9.16h-3.67v-9.16h-1.83v9.16h-3.67v-12.83Z"/>
        <path d="M156.98,62.54h3.67v3.67h-3.67v-3.67ZM156.98,68.04h3.67v11h-3.67v-11Z"/>
        <path d="M162.74,75.37h3.67v1.83h3.67v-3.67h-5.5v-1.83h-1.83v-3.67h1.83v-1.83h7.33v1.83h1.83v1.83h-3.67v-1.83h-3.67v3.67h5.5v1.83h1.83v3.67h-1.83v1.83h-7.33v-1.83h-1.83v-1.83Z"/>
        <path d="M175.7,75.37h3.67v1.83h3.67v-3.67h-5.5v-1.83h-1.83v-3.67h1.83v-1.83h7.33v1.83h1.83v1.83h-3.67v-1.83h-3.67v3.67h5.5v1.83h1.83v3.67h-1.83v1.83h-7.33v-1.83h-1.83v-1.83Z"/>
        <path d="M188.85,62.54h3.67v3.67h-3.67v-3.67ZM188.85,68.04h3.67v11h-3.67v-11Z"/>
        <path d="M194.72,66.21h9.16v1.83h1.83v11h-3.67v-11h-1.83v1.83h-1.83v9.16h-3.67v-12.83Z"/>
        <path d="M207.88,79.04h3.67v1.83h3.67v-3.67h-5.5v-1.83h-1.83v-7.33h1.83v-1.83h9.16v14.66h-1.83v1.83h-7.33v-1.83h-1.83v-1.83ZM215.21,75.37v-7.33h-3.67v7.33h3.67Z"/>
        <path d="M228.04,66.21h1.83v-1.83h1.83v-1.83h7.33v1.83h1.83v1.83h1.83v9.16h-1.83v1.83h-1.83v1.83h-7.33v-1.83h-1.83v-1.83h-1.83v-9.16ZM233.54,75.37v1.83h3.67v-1.83h1.83v-9.16h-1.83v-1.83h-3.67v1.83h-1.83v9.16h1.83Z"/>
        <path d="M244.53,62.54h3.67v12.83h1.83v1.83h1.83v-1.83h1.83v-12.83h3.67v12.83h-1.83v1.83h-1.83v1.83h-5.5v-1.83h-1.83v-1.83h-1.83v-12.83Z"/>
        <path d="M259.29,62.54h5.5v3.67h1.83v3.67h1.83v-7.33h3.67v16.49h-3.67v-3.67h-1.83v-3.67h-1.83v-1.83h-1.83v9.16h-3.67v-16.49Z"/>
      </g>
      <g>
        <rect x="19.1" y="19.37" width="264.8" height="103.74" fill="none" stroke="#000" stroke-miterlimit="10" stroke-width="3"/>
        <rect x="1.5" y="1.5" width="300" height="139.47" fill="none" stroke="#000" stroke-miterlimit="10" stroke-width="3"/>
      </g>
    </g>
  </g>
</svg>