<?xml version="1.0" encoding="UTF-8"?>
<svg id="_레이어_2" data-name="레이어 2" xmlns="http://www.w3.org/2000/svg" viewBox="0 0 455.51 282.53">
  <g id="test">
    <g>
      <circle cx="147.29" cy="219.72" r="19.86" fill="#dbe0e7"/>
      <circle cx="357.7" cy="23.46" r="19.86" fill="#dbe0e7"/>
      <circle cx="435.65" cy="257.07" r="19.86" fill="#dbe0e7"/>
      <circle cx="77.62" cy="113.86" r="38.48" fill="#dbe0e7"/>
      <path d="M295.6,99.62c-1.6.41-3.13.94-4.62,1.54l-86.68,22.98c-.7.15-1.4.31-2.1.51-.46.13-.9.27-1.35.41l-.07.02h0c-17.84,5.74-28.14,24.58-23.1,42.81l23.76-6.56v.02s73.67-19.64,73.67-19.64l63.89-16.54c-4.93-19.04-24.36-30.47-43.4-25.54Z" fill="#dbe0e7"/>
      <rect x="175.74" y="173.81" width="170.31" height="53.11" fill="#dbe0e7"/>
      <g>
        <circle cx="70.91" cy="113.86" r="38.48" fill="none" stroke="#231815" stroke-miterlimit="10" stroke-width="4.32"/>
        <line x1="13.33" y1="113.86" x2="128.48" y2="113.86" fill="none" stroke="#231815" stroke-miterlimit="10" stroke-width="4.32"/>
        <line x1="70.91" y1="56.28" x2="70.91" y2="171.43" fill="none" stroke="#231815" stroke-miterlimit="10" stroke-width="4.32"/>
        <line x1="42.56" y1="87.81" x2="96.96" y2="142.2" fill="none" stroke="#231815" stroke-miterlimit="10" stroke-width="4.32"/>
        <line x1="96.96" y1="87.81" x2="42.56" y2="142.2" fill="none" stroke="#231815" stroke-miterlimit="10" stroke-width="4.32"/>
      </g>
      <g>
        <circle cx="361.34" cy="23.05" r="20.9" fill="none" stroke="#231815" stroke-miterlimit="10" stroke-width="4.32"/>
        <line x1="352.67" y1="16.96" x2="352.67" y2="29.97" fill="none" stroke="#231815" stroke-miterlimit="10" stroke-width="4.32"/>
        <line x1="370.01" y1="16.96" x2="370.01" y2="29.97" fill="none" stroke="#231815" stroke-miterlimit="10" stroke-width="4.32"/>
        <line x1="354.84" y1="14.8" x2="367.85" y2="14.8" fill="none" stroke="#231815" stroke-miterlimit="10" stroke-width="4.32"/>
        <line x1="354.84" y1="32.05" x2="367.85" y2="32.05" fill="none" stroke="#231815" stroke-miterlimit="10" stroke-width="4.32"/>
      </g>
      <g>
        <circle cx="431.11" cy="252.98" r="20.9" fill="none" stroke="#231815" stroke-miterlimit="10" stroke-width="4.32"/>
        <line x1="422.44" y1="246.88" x2="422.44" y2="259.9" fill="none" stroke="#231815" stroke-miterlimit="10" stroke-width="4.32"/>
        <line x1="439.78" y1="246.88" x2="439.78" y2="259.9" fill="none" stroke="#231815" stroke-miterlimit="10" stroke-width="4.32"/>
        <line x1="424.6" y1="244.73" x2="437.62" y2="244.73" fill="none" stroke="#231815" stroke-miterlimit="10" stroke-width="4.32"/>
        <line x1="424.6" y1="261.98" x2="437.62" y2="261.98" fill="none" stroke="#231815" stroke-miterlimit="10" stroke-width="4.32"/>
      </g>
      <g>
        <circle cx="141.38" cy="219.31" r="20.9" fill="none" stroke="#231815" stroke-miterlimit="10" stroke-width="4.32"/>
        <line x1="132.71" y1="213.21" x2="132.71" y2="226.23" fill="none" stroke="#231815" stroke-miterlimit="10" stroke-width="4.32"/>
        <line x1="150.05" y1="213.21" x2="150.05" y2="226.23" fill="none" stroke="#231815" stroke-miterlimit="10" stroke-width="4.32"/>
        <line x1="134.88" y1="211.06" x2="147.9" y2="211.06" fill="none" stroke="#231815" stroke-miterlimit="10" stroke-width="4.32"/>
        <line x1="134.88" y1="228.31" x2="147.9" y2="228.31" fill="none" stroke="#231815" stroke-miterlimit="10" stroke-width="4.32"/>
      </g>
      <g>
        <line x1="355.68" y1="245.93" x2="320.61" y2="281" fill="none" stroke="#231815" stroke-miterlimit="10" stroke-width="4.32"/>
        <line x1="322.36" y1="265.93" x2="335.68" y2="279.25" fill="none" stroke="#231815" stroke-miterlimit="10" stroke-width="4.32"/>
        <line x1="338.14" y1="245.93" x2="373.22" y2="281" fill="none" stroke="#231815" stroke-miterlimit="10" stroke-width="4.32"/>
        <line x1="371.46" y1="265.93" x2="358.15" y2="279.25" fill="none" stroke="#231815" stroke-miterlimit="10" stroke-width="4.32"/>
      </g>
      <g>
        <line x1="376.74" y1="170.13" x2="411.81" y2="205.2" fill="none" stroke="#231815" stroke-miterlimit="10" stroke-width="4.32"/>
        <line x1="396.74" y1="203.44" x2="410.05" y2="190.13" fill="none" stroke="#231815" stroke-miterlimit="10" stroke-width="4.32"/>
        <line x1="376.74" y1="187.67" x2="411.81" y2="152.59" fill="none" stroke="#231815" stroke-miterlimit="10" stroke-width="4.32"/>
        <line x1="396.74" y1="154.35" x2="410.05" y2="167.66" fill="none" stroke="#231815" stroke-miterlimit="10" stroke-width="4.32"/>
      </g>
      <g>
        <line x1="36.6" y1="209.71" x2="1.53" y2="244.79" fill="none" stroke="#231815" stroke-miterlimit="10" stroke-width="4.32"/>
        <line x1="3.28" y1="229.72" x2="16.6" y2="243.03" fill="none" stroke="#231815" stroke-miterlimit="10" stroke-width="4.32"/>
        <line x1="19.06" y1="209.71" x2="54.14" y2="244.79" fill="none" stroke="#231815" stroke-miterlimit="10" stroke-width="4.32"/>
        <line x1="52.38" y1="229.72" x2="39.07" y2="243.03" fill="none" stroke="#231815" stroke-miterlimit="10" stroke-width="4.32"/>
      </g>
      <g>
        <line x1="211" y1="122.01" x2="299.88" y2="99.19" fill="none" stroke="#231815" stroke-miterlimit="10" stroke-width="4.32"/>
        <line x1="183.54" y1="166.31" x2="345.89" y2="124.63" fill="none" stroke="#231815" stroke-miterlimit="10" stroke-width="4.32"/>
        <path d="M183.47,168.55c-5.25-20.45,7.07-41.29,27.53-46.54,20.45-5.25,41.29,7.07,46.54,27.53" fill="none" stroke="#231815" stroke-miterlimit="10" stroke-width="4.32"/>
        <path d="M299.88,99.19c20.45-5.25,41.29,7.07,46.54,27.53" fill="none" stroke="#231815" stroke-miterlimit="10" stroke-width="4.32"/>
        <line x1="183.54" y1="172.52" x2="183.54" y2="221.14" fill="none" stroke="#231815" stroke-miterlimit="10" stroke-width="4.32"/>
        <line x1="260.9" y1="172.52" x2="260.9" y2="221.14" fill="none" stroke="#231815" stroke-miterlimit="10" stroke-width="4.32"/>
        <line x1="353.26" y1="172.52" x2="353.26" y2="221.14" fill="none" stroke="#231815" stroke-miterlimit="10" stroke-width="4.32"/>
        <line x1="185.72" y1="170.41" x2="351.13" y2="170.41" fill="none" stroke="#231815" stroke-miterlimit="10" stroke-width="4.32"/>
        <line x1="185.72" y1="223.28" x2="351.13" y2="223.28" fill="none" stroke="#231815" stroke-miterlimit="10" stroke-width="4.32"/>
        <path d="M262.95,162.61c0-4.98,4.03-9.01,9.01-9.01s9.01,4.03,9.01,9.01" fill="none" stroke="#231815" stroke-miterlimit="10" stroke-width="4.32"/>
        <path d="M285.28,162.61c0-4.98,4.03-9.01,9.01-9.01s9.01,4.03,9.01,9.01" fill="none" stroke="#231815" stroke-miterlimit="10" stroke-width="4.32"/>
        <path d="M307.55,162.61c0-4.98,4.03-9.01,9.01-9.01s9.01,4.03,9.01,9.01" fill="none" stroke="#231815" stroke-miterlimit="10" stroke-width="4.32"/>
        <path d="M329.87,162.61c0-4.98,4.03-9.01,9.01-9.01s9.01,4.03,9.01,9.01" fill="none" stroke="#231815" stroke-miterlimit="10" stroke-width="4.32"/>
      </g>
      <g>
        <path d="M25.77,134.36c.12,46.4,45.2,146.27,182.82,113.69" fill="none" stroke="#040000" stroke-dasharray="7.85" stroke-miterlimit="10" stroke-width="3.92"/>
        <g>
          <rect x="208.44" y="242.25" width="4.46" height="18.87" transform="translate(284.03 571.6) rotate(-152.99)" fill="#040000"/>
          <rect x="203.36" y="233.73" width="4.46" height="14.55" transform="translate(513.68 167.31) rotate(117.01)" fill="#040000"/>
        </g>
      </g>
      <g>
        <rect x="306.24" y="255.64" width="6.63" height="6.63" fill="#dbe0e7"/>
        <rect x="299.67" y="249" width="6.63" height="6.63" transform="translate(605.97 504.64) rotate(-180)" fill="#dbe0e7"/>
        <rect x="293.1" y="255.64" width="6.63" height="6.63" fill="#dbe0e7"/>
      </g>
      <g>
        <rect x="149.07" y="92.62" width="6.63" height="6.63" transform="translate(56.44 248.32) rotate(-90)" fill="#dbe0e7"/>
        <rect x="142.44" y="99.19" width="6.63" height="6.63" transform="translate(248.26 -43.25) rotate(90)" fill="#dbe0e7"/>
        <rect x="149.07" y="105.76" width="6.63" height="6.63" transform="translate(43.31 261.46) rotate(-90)" fill="#dbe0e7"/>
      </g>
      <g>
        <rect x="30.91" y="250.37" width="6.63" height="6.63" fill="#dbe0e7"/>
        <rect x="24.34" y="243.74" width="6.63" height="6.63" transform="translate(55.31 494.1) rotate(-180)" fill="#dbe0e7"/>
        <rect x="17.77" y="250.37" width="6.63" height="6.63" fill="#dbe0e7"/>
      </g>
    </g>
  </g>
</svg>