<?xml version="1.0" encoding="UTF-8"?>
<svg id="_레이어_2" data-name="레이어 2" xmlns="http://www.w3.org/2000/svg" viewBox="0 0 132.31 132.3">
  <defs>
    <style>
      .cls-1 {
        fill: #e5e5e5;
      }

      .cls-2 {
        fill: #e9c556;
      }
    </style>
  </defs>
  <g id="_오행_아이콘" data-name="오행 아이콘">
    <g>
      <rect class="cls-1" x="120.28" y="120.28" width="12.03" height="12.02"/>
      <rect class="cls-1" x="120.28" y="96.22" width="12.03" height="12.03"/>
      <rect class="cls-1" x="120.28" y="24.05" width="12.03" height="12.03"/>
      <rect class="cls-1" x="120.28" width="12.03" height="12.02"/>
      <rect class="cls-2" x="108.25" y="108.25" width="12.03" height="12.03"/>
      <rect class="cls-1" x="108.25" y="84.19" width="12.03" height="12.03"/>
      <rect class="cls-2" x="108.25" y="60.14" width="12.03" height="12.02"/>
      <rect class="cls-1" x="108.25" y="36.08" width="12.03" height="12.03"/>
      <rect class="cls-2" x="108.25" y="12.02" width="12.03" height="12.03"/>
      <rect class="cls-1" x="96.22" y="120.28" width="12.03" height="12.02"/>
      <rect class="cls-2" x="96.22" y="96.22" width="12.03" height="12.03"/>
      <rect class="cls-1" x="96.22" y="60.14" width="12.03" height="12.02"/>
      <rect class="cls-2" x="96.22" y="24.05" width="12.03" height="12.03"/>
      <rect class="cls-1" x="96.22" width="12.03" height="12.02"/>
      <rect class="cls-1" x="84.19" y="108.25" width="12.03" height="12.03"/>
      <rect class="cls-1" x="84.19" y="84.19" width="12.03" height="12.03"/>
      <rect class="cls-2" x="84.19" y="72.16" width="12.03" height="12.03"/>
      <rect class="cls-2" x="84.19" y="48.11" width="12.03" height="12.03"/>
      <rect class="cls-1" x="84.19" y="36.08" width="12.03" height="12.03"/>
      <rect class="cls-1" x="84.19" y="12.02" width="12.03" height="12.03"/>
      <rect class="cls-2" x="72.17" y="84.19" width="12.02" height="12.03"/>
      <rect class="cls-2" x="72.17" y="36.08" width="12.02" height="12.03"/>
      <rect class="cls-2" x="60.14" y="108.25" width="12.03" height="12.03"/>
      <rect class="cls-1" x="60.14" y="96.22" width="12.03" height="12.03"/>
      <rect class="cls-2" x="60.14" y="60.14" width="12.03" height="12.02"/>
      <rect class="cls-1" x="60.14" y="24.05" width="12.03" height="12.03"/>
      <rect class="cls-2" x="60.14" y="12.02" width="12.03" height="12.03"/>
      <rect class="cls-2" x="48.11" y="84.19" width="12.03" height="12.03"/>
      <rect class="cls-2" x="48.11" y="36.08" width="12.03" height="12.03"/>
      <rect class="cls-1" x="36.08" y="108.25" width="12.03" height="12.03"/>
      <rect class="cls-1" x="36.08" y="84.19" width="12.03" height="12.03"/>
      <rect class="cls-2" x="36.08" y="72.16" width="12.03" height="12.03"/>
      <rect class="cls-2" x="36.08" y="48.11" width="12.03" height="12.03"/>
      <rect class="cls-1" x="36.08" y="36.08" width="12.03" height="12.03"/>
      <rect class="cls-1" x="36.08" y="12.02" width="12.03" height="12.03"/>
      <rect class="cls-1" x="24.05" y="120.28" width="12.03" height="12.02"/>
      <rect class="cls-2" x="24.05" y="96.22" width="12.03" height="12.03"/>
      <rect class="cls-1" x="24.05" y="60.14" width="12.03" height="12.02"/>
      <rect class="cls-2" x="24.05" y="24.05" width="12.03" height="12.03"/>
      <rect class="cls-1" x="24.05" width="12.03" height="12.02"/>
      <rect class="cls-2" x="12.03" y="108.25" width="12.02" height="12.03"/>
      <rect class="cls-1" x="12.03" y="84.19" width="12.02" height="12.03"/>
      <rect class="cls-2" x="12.03" y="60.14" width="12.02" height="12.02"/>
      <rect class="cls-1" x="12.03" y="36.08" width="12.02" height="12.03"/>
      <rect class="cls-2" x="12.03" y="12.02" width="12.02" height="12.03"/>
      <rect class="cls-1" y="120.28" width="12.03" height="12.02"/>
      <rect class="cls-1" y="96.22" width="12.03" height="12.03"/>
      <rect class="cls-1" y="24.05" width="12.03" height="12.03"/>
      <rect class="cls-1" width="12.03" height="12.02"/>
    </g>
  </g>
</svg>