<?xml version="1.0" encoding="UTF-8"?>
<svg id="_레이어_2" data-name="레이어 2" xmlns="http://www.w3.org/2000/svg" viewBox="0 0 361.98 122.73">
  <g id="oun">
    <g>
      <path d="M99.36,17.08C87.97,5.69,74.24,0,58.14,0S28.47,5.69,17.08,17.08C5.69,28.47,0,42.21,0,58.3s5.69,29.67,17.08,41.06c11.39,11.39,25.07,17.08,41.06,17.08s29.84-5.69,41.22-17.08c11.39-11.39,17.08-25.07,17.08-41.06s-5.69-29.83-17.08-41.22ZM83.93,84.09c-7.12,7.12-15.71,10.68-25.79,10.68s-18.67-3.56-25.78-10.68c-7.12-7.11-10.68-15.71-10.68-25.78s3.56-18.72,10.68-25.95c7.11-7.12,15.71-10.67,25.78-10.67s18.67,3.56,25.79,10.67c7.23,7.23,10.84,15.88,10.84,25.95s-3.61,18.67-10.84,25.78Z"/>
      <path d="M254.77,64.6V6.29h-21.68v58.3c0,10.08-3.56,18.67-10.68,25.78-7.23,7.12-15.87,10.68-25.95,10.68v21.68c16.09,0,29.84-5.69,41.22-17.08,11.39-11.39,17.08-25.07,17.08-41.06Z"/>
      <path d="M159.84,64.6V6.29h-21.68v58.3c0,15.99,5.69,29.67,17.08,41.06,11.39,11.39,25.13,17.08,41.22,17.08v-21.68c-10.07,0-18.72-3.56-25.95-10.68-7.12-7.11-10.68-15.71-10.68-25.78Z"/>
      <path d="M361.98,58.14v58.3h-21.68v-58.3c0-10.08-3.56-18.67-10.68-25.78-7.23-7.12-15.87-10.68-25.95-10.68V0c16.09,0,29.84,5.69,41.22,17.08,11.39,11.39,17.08,25.07,17.08,41.06Z"/>
    </g>
  </g>
</svg>