<?xml version="1.0" encoding="UTF-8"?>
<svg id="_레이어_2" data-name="레이어 2" xmlns="http://www.w3.org/2000/svg" viewBox="0 0 625.96 845.38">
  <g id="items">
    <rect x="2.36" y="2.36" width="621.24" height="840.66" fill="#fff" stroke="#000" stroke-miterlimit="10" stroke-width="4.72"/>
    <text transform="translate(189.07 70.05)" font-family="MonaS12-Bold, MonaS12" font-size="49" font-weight="700"><tspan x="0" y="0" letter-spacing="-.05em">오</tspan><tspan x="46.33" y="0" letter-spacing="-.01em">늘</tspan><tspan x="94.82" y="0">의 </tspan><tspan x="160.15" y="0" letter-spacing="-.05em">버</tspan><tspan x="206.46" y="0">프 </tspan><tspan x="12.83" y="54" letter-spacing="0em">D</tspan><tspan x="49.27" y="54" letter-spacing=".01em">a</tspan><tspan x="78.4" y="54" letter-spacing="0em">i</tspan><tspan x="91.11" y="54" letter-spacing="-.05em">l</tspan><tspan x="104.78" y="54">y </tspan><tspan x="149.69" y="54" letter-spacing="0em">B</tspan><tspan x="182.55" y="54" letter-spacing="-.01em">u</tspan><tspan x="210.56" y="54" letter-spacing="-.01em">f</tspan><tspan x="234.46" y="54">f</tspan></text>
    <g>
      <g>
        <rect x="306.7" y="540.83" width="13.73" height="13.73" fill="#fff"/>
        <rect x="306.7" y="554.56" width="13.73" height="13.59" fill="#fff"/>
        <rect x="293.11" y="540.83" width="13.59" height="13.73" fill="#fff"/>
        <rect x="306.7" y="595.46" width="13.73" height="13.59" fill="#fff"/>
        <rect x="306.7" y="581.88" width="13.73" height="13.59" fill="#fff"/>
        <rect x="293.11" y="595.46" width="13.59" height="13.59" fill="#fff"/>
        <rect x="293.11" y="581.88" width="13.59" height="13.59" fill="#fff"/>
        <rect x="293.11" y="568.15" width="13.59" height="13.73" fill="#fff"/>
        <rect x="320.43" y="554.56" width="13.59" height="13.59" fill="#fff"/>
        <rect x="320.43" y="581.88" width="13.59" height="13.59" fill="#fff"/>
        <rect x="320.43" y="568.15" width="13.59" height="13.73" fill="#fff"/>
        <rect x="320.43" y="595.46" width="13.59" height="13.59" fill="#fff"/>
        <rect x="320.43" y="540.83" width="13.59" height="13.73" fill="#fff"/>
        <rect x="320.43" y="527.24" width="13.59" height="13.59" fill="#fff"/>
        <rect x="279.52" y="513.51" width="13.59" height="13.73" fill="#fff"/>
        <rect x="265.79" y="595.46" width="13.73" height="13.59" fill="#fff"/>
        <rect x="265.79" y="581.88" width="13.73" height="13.59" fill="#fff"/>
        <rect x="265.79" y="568.15" width="13.73" height="13.73" fill="#fff"/>
        <rect x="265.79" y="554.56" width="13.73" height="13.59" fill="#fff"/>
        <rect x="265.79" y="540.83" width="13.73" height="13.73" fill="#fff"/>
        <rect x="265.79" y="527.24" width="13.73" height="13.59" fill="#fff"/>
        <rect x="265.79" y="513.51" width="13.73" height="13.73" fill="#fff"/>
        <rect x="252.2" y="581.88" width="13.59" height="13.59" fill="#fff"/>
        <rect x="252.2" y="568.15" width="13.59" height="13.73" fill="#fff"/>
        <rect x="252.2" y="554.56" width="13.59" height="13.59" fill="#fff"/>
        <rect x="252.2" y="540.83" width="13.59" height="13.73" fill="#fff"/>
        <rect x="252.2" y="527.24" width="13.59" height="13.59" fill="#fff"/>
        <rect x="252.2" y="513.51" width="13.59" height="13.73" fill="#fff"/>
        <rect x="320.43" y="513.51" width="13.59" height="13.73" fill="#fff"/>
        <rect x="334.02" y="513.51" width="13.73" height="13.73" fill="#fff"/>
        <rect x="306.7" y="513.51" width="13.73" height="13.73" fill="#fff"/>
        <rect x="293.11" y="513.51" width="13.59" height="13.73" fill="#fff"/>
        <rect x="347.75" y="513.51" width="13.59" height="13.73" fill="#fff"/>
        <rect x="361.34" y="513.51" width="13.73" height="13.73" fill="#fff"/>
        <rect x="347.75" y="540.83" width="13.59" height="13.73" fill="#fff"/>
        <rect x="361.34" y="540.83" width="13.73" height="13.73" fill="#fff"/>
        <rect x="361.34" y="554.56" width="13.73" height="13.59" fill="#fff"/>
        <rect x="347.75" y="568.15" width="13.59" height="13.73" fill="#fff"/>
        <rect x="347.75" y="595.46" width="13.59" height="13.59" fill="#fff"/>
        <rect x="347.75" y="581.88" width="13.59" height="13.59" fill="#fff"/>
        <rect x="361.34" y="595.46" width="13.73" height="13.59" fill="#fff"/>
        <rect x="361.34" y="581.88" width="13.73" height="13.59" fill="#fff"/>
        <rect x="375.07" y="554.56" width="13.59" height="13.59" fill="#fff"/>
        <rect x="375.07" y="581.88" width="13.59" height="13.59" fill="#fff"/>
        <rect x="375.07" y="540.83" width="13.59" height="13.73" fill="#fff"/>
        <rect x="375.07" y="499.92" width="13.59" height="13.59" fill="#fff"/>
        <rect x="375.07" y="595.46" width="13.59" height="13.59" fill="#fff"/>
        <rect x="375.07" y="527.24" width="13.59" height="13.59" fill="#fff"/>
        <rect x="375.07" y="568.15" width="13.59" height="13.73" fill="#fff"/>
        <rect x="375.07" y="513.51" width="13.59" height="13.73" fill="#fff"/>
        <rect x="279.52" y="486.19" width="13.59" height="13.73" fill="#fff"/>
        <rect x="265.79" y="486.19" width="13.73" height="13.73" fill="#fff"/>
        <rect x="252.2" y="486.19" width="13.59" height="13.73" fill="#fff"/>
        <rect x="334.02" y="486.19" width="13.73" height="13.73" fill="#fff"/>
        <rect x="320.43" y="486.19" width="13.59" height="13.73" fill="#fff"/>
        <rect x="306.7" y="486.19" width="13.73" height="13.73" fill="#fff"/>
        <rect x="293.11" y="486.19" width="13.59" height="13.73" fill="#fff"/>
        <rect x="347.75" y="486.19" width="13.59" height="13.73" fill="#fff"/>
        <rect x="361.34" y="486.19" width="13.73" height="13.73" fill="#fff"/>
        <rect x="238.47" y="499.92" width="13.73" height="13.59" fill="#fff"/>
        <rect x="238.47" y="486.19" width="13.73" height="13.73" fill="#fff"/>
        <rect x="238.47" y="472.6" width="13.73" height="13.59" fill="#fff"/>
        <rect x="375.07" y="472.6" width="13.59" height="13.59" fill="#fff"/>
        <rect x="375.07" y="445.28" width="13.59" height="13.59" fill="#fff"/>
        <rect x="279.52" y="458.87" width="13.59" height="13.73" fill="#fff"/>
        <rect x="265.79" y="458.87" width="13.73" height="13.73" fill="#fff"/>
        <rect x="252.2" y="458.87" width="13.59" height="13.73" fill="#fff"/>
        <rect x="320.43" y="458.87" width="13.59" height="13.73" fill="#fff"/>
        <rect x="334.02" y="458.87" width="13.73" height="13.73" fill="#fff"/>
        <rect x="306.7" y="458.87" width="13.73" height="13.73" fill="#fff"/>
        <rect x="293.11" y="458.87" width="13.59" height="13.73" fill="#fff"/>
        <rect x="347.75" y="458.87" width="13.59" height="13.73" fill="#fff"/>
        <rect x="361.34" y="458.87" width="13.73" height="13.73" fill="#fff"/>
        <rect x="375.07" y="458.87" width="13.59" height="13.73" fill="#fff"/>
        <rect x="279.52" y="431.55" width="13.59" height="13.73" fill="#fff"/>
        <rect x="265.79" y="431.55" width="13.73" height="13.73" fill="#fff"/>
        <rect x="252.2" y="431.55" width="13.59" height="13.73" fill="#fff"/>
        <rect x="238.47" y="445.28" width="13.73" height="13.59" fill="#fff"/>
        <rect x="238.47" y="431.55" width="13.73" height="13.73" fill="#fff"/>
        <rect x="334.02" y="431.55" width="13.73" height="13.73" fill="#fff"/>
        <rect x="320.43" y="431.55" width="13.59" height="13.73" fill="#fff"/>
        <rect x="306.7" y="431.55" width="13.73" height="13.73" fill="#fff"/>
        <rect x="293.11" y="431.55" width="13.59" height="13.73" fill="#fff"/>
        <rect x="347.75" y="431.55" width="13.59" height="13.73" fill="#fff"/>
        <rect x="361.34" y="431.55" width="13.73" height="13.73" fill="#fff"/>
        <rect x="375.07" y="417.96" width="13.59" height="13.59" fill="#fff"/>
        <rect x="293.11" y="363.33" width="13.59" height="13.73" fill="#fff"/>
        <rect x="320.43" y="390.65" width="13.59" height="13.73" fill="#fff"/>
        <rect x="293.11" y="390.65" width="13.59" height="13.73" fill="#fff"/>
        <rect x="306.7" y="377.06" width="13.73" height="13.59" fill="#fff"/>
        <rect x="320.43" y="363.33" width="13.59" height="13.73" fill="#fff"/>
        <rect x="279.52" y="404.38" width="13.59" height="13.59" fill="#fff"/>
        <rect x="320.43" y="404.38" width="13.59" height="13.59" fill="#fff"/>
        <rect x="334.02" y="404.38" width="13.73" height="13.59" fill="#fff"/>
        <rect x="306.7" y="404.38" width="13.73" height="13.59" fill="#fff"/>
        <rect x="293.11" y="404.38" width="13.59" height="13.59" fill="#fff"/>
        <rect x="347.75" y="377.06" width="13.59" height="13.59" fill="#fff"/>
        <rect x="347.75" y="404.38" width="13.59" height="13.59" fill="#fff"/>
        <rect x="361.34" y="377.06" width="13.73" height="13.59" fill="#fff"/>
        <rect x="347.75" y="390.65" width="13.59" height="13.73" fill="#fff"/>
        <rect x="361.34" y="390.65" width="13.73" height="13.73" fill="#fff"/>
        <rect x="361.34" y="404.38" width="13.73" height="13.59" fill="#fff"/>
        <rect x="375.07" y="404.38" width="13.59" height="13.59" fill="#fff"/>
        <rect x="375.07" y="390.65" width="13.59" height="13.73" fill="#fff"/>
        <rect x="375.07" y="377.06" width="13.59" height="13.59" fill="#fff"/>
        <rect x="265.79" y="404.38" width="13.73" height="13.59" fill="#fff"/>
        <rect x="265.79" y="390.65" width="13.73" height="13.73" fill="#fff"/>
        <rect x="265.79" y="377.06" width="13.73" height="13.59" fill="#fff"/>
        <rect x="252.2" y="404.38" width="13.59" height="13.59" fill="#fff"/>
        <rect x="252.2" y="390.65" width="13.59" height="13.73" fill="#fff"/>
        <rect x="252.2" y="377.06" width="13.59" height="13.59" fill="#fff"/>
        <rect x="238.47" y="404.38" width="13.73" height="13.59" fill="#fff"/>
        <rect x="238.47" y="390.65" width="13.73" height="13.73" fill="#fff"/>
        <rect x="238.47" y="377.06" width="13.73" height="13.59" fill="#fff"/>
        <rect x="334.02" y="322.42" width="13.73" height="13.59" fill="#fff"/>
        <rect x="334.02" y="308.69" width="13.73" height="13.73" fill="#fff"/>
        <rect x="320.43" y="322.42" width="13.59" height="13.59" fill="#fff"/>
        <rect x="320.43" y="295.1" width="13.59" height="13.59" fill="#fff"/>
        <rect x="320.43" y="336.01" width="13.59" height="13.73" fill="#fff"/>
        <rect x="320.43" y="308.69" width="13.59" height="13.73" fill="#fff"/>
        <rect x="334.02" y="336.01" width="13.73" height="13.73" fill="#fff"/>
        <rect x="306.7" y="295.1" width="13.73" height="13.59" fill="#fff"/>
        <rect x="347.75" y="336.01" width="13.59" height="13.73" fill="#fff"/>
        <rect x="265.79" y="336.01" width="13.73" height="13.73" fill="#fff"/>
        <rect x="279.52" y="336.01" width="13.59" height="13.73" fill="#fff"/>
        <rect x="279.52" y="322.42" width="13.59" height="13.59" fill="#fff"/>
        <rect x="279.52" y="308.69" width="13.59" height="13.73" fill="#fff"/>
        <rect x="293.11" y="336.01" width="13.59" height="13.73" fill="#fff"/>
        <rect x="293.11" y="322.42" width="13.59" height="13.59" fill="#fff"/>
        <rect x="293.11" y="308.69" width="13.59" height="13.73" fill="#fff"/>
        <rect x="293.11" y="295.1" width="13.59" height="13.59" fill="#fff"/>
        <rect x="375.07" y="254.05" width="13.59" height="13.73" fill="#fff"/>
        <rect x="361.34" y="281.37" width="13.73" height="13.73" fill="#fff"/>
        <rect x="361.34" y="267.78" width="13.73" height="13.59" fill="#fff"/>
        <rect x="361.34" y="295.1" width="13.73" height="13.59" fill="#fff"/>
        <rect x="375.07" y="281.37" width="13.59" height="13.73" fill="#fff"/>
        <rect x="375.07" y="267.78" width="13.59" height="13.59" fill="#fff"/>
        <rect x="375.07" y="308.69" width="13.59" height="13.73" fill="#fff"/>
        <rect x="375.07" y="295.1" width="13.59" height="13.59" fill="#fff"/>
        <rect x="334.02" y="281.37" width="13.73" height="13.73" fill="#fff"/>
        <rect x="347.75" y="295.1" width="13.59" height="13.59" fill="#fff"/>
        <rect x="347.75" y="267.78" width="13.59" height="13.59" fill="#fff"/>
        <rect x="347.75" y="281.37" width="13.59" height="13.73" fill="#fff"/>
        <rect x="320.43" y="267.78" width="13.59" height="13.59" fill="#fff"/>
        <rect x="306.7" y="267.78" width="13.73" height="13.59" fill="#fff"/>
        <rect x="293.11" y="267.78" width="13.59" height="13.59" fill="#fff"/>
        <rect x="279.52" y="281.37" width="13.59" height="13.73" fill="#fff"/>
        <rect x="265.79" y="295.1" width="13.73" height="13.59" fill="#fff"/>
        <rect x="265.79" y="281.37" width="13.73" height="13.73" fill="#fff"/>
        <rect x="265.79" y="267.78" width="13.73" height="13.59" fill="#fff"/>
        <rect x="252.2" y="295.1" width="13.59" height="13.59" fill="#fff"/>
        <rect x="252.2" y="281.37" width="13.59" height="13.73" fill="#fff"/>
        <rect x="252.2" y="267.78" width="13.59" height="13.59" fill="#fff"/>
        <rect x="238.47" y="308.69" width="13.73" height="13.73" fill="#fff"/>
        <rect x="238.47" y="295.1" width="13.73" height="13.59" fill="#fff"/>
        <rect x="238.47" y="281.37" width="13.73" height="13.73" fill="#fff"/>
        <rect x="238.47" y="267.78" width="13.73" height="13.59" fill="#fff"/>
        <rect x="238.47" y="254.05" width="13.73" height="13.73" fill="#fff"/>
        <rect x="334.02" y="254.05" width="13.73" height="13.73" fill="#fff"/>
        <rect x="320.43" y="226.74" width="13.59" height="13.73" fill="#fff"/>
        <rect x="334.02" y="226.74" width="13.73" height="13.73" fill="#fff"/>
        <rect x="320.43" y="254.05" width="13.59" height="13.73" fill="#fff"/>
        <rect x="334.02" y="240.47" width="13.73" height="13.59" fill="#fff"/>
        <rect x="320.43" y="240.47" width="13.59" height="13.59" fill="#fff"/>
        <rect x="347.75" y="226.74" width="13.59" height="13.73" fill="#fff"/>
        <rect x="279.52" y="254.05" width="13.59" height="13.73" fill="#fff"/>
        <rect x="279.52" y="240.47" width="13.59" height="13.59" fill="#fff"/>
        <rect x="279.52" y="226.74" width="13.59" height="13.73" fill="#fff"/>
        <rect x="265.79" y="226.74" width="13.73" height="13.73" fill="#fff"/>
        <rect x="293.11" y="254.05" width="13.59" height="13.73" fill="#fff"/>
        <rect x="293.11" y="240.47" width="13.59" height="13.59" fill="#fff"/>
        <rect x="293.11" y="226.74" width="13.59" height="13.73" fill="#fff"/>
        <rect x="279.52" y="349.74" width="13.59" height="13.59" fill="#fff"/>
        <rect x="265.79" y="349.74" width="13.73" height="13.59" fill="#fff"/>
        <rect x="252.2" y="349.74" width="13.59" height="13.59" fill="#fff"/>
        <rect x="238.47" y="349.74" width="13.73" height="13.59" fill="#fff"/>
        <rect x="334.02" y="349.74" width="13.73" height="13.59" fill="#fff"/>
        <rect x="320.43" y="349.74" width="13.59" height="13.59" fill="#fff"/>
        <rect x="306.7" y="349.74" width="13.73" height="13.59" fill="#fff"/>
        <rect x="293.11" y="349.74" width="13.59" height="13.59" fill="#fff"/>
        <rect x="347.75" y="349.74" width="13.59" height="13.59" fill="#fff"/>
        <rect x="361.34" y="349.74" width="13.73" height="13.59" fill="#fff"/>
        <rect x="375.07" y="349.74" width="13.59" height="13.59" fill="#fff"/>
        <rect x="375.07" y="336.01" width="13.59" height="13.73" fill="#fff"/>
        <rect x="361.34" y="322.42" width="13.73" height="13.59" fill="#fff"/>
        <rect x="347.75" y="308.69" width="13.59" height="13.73" fill="#fff"/>
        <rect x="265.79" y="308.69" width="13.73" height="13.73" fill="#fff"/>
        <rect x="252.2" y="322.42" width="13.59" height="13.59" fill="#fff"/>
        <rect x="238.47" y="336.01" width="13.73" height="13.73" fill="#fff"/>
        <rect x="347.75" y="254.05" width="13.59" height="13.73" fill="#fff"/>
        <rect x="361.34" y="240.47" width="13.73" height="13.59" fill="#fff"/>
        <rect x="375.07" y="226.74" width="13.59" height="13.73" fill="#fff"/>
        <rect x="265.79" y="254.05" width="13.73" height="13.73" fill="#fff"/>
        <rect x="252.2" y="240.47" width="13.59" height="13.59" fill="#fff"/>
        <rect x="238.47" y="226.74" width="13.73" height="13.73" fill="#fff"/>
        <rect x="388.66" y="336.01" width="13.73" height="13.73" fill="#fff"/>
        <rect x="388.66" y="322.42" width="13.73" height="13.59" fill="#fff"/>
        <rect x="388.66" y="308.69" width="13.73" height="13.73" fill="#fff"/>
        <rect x="388.66" y="254.05" width="13.73" height="13.73" fill="#fff"/>
        <rect x="388.66" y="240.47" width="13.73" height="13.59" fill="#fff"/>
        <rect x="388.66" y="295.1" width="13.73" height="13.59" fill="#fff"/>
        <rect x="388.66" y="267.78" width="13.73" height="13.59" fill="#fff"/>
        <rect x="388.66" y="226.74" width="13.73" height="13.73" fill="#fff"/>
        <rect x="388.66" y="281.37" width="13.73" height="13.73" fill="#fff"/>
        <rect x="388.66" y="377.06" width="13.73" height="13.59" fill="#fff"/>
        <rect x="388.66" y="513.51" width="13.73" height="13.73" fill="#fff"/>
        <rect x="388.66" y="431.55" width="13.73" height="13.73" fill="#fff"/>
        <rect x="388.66" y="472.6" width="13.73" height="13.59" fill="#fff"/>
        <rect x="388.66" y="499.92" width="13.73" height="13.59" fill="#fff"/>
        <rect x="388.66" y="404.38" width="13.73" height="13.59" fill="#fff"/>
        <rect x="388.66" y="445.28" width="13.73" height="13.59" fill="#fff"/>
        <rect x="388.66" y="458.87" width="13.73" height="13.73" fill="#fff"/>
        <rect x="388.66" y="417.96" width="13.73" height="13.59" fill="#fff"/>
        <rect x="388.66" y="363.33" width="13.73" height="13.73" fill="#fff"/>
        <rect x="388.66" y="390.65" width="13.73" height="13.73" fill="#fff"/>
        <rect x="388.66" y="486.19" width="13.73" height="13.73" fill="#fff"/>
        <rect x="388.66" y="349.74" width="13.73" height="13.59" fill="#fff"/>
        <rect x="388.66" y="540.83" width="13.73" height="13.73" fill="#fff"/>
        <rect x="388.66" y="595.46" width="13.73" height="13.59" fill="#fff"/>
        <rect x="388.66" y="581.88" width="13.73" height="13.59" fill="#fff"/>
        <rect x="388.66" y="527.24" width="13.73" height="13.59" fill="#fff"/>
        <rect x="388.66" y="554.56" width="13.73" height="13.59" fill="#fff"/>
        <rect x="388.66" y="568.15" width="13.73" height="13.73" fill="#fff"/>
        <rect x="375.07" y="609.05" width="13.59" height="13.73" fill="#fff"/>
        <rect x="388.66" y="609.05" width="13.73" height="13.73" fill="#fff"/>
        <rect x="265.79" y="609.05" width="13.73" height="13.73" fill="#fff"/>
        <rect x="252.2" y="609.05" width="13.59" height="13.73" fill="#fff"/>
        <rect x="238.47" y="609.05" width="13.73" height="13.73" fill="#fff"/>
        <rect x="306.7" y="609.05" width="13.73" height="13.73" fill="#fff"/>
        <rect x="320.43" y="609.05" width="13.59" height="13.73" fill="#fff"/>
        <rect x="293.11" y="609.05" width="13.59" height="13.73" fill="#fff"/>
        <rect x="279.52" y="609.05" width="13.59" height="13.73" fill="#fff"/>
        <rect x="334.02" y="609.05" width="13.73" height="13.73" fill="#fff"/>
        <rect x="347.75" y="609.05" width="13.59" height="13.73" fill="#fff"/>
        <rect x="361.34" y="609.05" width="13.73" height="13.73" fill="#fff"/>
        <rect x="224.89" y="609.05" width="13.59" height="13.73" fill="#fff"/>
        <rect x="224.89" y="595.46" width="13.59" height="13.59" fill="#fff"/>
        <rect x="224.89" y="581.88" width="13.59" height="13.59" fill="#fff"/>
        <rect x="224.89" y="499.92" width="13.59" height="13.59" fill="#fff"/>
        <rect x="224.89" y="527.24" width="13.59" height="13.59" fill="#fff"/>
        <rect x="224.89" y="540.83" width="13.59" height="13.73" fill="#fff"/>
        <rect x="224.89" y="349.74" width="13.59" height="13.59" fill="#fff"/>
        <rect x="224.89" y="445.28" width="13.59" height="13.59" fill="#fff"/>
        <rect x="224.89" y="295.1" width="13.59" height="13.59" fill="#fff"/>
        <rect x="224.89" y="377.06" width="13.59" height="13.59" fill="#fff"/>
        <rect x="224.89" y="267.78" width="13.59" height="13.59" fill="#fff"/>
        <rect x="224.89" y="254.05" width="13.59" height="13.73" fill="#fff"/>
        <rect x="224.89" y="404.38" width="13.59" height="13.59" fill="#fff"/>
        <rect x="224.89" y="472.6" width="13.59" height="13.59" fill="#fff"/>
        <rect x="224.89" y="554.56" width="13.59" height="13.59" fill="#fff"/>
        <rect x="224.89" y="226.74" width="13.59" height="13.73" fill="#fff"/>
        <rect x="224.89" y="390.65" width="13.59" height="13.73" fill="#fff"/>
        <rect x="224.89" y="513.51" width="13.59" height="13.73" fill="#fff"/>
        <rect x="224.89" y="308.69" width="13.59" height="13.73" fill="#fff"/>
        <rect x="224.89" y="336.01" width="13.59" height="13.73" fill="#fff"/>
        <rect x="224.89" y="363.33" width="13.59" height="13.73" fill="#fff"/>
        <rect x="224.89" y="240.47" width="13.59" height="13.59" fill="#fff"/>
        <rect x="224.89" y="431.55" width="13.59" height="13.73" fill="#fff"/>
        <rect x="224.89" y="322.42" width="13.59" height="13.59" fill="#fff"/>
        <rect x="224.89" y="486.19" width="13.59" height="13.73" fill="#fff"/>
        <rect x="224.89" y="281.37" width="13.59" height="13.73" fill="#fff"/>
        <rect x="224.89" y="417.96" width="13.59" height="13.59" fill="#fff"/>
        <rect x="224.89" y="568.15" width="13.59" height="13.73" fill="#fff"/>
        <rect x="224.89" y="458.87" width="13.59" height="13.73" fill="#fff"/>
        <rect x="402.38" y="622.78" width="13.59" height="13.59" fill="#040000"/>
        <rect x="402.38" y="609.05" width="13.59" height="13.73" fill="#040000"/>
        <rect x="402.38" y="595.46" width="13.59" height="13.59" fill="#040000"/>
        <rect x="402.38" y="581.88" width="13.59" height="13.59" fill="#040000"/>
        <rect x="402.38" y="568.15" width="13.59" height="13.73" fill="#040000"/>
        <rect x="402.38" y="554.56" width="13.59" height="13.59" fill="#040000"/>
        <rect x="402.38" y="540.83" width="13.59" height="13.73" fill="#040000"/>
        <rect x="402.38" y="527.24" width="13.59" height="13.59" fill="#040000"/>
        <rect x="402.38" y="513.51" width="13.59" height="13.73" fill="#040000"/>
        <rect x="402.38" y="499.92" width="13.59" height="13.59" fill="#040000"/>
        <rect x="402.38" y="486.19" width="13.59" height="13.73" fill="#040000"/>
        <rect x="402.38" y="472.6" width="13.59" height="13.59" fill="#040000"/>
        <rect x="402.38" y="458.87" width="13.59" height="13.73" fill="#040000"/>
        <rect x="402.38" y="445.28" width="13.59" height="13.59" fill="#040000"/>
        <rect x="402.38" y="431.55" width="13.59" height="13.73" fill="#040000"/>
        <rect x="402.38" y="417.96" width="13.59" height="13.59" fill="#040000"/>
        <rect x="402.38" y="404.38" width="13.59" height="13.59" fill="#040000"/>
        <rect x="402.38" y="390.65" width="13.59" height="13.73" fill="#040000"/>
        <rect x="402.38" y="377.06" width="13.59" height="13.59" fill="#040000"/>
        <rect x="402.38" y="363.33" width="13.59" height="13.73" fill="#040000"/>
        <rect x="402.38" y="349.74" width="13.59" height="13.59" fill="#040000"/>
        <rect x="402.38" y="336.01" width="13.59" height="13.73" fill="#040000"/>
        <rect x="402.38" y="322.42" width="13.59" height="13.59" fill="#040000"/>
        <rect x="402.38" y="308.69" width="13.59" height="13.73" fill="#040000"/>
        <rect x="402.38" y="295.1" width="13.59" height="13.59" fill="#040000"/>
        <rect x="402.38" y="281.37" width="13.59" height="13.73" fill="#040000"/>
        <rect x="402.38" y="267.78" width="13.59" height="13.59" fill="#040000"/>
        <rect x="402.38" y="254.05" width="13.59" height="13.73" fill="#040000"/>
        <rect x="402.38" y="240.47" width="13.59" height="13.59" fill="#040000"/>
        <rect x="402.38" y="226.74" width="13.59" height="13.73" fill="#040000"/>
        <rect x="402.38" y="213.15" width="13.59" height="13.59" fill="#040000"/>
        <rect x="402.38" y="199.56" width="13.59" height="13.59" fill="#040000"/>
        <rect x="388.66" y="622.78" width="13.73" height="13.59" fill="#040000"/>
        <rect x="388.66" y="213.15" width="13.73" height="13.59" fill="#fff"/>
        <rect x="388.66" y="199.56" width="13.73" height="13.59" fill="#040000"/>
        <rect x="375.07" y="622.78" width="13.59" height="13.59" fill="#040000"/>
        <rect x="375.07" y="486.19" width="13.59" height="13.73" fill="#040000"/>
        <rect x="375.07" y="431.55" width="13.59" height="13.73" fill="#040000"/>
        <rect x="375.07" y="363.33" width="13.59" height="13.73" fill="#040000"/>
        <rect x="375.07" y="322.42" width="13.59" height="13.59" fill="#040000"/>
        <rect x="375.07" y="240.47" width="13.59" height="13.59" fill="#040000"/>
        <rect x="375.07" y="213.15" width="13.59" height="13.59" fill="#fff"/>
        <rect x="375.07" y="199.56" width="13.59" height="13.59" fill="#040000"/>
        <rect x="361.34" y="622.78" width="13.73" height="13.59" fill="#040000"/>
        <rect x="361.34" y="568.15" width="13.73" height="13.73" fill="#040000"/>
        <rect x="361.34" y="527.24" width="13.73" height="13.59" fill="#040000"/>
        <rect x="361.34" y="499.92" width="13.73" height="13.59" fill="#040000"/>
        <rect x="361.34" y="472.6" width="13.73" height="13.59" fill="#040000"/>
        <rect x="361.34" y="445.28" width="13.73" height="13.59" fill="#040000"/>
        <rect x="361.34" y="417.96" width="13.73" height="13.59" fill="#040000"/>
        <rect x="361.34" y="363.33" width="13.73" height="13.73" fill="#040000"/>
        <rect x="361.34" y="336.01" width="13.73" height="13.73" fill="#040000"/>
        <rect x="361.34" y="308.69" width="13.73" height="13.73" fill="#040000"/>
        <rect x="361.34" y="254.05" width="13.73" height="13.73" fill="#040000"/>
        <rect x="361.34" y="226.74" width="13.73" height="13.73" fill="#040000"/>
        <rect x="361.34" y="213.15" width="13.73" height="13.59" fill="#fff"/>
        <rect x="361.34" y="199.56" width="13.73" height="13.59" fill="#040000"/>
        <rect x="347.75" y="622.78" width="13.59" height="13.59" fill="#040000"/>
        <rect x="347.75" y="554.56" width="13.59" height="13.59" fill="#040000"/>
        <rect x="347.75" y="527.24" width="13.59" height="13.59" fill="#040000"/>
        <rect x="347.75" y="499.92" width="13.59" height="13.59" fill="#040000"/>
        <rect x="347.75" y="472.6" width="13.59" height="13.59" fill="#040000"/>
        <rect x="347.75" y="445.28" width="13.59" height="13.59" fill="#040000"/>
        <rect x="347.75" y="417.96" width="13.59" height="13.59" fill="#040000"/>
        <rect x="347.75" y="363.33" width="13.59" height="13.73" fill="#040000"/>
        <rect x="347.75" y="322.42" width="13.59" height="13.59" fill="#040000"/>
        <rect x="347.75" y="240.47" width="13.59" height="13.59" fill="#040000"/>
        <rect x="347.75" y="213.15" width="13.59" height="13.59" fill="#fff"/>
        <rect x="347.75" y="199.56" width="13.59" height="13.59" fill="#040000"/>
        <rect x="334.02" y="622.78" width="13.73" height="13.59" fill="#040000"/>
        <rect x="334.02" y="595.46" width="13.73" height="13.59" fill="#040000"/>
        <rect x="334.02" y="581.88" width="13.73" height="13.59" fill="#040000"/>
        <rect x="334.02" y="568.15" width="13.73" height="13.73" fill="#040000"/>
        <rect x="334.02" y="554.56" width="13.73" height="13.59" fill="#040000"/>
        <rect x="334.02" y="540.83" width="13.73" height="13.73" fill="#040000"/>
        <rect x="334.02" y="527.24" width="13.73" height="13.59" fill="#040000"/>
        <rect x="334.02" y="499.92" width="13.73" height="13.59" fill="#040000"/>
        <rect x="334.02" y="472.6" width="13.73" height="13.59" fill="#040000"/>
        <rect x="334.02" y="445.28" width="13.73" height="13.59" fill="#040000"/>
        <rect x="334.02" y="417.96" width="13.73" height="13.59" fill="#040000"/>
        <rect x="334.02" y="390.65" width="13.73" height="13.73" fill="#040000"/>
        <rect x="334.02" y="377.06" width="13.73" height="13.59" fill="#040000"/>
        <rect x="334.02" y="363.33" width="13.73" height="13.73" fill="#040000"/>
        <rect x="334.02" y="295.1" width="13.73" height="13.59" fill="#040000"/>
        <rect x="334.02" y="267.78" width="13.73" height="13.59" fill="#040000"/>
        <rect x="334.02" y="213.15" width="13.73" height="13.59" fill="#fff"/>
        <rect x="334.02" y="199.56" width="13.73" height="13.59" fill="#040000"/>
        <rect x="320.43" y="622.78" width="13.59" height="13.59" fill="#040000"/>
        <rect x="320.43" y="499.92" width="13.59" height="13.59" fill="#040000"/>
        <rect x="320.43" y="472.6" width="13.59" height="13.59" fill="#040000"/>
        <rect x="320.43" y="445.28" width="13.59" height="13.59" fill="#040000"/>
        <rect x="320.43" y="417.96" width="13.59" height="13.59" fill="#040000"/>
        <rect x="320.43" y="377.06" width="13.59" height="13.59" fill="#040000"/>
        <rect x="320.43" y="281.37" width="13.59" height="13.73" fill="#040000"/>
        <rect x="320.43" y="213.15" width="13.59" height="13.59" fill="#fff"/>
        <rect x="320.43" y="199.56" width="13.59" height="13.59" fill="#040000"/>
        <rect x="306.7" y="622.78" width="13.73" height="13.59" fill="#040000"/>
        <rect x="306.7" y="568.15" width="13.73" height="13.73" fill="#040000"/>
        <rect x="306.7" y="527.24" width="13.73" height="13.59" fill="#040000"/>
        <rect x="306.7" y="499.92" width="13.73" height="13.59" fill="#040000"/>
        <rect x="306.7" y="472.6" width="13.73" height="13.59" fill="#040000"/>
        <rect x="306.7" y="445.28" width="13.73" height="13.59" fill="#040000"/>
        <rect x="306.7" y="417.96" width="13.73" height="13.59" fill="#040000"/>
        <rect x="306.7" y="390.65" width="13.73" height="13.73" fill="#040000"/>
        <rect x="306.7" y="363.33" width="13.73" height="13.73" fill="#040000"/>
        <rect x="306.7" y="336.01" width="13.73" height="13.73" fill="#040000"/>
        <rect x="306.7" y="322.42" width="13.73" height="13.59" fill="#040000"/>
        <rect x="306.7" y="308.69" width="13.73" height="13.73" fill="#040000"/>
        <rect x="306.7" y="281.37" width="13.73" height="13.73" fill="#040000"/>
        <rect x="306.7" y="254.05" width="13.73" height="13.73" fill="#040000"/>
        <rect x="306.7" y="240.47" width="13.73" height="13.59" fill="#040000"/>
        <rect x="306.7" y="226.74" width="13.73" height="13.73" fill="#040000"/>
        <rect x="306.7" y="213.15" width="13.73" height="13.59" fill="#fff"/>
        <rect x="306.7" y="199.56" width="13.73" height="13.59" fill="#040000"/>
        <rect x="293.11" y="622.78" width="13.59" height="13.59" fill="#040000"/>
        <rect x="293.11" y="554.56" width="13.59" height="13.59" fill="#040000"/>
        <rect x="293.11" y="527.24" width="13.59" height="13.59" fill="#040000"/>
        <rect x="293.11" y="499.92" width="13.59" height="13.59" fill="#040000"/>
        <rect x="293.11" y="472.6" width="13.59" height="13.59" fill="#040000"/>
        <rect x="293.11" y="445.28" width="13.59" height="13.59" fill="#040000"/>
        <rect x="293.11" y="417.96" width="13.59" height="13.59" fill="#040000"/>
        <rect x="293.11" y="377.06" width="13.59" height="13.59" fill="#040000"/>
        <rect x="293.11" y="281.37" width="13.59" height="13.73" fill="#040000"/>
        <rect x="293.11" y="213.15" width="13.59" height="13.59" fill="#fff"/>
        <rect x="293.11" y="199.56" width="13.59" height="13.59" fill="#040000"/>
        <rect x="279.52" y="622.78" width="13.59" height="13.59" fill="#040000"/>
        <rect x="279.52" y="595.46" width="13.59" height="13.59" fill="#040000"/>
        <rect x="279.52" y="581.88" width="13.59" height="13.59" fill="#040000"/>
        <rect x="279.52" y="568.15" width="13.59" height="13.73" fill="#040000"/>
        <rect x="279.52" y="554.56" width="13.59" height="13.59" fill="#040000"/>
        <rect x="279.52" y="540.83" width="13.59" height="13.73" fill="#040000"/>
        <rect x="279.52" y="527.24" width="13.59" height="13.59" fill="#040000"/>
        <rect x="279.52" y="499.92" width="13.59" height="13.59" fill="#040000"/>
        <rect x="279.52" y="472.6" width="13.59" height="13.59" fill="#040000"/>
        <rect x="279.52" y="445.28" width="13.59" height="13.59" fill="#040000"/>
        <rect x="279.52" y="417.96" width="13.59" height="13.59" fill="#040000"/>
        <rect x="279.52" y="390.65" width="13.59" height="13.73" fill="#040000"/>
        <rect x="279.52" y="377.06" width="13.59" height="13.59" fill="#040000"/>
        <rect x="279.52" y="363.33" width="13.59" height="13.73" fill="#040000"/>
        <rect x="279.52" y="295.1" width="13.59" height="13.59" fill="#040000"/>
        <rect x="279.52" y="267.78" width="13.59" height="13.59" fill="#040000"/>
        <rect x="279.52" y="213.15" width="13.59" height="13.59" fill="#fff"/>
        <rect x="279.52" y="199.56" width="13.59" height="13.59" fill="#040000"/>
        <rect x="265.79" y="622.78" width="13.73" height="13.59" fill="#040000"/>
        <rect x="265.79" y="499.92" width="13.73" height="13.59" fill="#040000"/>
        <rect x="265.79" y="472.6" width="13.73" height="13.59" fill="#040000"/>
        <rect x="265.79" y="445.28" width="13.73" height="13.59" fill="#040000"/>
        <rect x="265.79" y="417.96" width="13.73" height="13.59" fill="#040000"/>
        <rect x="265.79" y="363.33" width="13.73" height="13.73" fill="#040000"/>
        <rect x="265.79" y="322.42" width="13.73" height="13.59" fill="#040000"/>
        <rect x="265.79" y="240.47" width="13.73" height="13.59" fill="#040000"/>
        <rect x="265.79" y="213.15" width="13.73" height="13.59" fill="#fff"/>
        <rect x="265.79" y="199.56" width="13.73" height="13.59" fill="#040000"/>
        <rect x="252.2" y="622.78" width="13.59" height="13.59" fill="#040000"/>
        <rect x="252.2" y="595.46" width="13.59" height="13.59" fill="#040000"/>
        <rect x="252.2" y="499.92" width="13.59" height="13.59" fill="#040000"/>
        <rect x="252.2" y="472.6" width="13.59" height="13.59" fill="#040000"/>
        <rect x="252.2" y="445.28" width="13.59" height="13.59" fill="#040000"/>
        <rect x="252.2" y="417.96" width="13.59" height="13.59" fill="#040000"/>
        <rect x="252.2" y="363.33" width="13.59" height="13.73" fill="#040000"/>
        <rect x="252.2" y="336.01" width="13.59" height="13.73" fill="#040000"/>
        <rect x="252.2" y="308.69" width="13.59" height="13.73" fill="#040000"/>
        <rect x="252.2" y="254.05" width="13.59" height="13.73" fill="#040000"/>
        <rect x="252.2" y="226.74" width="13.59" height="13.73" fill="#040000"/>
        <rect x="252.2" y="213.15" width="13.59" height="13.59" fill="#fff"/>
        <rect x="252.2" y="199.56" width="13.59" height="13.59" fill="#040000"/>
        <rect x="238.47" y="622.78" width="13.73" height="13.59" fill="#040000"/>
        <rect x="238.47" y="595.46" width="13.73" height="13.59" fill="#040000"/>
        <rect x="238.47" y="581.88" width="13.73" height="13.59" fill="#040000"/>
        <rect x="238.47" y="568.15" width="13.73" height="13.73" fill="#040000"/>
        <rect x="238.47" y="554.56" width="13.73" height="13.59" fill="#040000"/>
        <rect x="238.47" y="540.83" width="13.73" height="13.73" fill="#040000"/>
        <rect x="238.47" y="527.24" width="13.73" height="13.59" fill="#040000"/>
        <rect x="238.47" y="513.51" width="13.73" height="13.73" fill="#040000"/>
        <rect x="238.47" y="458.87" width="13.73" height="13.73" fill="#040000"/>
        <rect x="238.47" y="417.96" width="13.73" height="13.59" fill="#040000"/>
        <rect x="238.47" y="363.33" width="13.73" height="13.73" fill="#040000"/>
        <rect x="238.47" y="322.42" width="13.73" height="13.59" fill="#040000"/>
        <rect x="238.47" y="240.47" width="13.73" height="13.59" fill="#040000"/>
        <rect x="238.47" y="213.15" width="13.73" height="13.59" fill="#fff"/>
        <rect x="238.47" y="199.56" width="13.73" height="13.59" fill="#040000"/>
        <rect x="224.89" y="622.78" width="13.59" height="13.59" fill="#040000"/>
        <rect x="224.89" y="213.15" width="13.59" height="13.59" fill="#fff"/>
        <rect x="224.89" y="199.56" width="13.59" height="13.59" fill="#040000"/>
        <rect x="211.16" y="622.78" width="13.73" height="13.59" fill="#040000"/>
        <rect x="211.16" y="609.05" width="13.73" height="13.73" fill="#040000"/>
        <rect x="211.16" y="595.46" width="13.73" height="13.59" fill="#040000"/>
        <rect x="211.16" y="581.88" width="13.73" height="13.59" fill="#040000"/>
        <rect x="211.16" y="568.15" width="13.73" height="13.73" fill="#040000"/>
        <rect x="211.16" y="554.56" width="13.73" height="13.59" fill="#040000"/>
        <rect x="211.16" y="540.83" width="13.73" height="13.73" fill="#040000"/>
        <rect x="211.16" y="527.24" width="13.73" height="13.59" fill="#040000"/>
        <rect x="211.16" y="513.51" width="13.73" height="13.73" fill="#040000"/>
        <rect x="211.16" y="499.92" width="13.73" height="13.59" fill="#040000"/>
        <rect x="211.16" y="486.19" width="13.73" height="13.73" fill="#040000"/>
        <rect x="211.16" y="472.6" width="13.73" height="13.59" fill="#040000"/>
        <rect x="211.16" y="458.87" width="13.73" height="13.73" fill="#040000"/>
        <rect x="211.16" y="445.28" width="13.73" height="13.59" fill="#040000"/>
        <rect x="211.16" y="431.55" width="13.73" height="13.73" fill="#040000"/>
        <rect x="211.16" y="417.96" width="13.73" height="13.59" fill="#040000"/>
        <rect x="211.16" y="404.38" width="13.73" height="13.59" fill="#040000"/>
        <rect x="211.16" y="390.65" width="13.73" height="13.73" fill="#040000"/>
        <rect x="211.16" y="377.06" width="13.73" height="13.59" fill="#040000"/>
        <rect x="211.16" y="363.33" width="13.73" height="13.73" fill="#040000"/>
        <rect x="211.16" y="349.74" width="13.73" height="13.59" fill="#040000"/>
        <rect x="211.16" y="336.01" width="13.73" height="13.73" fill="#040000"/>
        <rect x="211.16" y="322.42" width="13.73" height="13.59" fill="#040000"/>
        <rect x="211.16" y="308.69" width="13.73" height="13.73" fill="#040000"/>
        <rect x="211.16" y="295.1" width="13.73" height="13.59" fill="#040000"/>
        <rect x="211.16" y="281.37" width="13.73" height="13.73" fill="#040000"/>
        <rect x="211.16" y="267.78" width="13.73" height="13.59" fill="#040000"/>
        <rect x="211.16" y="254.05" width="13.73" height="13.73" fill="#040000"/>
        <rect x="211.16" y="240.47" width="13.73" height="13.59" fill="#040000"/>
        <rect x="211.16" y="226.74" width="13.73" height="13.73" fill="#040000"/>
        <rect x="211.16" y="213.15" width="13.73" height="13.59" fill="#040000"/>
        <rect x="211.16" y="199.56" width="13.73" height="13.59" fill="#040000"/>
      </g>
      <rect x="45.57" y="149.97" width="535.98" height="535.98" fill="none" stroke="#231815" stroke-miterlimit="10" stroke-width="2.73"/>
    </g>
    <g>
      <text transform="translate(65.1 750.52)" fill="#231815" font-family="MonaS12-Bold, MonaS12" font-size="32.72" font-weight="700"><tspan x="0" y="0" letter-spacing="-.05em">오</tspan><tspan x="31.15" y="0" letter-spacing="-.04em">행</tspan><tspan x="62.64" y="0">의 </tspan><tspan x="106.27" y="0" letter-spacing="0em">향</tspan><tspan x="138.82" y="0">을 </tspan><tspan x="182.45" y="0" letter-spacing="-.05em">상시</tspan><tspan x="244.71" y="0" letter-spacing="0em">소</tspan><tspan x="277.25" y="0" letter-spacing="-.05em">지</tspan><tspan x="308.38" y="0">할 수 </tspan><tspan x="395.64" y="0" letter-spacing="-.05em">있</tspan><tspan x="426.79" y="0">는 </tspan><tspan x="0" y="49.89" letter-spacing="0em">휴대</tspan><tspan x="65.1" y="49.89">용 </tspan><tspan x="108.73" y="49.89" letter-spacing="-.05em">시</tspan><tspan x="139.85" y="49.89" letter-spacing="0em">향</tspan><tspan x="172.4" y="49.89">지 </tspan><tspan x="216.03" y="49.89" letter-spacing="0em">부</tspan><tspan x="248.58" y="49.89">적</tspan></text>
      <rect x="45.57" y="707.06" width="537.1" height="114.25" fill="none" stroke="#231815" stroke-miterlimit="10" stroke-width="2.73"/>
    </g>
  </g>
</svg>