<?xml version="1.0" encoding="UTF-8"?>
<svg id="_레이어_2" data-name="레이어 2" xmlns="http://www.w3.org/2000/svg" viewBox="0 0 132.18 132.18">
  <defs>
    <style>
      .cls-1 {
        fill: #ff7000;
      }

      .cls-2 {
        fill: #fae400;
      }
    </style>
  </defs>
  <g id="_오행_아이콘" data-name="오행 아이콘">
    <g>
      <rect class="cls-2" x="120.16" y="108.14" width="12.02" height="12.02"/>
      <rect class="cls-2" x="120.16" y="12.01" width="12.02" height="12.02"/>
      <rect class="cls-2" x="108.15" y="120.16" width="12.01" height="12.02"/>
      <rect class="cls-1" x="108.15" y="108.14" width="12.01" height="12.02"/>
      <rect class="cls-2" x="108.15" y="72.1" width="12.01" height="12.01"/>
      <rect class="cls-1" x="108.15" y="60.08" width="12.01" height="12.02"/>
      <rect class="cls-2" x="108.15" y="48.06" width="12.01" height="12.02"/>
      <rect class="cls-1" x="108.15" y="12.01" width="12.01" height="12.02"/>
      <rect class="cls-2" x="108.15" width="12.01" height="12.01"/>
      <rect class="cls-2" x="96.13" y="96.13" width="12.02" height="12.01"/>
      <rect class="cls-2" x="96.13" y="84.11" width="12.02" height="12.02"/>
      <rect class="cls-2" x="96.13" y="72.1" width="12.02" height="12.01"/>
      <rect class="cls-2" x="96.13" y="48.06" width="12.02" height="12.02"/>
      <rect class="cls-2" x="96.13" y="36.05" width="12.02" height="12.01"/>
      <rect class="cls-2" x="96.13" y="24.03" width="12.02" height="12.02"/>
      <rect class="cls-2" x="84.12" y="96.13" width="12.01" height="12.01"/>
      <rect class="cls-1" x="84.12" y="84.11" width="12.01" height="12.02"/>
      <rect class="cls-1" x="84.12" y="60.08" width="12.01" height="12.02"/>
      <rect class="cls-1" x="84.12" y="36.05" width="12.01" height="12.01"/>
      <rect class="cls-2" x="84.12" y="24.03" width="12.01" height="12.02"/>
      <rect class="cls-2" x="72.1" y="108.14" width="12.02" height="12.02"/>
      <rect class="cls-2" x="72.1" y="96.13" width="12.02" height="12.01"/>
      <rect class="cls-2" x="72.1" y="72.1" width="12.02" height="12.01"/>
      <rect class="cls-1" x="72.1" y="60.08" width="12.02" height="12.02"/>
      <rect class="cls-2" x="72.1" y="48.06" width="12.02" height="12.02"/>
      <rect class="cls-2" x="72.1" y="24.03" width="12.02" height="12.02"/>
      <rect class="cls-2" x="72.1" y="12.01" width="12.02" height="12.02"/>
      <rect class="cls-2" x="60.08" y="120.16" width="12.02" height="12.02"/>
      <rect class="cls-1" x="60.08" y="108.14" width="12.02" height="12.02"/>
      <rect class="cls-1" x="60.08" y="84.11" width="12.02" height="12.02"/>
      <rect class="cls-1" x="60.08" y="72.1" width="12.02" height="12.01"/>
      <rect class="cls-1" x="60.08" y="48.06" width="12.02" height="12.02"/>
      <rect class="cls-1" x="60.08" y="36.05" width="12.02" height="12.01"/>
      <rect class="cls-1" x="60.08" y="12.01" width="12.02" height="12.02"/>
      <rect class="cls-2" x="60.08" width="12.02" height="12.01"/>
      <rect class="cls-2" x="48.07" y="108.14" width="12.01" height="12.02"/>
      <rect class="cls-2" x="48.07" y="96.13" width="12.01" height="12.01"/>
      <rect class="cls-2" x="48.07" y="72.1" width="12.01" height="12.01"/>
      <rect class="cls-1" x="48.07" y="60.08" width="12.01" height="12.02"/>
      <rect class="cls-2" x="48.07" y="48.06" width="12.01" height="12.02"/>
      <rect class="cls-2" x="48.07" y="24.03" width="12.01" height="12.02"/>
      <rect class="cls-2" x="48.07" y="12.01" width="12.01" height="12.02"/>
      <rect class="cls-2" x="36.05" y="96.13" width="12.02" height="12.01"/>
      <rect class="cls-1" x="36.05" y="84.11" width="12.02" height="12.02"/>
      <rect class="cls-1" x="36.05" y="60.08" width="12.02" height="12.02"/>
      <rect class="cls-1" x="36.05" y="36.05" width="12.02" height="12.01"/>
      <rect class="cls-2" x="36.05" y="24.03" width="12.02" height="12.02"/>
      <rect class="cls-2" x="24.03" y="96.13" width="12.02" height="12.01"/>
      <rect class="cls-2" x="24.03" y="84.11" width="12.02" height="12.02"/>
      <rect class="cls-2" x="24.03" y="72.1" width="12.02" height="12.01"/>
      <rect class="cls-2" x="24.03" y="48.06" width="12.02" height="12.02"/>
      <rect class="cls-2" x="24.03" y="36.05" width="12.02" height="12.01"/>
      <rect class="cls-2" x="24.03" y="24.03" width="12.02" height="12.02"/>
      <rect class="cls-2" x="12.02" y="120.16" width="12.01" height="12.02"/>
      <rect class="cls-1" x="12.02" y="108.14" width="12.01" height="12.02"/>
      <rect class="cls-2" x="12.02" y="72.1" width="12.01" height="12.01"/>
      <rect class="cls-1" x="12.02" y="60.08" width="12.01" height="12.02"/>
      <rect class="cls-2" x="12.02" y="48.06" width="12.01" height="12.02"/>
      <rect class="cls-1" x="12.02" y="12.01" width="12.01" height="12.02"/>
      <rect class="cls-2" x="12.02" width="12.01" height="12.01"/>
      <rect class="cls-2" y="108.14" width="12.02" height="12.02"/>
      <rect class="cls-2" y="12.01" width="12.02" height="12.02"/>
    </g>
  </g>
</svg>