<?xml version="1.0" encoding="UTF-8"?>
<svg id="_레이어_2" data-name="레이어 2" xmlns="http://www.w3.org/2000/svg" width="322.69" height="322.69" viewBox="0 0 322.69 322.69">
  <g id="brand_story" data-name="brand story">
    <g>
      <rect x="1.66" y="1.66" width="319.36" height="319.36" fill="none" stroke="#000" stroke-miterlimit="10" stroke-width="3.33"/>
      <g>
        <path d="M165.36,74.4c-6.3-6.3-13.91-9.45-22.81-9.45s-16.42,3.15-22.72,9.45c-6.3,6.3-9.45,13.91-9.45,22.81s3.15,16.42,9.45,22.72c6.3,6.3,13.88,9.45,22.72,9.45s16.51-3.15,22.81-9.45c6.3-6.3,9.45-13.88,9.45-22.72s-3.15-16.51-9.45-22.81ZM156.81,111.48c-3.94,3.94-8.7,5.91-14.27,5.91s-10.33-1.97-14.27-5.91c-3.94-3.94-5.91-8.69-5.91-14.27s1.97-10.36,5.91-14.36c3.94-3.94,8.69-5.91,14.27-5.91s10.33,1.97,14.27,5.91c4,4,6,8.79,6,14.36s-2,10.33-6,14.27Z"/>
        <path d="M277.59,74.4c-6.3-6.3-13.91-9.45-22.81-9.45s-16.42,3.15-22.72,9.45c-6.3,6.3-9.45,13.91-9.45,22.81s3.15,16.42,9.45,22.72c6.3,6.3,13.88,9.45,22.72,9.45s16.51-3.15,22.81-9.45c6.3-6.3,9.45-13.88,9.45-22.72s-3.15-16.51-9.45-22.81ZM269.04,111.48c-3.94,3.94-8.7,5.91-14.27,5.91s-10.33-1.97-14.27-5.91c-3.94-3.94-5.91-8.69-5.91-14.27s1.97-10.36,5.91-14.36c3.94-3.94,8.69-5.91,14.27-5.91s10.33,1.97,14.27,5.91c4,4,6,8.79,6,14.36s-2,10.33-6,14.27Z"/>
        <path d="M207.79,242.49l11.39-30.19-11.22-4.24-11.39,30.19c-1.97,5.22-5.49,8.97-10.57,11.26-5.13,2.27-10.31,2.43-15.52.46l-4.24,11.22c8.33,3.14,16.56,2.88,24.68-.79,8.12-3.67,13.74-9.64,16.87-17.92Z"/>
        <path d="M215.65,146.91l-11.52-30.14-11.21,4.28,11.52,30.14c1.99,5.21,1.85,10.35-.42,15.44-2.33,5.11-6.1,8.66-11.3,10.65l4.28,11.21c8.32-3.18,14.3-8.84,17.94-16.98,3.64-8.14,3.88-16.34.72-24.6Z"/>
        <path d="M158.64,223.94l11.39-30.19-11.22-4.24-11.39,30.19c-3.12,8.28-2.85,16.48.82,24.6,3.67,8.12,9.67,13.75,18.01,16.9l4.24-11.22c-5.22-1.97-9-5.5-11.35-10.6-2.3-5.07-2.46-10.22-.49-15.44Z"/>
      </g>
    </g>
  </g>
</svg>