<?xml version="1.0" encoding="UTF-8"?>
<svg id="_레이어_2" data-name="레이어 2" xmlns="http://www.w3.org/2000/svg" width="322.03" height="322.03" viewBox="0 0 322.03 322.03">
  <g id="brand_story" data-name="brand story">
    <g>
      <rect x="1.66" y="1.66" width="318.71" height="318.71" fill="none" stroke="#000" stroke-miterlimit="10" stroke-width="3.32"/>
      <g>
        <path d="M153.66,97.51c0,8.88,3.16,16.48,9.48,22.8,6.32,6.32,13.95,9.48,22.89,9.48,8.88,0,16.48-3.16,22.8-9.48,6.32-6.32,9.48-13.92,9.48-22.8,0-8.94-3.16-16.56-9.48-22.89-6.32-6.32-13.92-9.48-22.8-9.48-8.94,0-16.57,3.16-22.89,9.48-6.32,6.32-9.48,13.95-9.48,22.89ZM165.7,97.51c0-5.59,2.01-10.4,6.02-14.41,3.95-3.95,8.73-5.93,14.32-5.93,5.59,0,10.37,1.98,14.32,5.93,3.95,4.01,5.93,8.82,5.93,14.41,0,5.59-1.98,10.37-5.93,14.32-3.95,3.95-8.72,5.93-14.32,5.93-5.59,0-10.36-1.97-14.32-5.93-4.01-3.95-6.02-8.72-6.02-14.32Z"/>
        <path d="M41.06,97.51c0,8.88,3.16,16.48,9.48,22.8,6.32,6.32,13.95,9.48,22.89,9.48,8.88,0,16.48-3.16,22.8-9.48,6.32-6.32,9.48-13.92,9.48-22.8,0-8.94-3.16-16.56-9.48-22.89-6.32-6.32-13.92-9.48-22.8-9.48-8.94,0-16.57,3.16-22.89,9.48-6.32,6.32-9.48,13.95-9.48,22.89ZM53.1,97.51c0-5.59,2.01-10.4,6.02-14.41,3.95-3.95,8.73-5.93,14.32-5.93,5.59,0,10.37,1.98,14.32,5.93,3.95,4.01,5.93,8.82,5.93,14.41,0,5.59-1.98,10.37-5.93,14.32-3.95,3.95-8.72,5.93-14.32,5.93-5.59,0-10.36-1.97-14.32-5.93-4.01-3.95-6.02-8.72-6.02-14.32Z"/>
        <path d="M179.31,223.11l11.43,30.29-11.26,4.25-11.43-30.29c-1.98-5.23-5.51-9-10.6-11.3-5.15-2.28-10.34-2.43-15.57-.46l-4.25-11.26c8.36-3.16,16.61-2.89,24.76.79,8.15,3.68,13.79,9.68,16.92,17.98Z"/>
        <path d="M112.68,147.37l11.56-30.24,11.24,4.3-11.56,30.24c-2,5.23-1.86,10.39.43,15.49,2.34,5.13,6.12,8.68,11.34,10.68l-4.3,11.24c-8.35-3.19-14.35-8.87-17.99-17.03-3.65-8.16-3.89-16.39-.72-24.68Z"/>
        <path d="M130,241.73l11.43,30.29-11.26,4.25-11.43-30.29c-3.13-8.31-2.86-16.53.82-24.68,3.68-8.15,9.71-13.8,18.07-16.95l4.25,11.26c-5.23,1.97-9.03,5.52-11.39,10.63-2.3,5.09-2.47,10.25-.49,15.49Z"/>
      </g>
    </g>
  </g>
</svg>