<?xml version="1.0" encoding="UTF-8"?>
<svg id="_레이어_2" data-name="레이어 2" xmlns="http://www.w3.org/2000/svg" viewBox="0 0 132.19 132.18">
  <defs>
    <style>
      .cls-1 {
        fill: #696969;
      }

      .cls-2 {
        fill: #00b2ff;
      }
    </style>
  </defs>
  <g id="_오행_아이콘" data-name="오행 아이콘">
    <g>
      <rect class="cls-2" x="120.17" y="108.15" width="12.02" height="12.02"/>
      <rect class="cls-2" x="120.17" y="96.13" width="12.02" height="12.02"/>
      <rect class="cls-1" x="120.17" y="84.12" width="12.02" height="12.01"/>
      <rect class="cls-2" x="120.17" y="48.07" width="12.02" height="12.01"/>
      <rect class="cls-1" x="120.17" y="36.05" width="12.02" height="12.02"/>
      <rect class="cls-2" x="108.15" y="84.12" width="12.02" height="12.01"/>
      <rect class="cls-1" x="108.15" y="72.1" width="12.02" height="12.02"/>
      <rect class="cls-2" x="108.15" y="36.05" width="12.02" height="12.02"/>
      <rect class="cls-1" x="108.15" y="24.03" width="12.02" height="12.02"/>
      <rect class="cls-1" x="108.15" width="12.02" height="12.02"/>
      <rect class="cls-1" x="96.14" y="108.15" width="12.01" height="12.02"/>
      <rect class="cls-1" x="96.14" y="96.13" width="12.01" height="12.02"/>
      <rect class="cls-2" x="96.14" y="72.1" width="12.01" height="12.02"/>
      <rect class="cls-1" x="96.14" y="60.08" width="12.01" height="12.02"/>
      <rect class="cls-2" x="96.14" y="24.03" width="12.01" height="12.02"/>
      <rect class="cls-1" x="96.14" y="12.02" width="12.01" height="12.01"/>
      <rect class="cls-2" x="96.14" width="12.01" height="12.02"/>
      <rect class="cls-1" x="84.12" y="120.17" width="12.02" height="12.01"/>
      <rect class="cls-1" x="84.12" y="84.12" width="12.02" height="12.01"/>
      <rect class="cls-2" x="84.12" y="60.08" width="12.02" height="12.02"/>
      <rect class="cls-1" x="84.12" y="48.07" width="12.02" height="12.01"/>
      <rect class="cls-2" x="72.1" y="108.15" width="12.02" height="12.02"/>
      <rect class="cls-2" x="72.1" y="96.13" width="12.02" height="12.02"/>
      <rect class="cls-1" x="72.1" y="72.1" width="12.02" height="12.02"/>
      <rect class="cls-2" x="72.1" y="48.07" width="12.02" height="12.01"/>
      <rect class="cls-1" x="72.1" y="36.05" width="12.02" height="12.02"/>
      <rect class="cls-1" x="72.1" width="12.02" height="12.02"/>
      <rect class="cls-2" x="60.09" y="120.17" width="12.01" height="12.01"/>
      <rect class="cls-1" x="60.09" y="108.15" width="12.01" height="12.02"/>
      <rect class="cls-1" x="60.09" y="96.13" width="12.01" height="12.02"/>
      <rect class="cls-2" x="60.09" y="84.12" width="12.01" height="12.01"/>
      <rect class="cls-1" x="60.09" y="60.08" width="12.01" height="12.02"/>
      <rect class="cls-2" x="60.09" y="36.05" width="12.01" height="12.02"/>
      <rect class="cls-1" x="60.09" y="24.03" width="12.01" height="12.02"/>
      <rect class="cls-1" x="60.09" y="12.02" width="12.01" height="12.01"/>
      <rect class="cls-2" x="60.09" width="12.01" height="12.02"/>
      <rect class="cls-1" x="48.07" y="120.17" width="12.02" height="12.01"/>
      <rect class="cls-1" x="48.07" y="84.12" width="12.02" height="12.01"/>
      <rect class="cls-2" x="48.07" y="72.1" width="12.02" height="12.02"/>
      <rect class="cls-1" x="48.07" y="48.07" width="12.02" height="12.01"/>
      <rect class="cls-2" x="48.07" y="24.03" width="12.02" height="12.02"/>
      <rect class="cls-2" x="48.07" y="12.02" width="12.02" height="12.01"/>
      <rect class="cls-1" x="36.05" y="72.1" width="12.02" height="12.02"/>
      <rect class="cls-2" x="36.05" y="60.08" width="12.02" height="12.02"/>
      <rect class="cls-1" x="36.05" y="36.05" width="12.02" height="12.02"/>
      <rect class="cls-1" x="36.05" width="12.02" height="12.02"/>
      <rect class="cls-2" x="24.04" y="120.17" width="12.01" height="12.01"/>
      <rect class="cls-1" x="24.04" y="108.15" width="12.01" height="12.02"/>
      <rect class="cls-2" x="24.04" y="96.13" width="12.01" height="12.02"/>
      <rect class="cls-1" x="24.04" y="60.08" width="12.01" height="12.02"/>
      <rect class="cls-2" x="24.04" y="48.07" width="12.01" height="12.01"/>
      <rect class="cls-1" x="24.04" y="24.03" width="12.01" height="12.02"/>
      <rect class="cls-1" x="24.04" y="12.02" width="12.01" height="12.01"/>
      <rect class="cls-1" x="12.02" y="120.17" width="12.02" height="12.01"/>
      <rect class="cls-1" x="12.02" y="96.13" width="12.02" height="12.02"/>
      <rect class="cls-2" x="12.02" y="84.12" width="12.02" height="12.01"/>
      <rect class="cls-1" x="12.02" y="48.07" width="12.02" height="12.01"/>
      <rect class="cls-2" x="12.02" y="36.05" width="12.02" height="12.02"/>
      <rect class="cls-1" y="84.12" width="12.02" height="12.01"/>
      <rect class="cls-2" y="72.1" width="12.02" height="12.02"/>
      <rect class="cls-1" y="36.05" width="12.02" height="12.02"/>
      <rect class="cls-2" y="24.03" width="12.02" height="12.02"/>
      <rect class="cls-2" y="12.02" width="12.02" height="12.01"/>
    </g>
  </g>
</svg>