<?xml version="1.0" encoding="UTF-8"?>
<svg id="_레이어_2" data-name="레이어 2" xmlns="http://www.w3.org/2000/svg" viewBox="0 0 406.61 275.96">
  <g id="test">
    <g>
      <path d="M142.01,94.72c6.73-3.02,11.43-9.77,11.43-17.63,0-10.67-8.65-19.31-19.31-19.31-2.99,0-5.81.68-8.34,1.89.03-.45.05-.89.05-1.35,0-10.67-8.65-19.31-19.31-19.31s-19.31,8.65-19.31,19.31c0,.49.02.98.06,1.46-2.58-1.28-5.49-2-8.56-2-10.67,0-19.31,8.65-19.31,19.31,0,7.86,4.69,14.61,11.43,17.63-6.29,3.18-10.61,9.71-10.61,17.24,0,10.67,8.65,19.31,19.31,19.31,5.08,0,9.69-1.96,13.14-5.16,3.54,4.16,8.82,6.81,14.71,6.81,5.44,0,10.36-2.25,13.87-5.88,3.31,2.65,7.5,4.24,12.06,4.24,10.67,0,19.31-8.65,19.31-19.31,0-7.53-4.32-14.06-10.61-17.24Z" fill="#7cc8c7"/>
      <path d="M357.71,57.49c6.73-3.02,11.43-9.77,11.43-17.63,0-10.67-8.65-19.31-19.31-19.31-2.99,0-5.81.68-8.34,1.89.03-.45.05-.89.05-1.35,0-10.67-8.65-19.31-19.31-19.31s-19.31,8.65-19.31,19.31c0,.49.02.98.06,1.46-2.58-1.28-5.49-2-8.56-2-10.67,0-19.31,8.65-19.31,19.31,0,7.86,4.69,14.61,11.43,17.63-6.29,3.18-10.61,9.71-10.61,17.24,0,10.67,8.65,19.31,19.31,19.31,5.08,0,9.69-1.96,13.14-5.16,3.54,4.16,8.82,6.81,14.71,6.81,5.44,0,10.36-2.25,13.87-5.88,3.31,2.65,7.5,4.24,12.06,4.24,10.67,0,19.31-8.65,19.31-19.31,0-7.53-4.32-14.06-10.61-17.24ZM300.83,49.81c-4.17,0-7.55-3.38-7.55-7.55s3.38-7.55,7.55-7.55,7.55,3.38,7.55,7.55-3.38,7.55-7.55,7.55ZM350.39,81.52c-4.17,0-7.55-3.38-7.55-7.55s3.38-7.55,7.55-7.55,7.55,3.38,7.55,7.55-3.38,7.55-7.55,7.55Z" fill="#7cc8c7"/>
      <path d="M241.11,193.72c6.73-3.02,11.43-9.77,11.43-17.63,0-10.67-8.65-19.31-19.31-19.31-2.99,0-5.81.68-8.34,1.89.03-.45.05-.89.05-1.35,0-10.67-8.65-19.31-19.31-19.31s-19.31,8.65-19.31,19.31c0,.49.02.98.06,1.46-2.58-1.28-5.49-2-8.56-2-10.67,0-19.31,8.65-19.31,19.31,0,7.86,4.69,14.61,11.43,17.63-6.29,3.18-10.61,9.71-10.61,17.24,0,10.67,8.65,19.31,19.31,19.31,5.08,0,9.69-1.96,13.14-5.16,3.54,4.16,8.82,6.81,14.71,6.81,5.44,0,10.36-2.25,13.87-5.88,3.31,2.65,7.5,4.24,12.06,4.24,10.67,0,19.31-8.65,19.31-19.31,0-7.53-4.32-14.06-10.61-17.24ZM184.24,186.04c-4.17,0-7.55-3.38-7.55-7.55s3.38-7.55,7.55-7.55,7.55,3.38,7.55,7.55-3.38,7.55-7.55,7.55ZM233.8,217.75c-4.17,0-7.55-3.38-7.55-7.55s3.38-7.55,7.55-7.55,7.55,3.38,7.55,7.55-3.38,7.55-7.55,7.55Z" fill="#7cc8c7"/>
      <path d="M304.28,209.21c0-5.9-4.78-10.68-10.68-10.68-.11,0-.22.01-.32.02-1.32-4.4-5.4-7.6-10.22-7.6-5.1,0-9.35,3.57-10.41,8.35-5.84.07-10.55,4.82-10.55,10.67,0,3.63,1.82,6.84,4.59,8.77-.38,1.09-.59,2.26-.59,3.48,0,5.9,4.78,10.68,10.68,10.68,2.64,0,5.05-.96,6.91-2.55,1.69,1.13,3.73,1.79,5.92,1.79,5.9,0,10.68-4.78,10.68-10.68,0-1.22-.22-2.39-.59-3.48,2.77-1.93,4.59-5.13,4.59-8.77ZM284.21,222.15c-4.38,0-7.93-3.55-7.93-7.93s3.55-7.93,7.93-7.93,7.93,3.55,7.93,7.93-3.55,7.93-7.93,7.93Z" fill="#7cc8c7"/>
      <path d="M97.44,232.63c0-5.9-4.78-10.68-10.68-10.68-.11,0-.22.01-.32.02-1.32-4.4-5.4-7.6-10.22-7.6-5.1,0-9.35,3.57-10.41,8.35-5.84.07-10.55,4.82-10.55,10.67,0,3.63,1.82,6.84,4.59,8.77-.38,1.09-.59,2.26-.59,3.48,0,5.9,4.78,10.68,10.68,10.68,2.64,0,5.05-.96,6.91-2.55,1.69,1.13,3.73,1.79,5.92,1.79,5.9,0,10.68-4.78,10.68-10.68,0-1.22-.22-2.39-.59-3.48,2.77-1.93,4.59-5.13,4.59-8.77ZM77.37,245.57c-4.38,0-7.93-3.55-7.93-7.93s3.55-7.93,7.93-7.93,7.93,3.55,7.93,7.93-3.55,7.93-7.93,7.93Z" fill="#7cc8c7"/>
      <path d="M377.69,205.53l-6.6-6.33-4.94,3.06,1.31,7.6c-.28.69-.47,1.42-.54,2.18-.03.26-.04.52-.04.78,0,4.34,3.52,7.87,7.87,7.87s7.87-3.52,7.87-7.87c0-3.31-2.04-6.13-4.93-7.29Z" fill="#7cc8c7"/>
      <path d="M392.47,204.71l6.6-6.33,4.94,3.06-1.31,7.6c.28.69.47,1.42.54,2.18.03.26.04.52.04.78,0,4.34-3.52,7.87-7.87,7.87s-7.87-3.52-7.87-7.87c0-3.31,2.04-6.13,4.93-7.29Z" fill="#7cc8c7"/>
      <path d="M13.44,185.3l-6.6-6.33-4.94,3.06,1.31,7.6c-.28.69-.47,1.42-.54,2.18-.03.26-.04.52-.04.78,0,4.34,3.52,7.87,7.87,7.87s7.87-3.52,7.87-7.87c0-3.31-2.04-6.13-4.93-7.29Z" fill="#7cc8c7"/>
      <path d="M28.24,184.01l6.6-6.33,4.94,3.06-1.31,7.6c.28.69.47,1.42.54,2.18.03.26.04.52.04.78,0,4.34-3.52,7.87-7.87,7.87s-7.87-3.52-7.87-7.87c0-3.31,2.04-6.13,4.93-7.29Z" fill="#7cc8c7"/>
      <g>
        <path d="M308.14,19.93c0-9.95,8.07-18.02,18.02-18.02s18.02,8.07,18.02,18.02" fill="none" stroke="#231815" stroke-miterlimit="10" stroke-width="3.83"/>
        <path d="M289.78,54.37c-8.99-4.26-12.83-15.01-8.57-24,4.26-8.99,15.01-12.83,24-8.57" fill="none" stroke="#231815" stroke-miterlimit="10" stroke-width="3.83"/>
        <path d="M289.78,58.13c-8.99,4.26-12.83,15.01-8.57,24,4.26,8.99,15.01,12.83,24,8.57" fill="none" stroke="#231815" stroke-miterlimit="10" stroke-width="3.83"/>
        <path d="M362.5,54.32c8.99-4.26,12.83-15.01,8.57-24-4.26-8.99-15.01-12.83-24-8.57" fill="none" stroke="#231815" stroke-miterlimit="10" stroke-width="3.83"/>
        <path d="M362.5,58.08c8.99,4.26,12.83,15.01,8.57,24-4.26,8.99-15.01,12.83-24,8.57" fill="none" stroke="#231815" stroke-miterlimit="10" stroke-width="3.83"/>
        <line x1="317.13" y1="63.58" x2="317.13" y2="119.19" fill="none" stroke="#231815" stroke-miterlimit="10" stroke-width="3.83"/>
        <line x1="337.54" y1="63.58" x2="337.54" y2="119.19" fill="none" stroke="#231815" stroke-miterlimit="10" stroke-width="3.83"/>
        <line x1="328.27" y1="125.76" x2="328.27" y2="139.24" fill="none" stroke="#231815" stroke-miterlimit="10" stroke-width="3.83"/>
        <line x1="339.4" y1="125.8" x2="347.52" y2="136.56" fill="none" stroke="#231815" stroke-miterlimit="10" stroke-width="3.83"/>
        <line x1="317.13" y1="125.8" x2="309.01" y2="136.56" fill="none" stroke="#231815" stroke-miterlimit="10" stroke-width="3.83"/>
        <g>
          <path d="M312.92,39.31c0-3.78-4.05-6.55-7.71-6.55s-7.71,2.77-7.71,6.55" fill="none" stroke="#231815" stroke-miterlimit="10" stroke-width="3.83"/>
          <path d="M297.51,42.7c0,3.78,4.05,6.55,7.71,6.55s7.71-2.77,7.71-6.55" fill="none" stroke="#231815" stroke-miterlimit="10" stroke-width="3.83"/>
        </g>
        <g>
          <path d="M362.48,71.88c0-3.78-4.05-6.55-7.71-6.55s-7.71,2.77-7.71,6.55" fill="none" stroke="#231815" stroke-miterlimit="10" stroke-width="3.83"/>
          <path d="M347.07,75.27c0,3.78,4.05,6.55,7.71,6.55s7.71-2.77,7.71-6.55" fill="none" stroke="#231815" stroke-miterlimit="10" stroke-width="3.83"/>
        </g>
      </g>
      <g>
        <path d="M183.83,156.65c0-9.95,8.07-18.02,18.02-18.02s18.02,8.07,18.02,18.02" fill="none" stroke="#231815" stroke-miterlimit="10" stroke-width="3.83"/>
        <path d="M165.47,191.09c-8.99-4.26-12.83-15.01-8.57-24,4.26-8.99,15.01-12.83,24-8.57" fill="none" stroke="#231815" stroke-miterlimit="10" stroke-width="3.83"/>
        <path d="M165.47,194.85c-8.99,4.26-12.83,15.01-8.57,24,4.26,8.99,15.01,12.83,24,8.57" fill="none" stroke="#231815" stroke-miterlimit="10" stroke-width="3.83"/>
        <path d="M238.19,191.05c8.99-4.26,12.83-15.01,8.57-24-4.26-8.99-15.01-12.83-24-8.57" fill="none" stroke="#231815" stroke-miterlimit="10" stroke-width="3.83"/>
        <path d="M238.19,194.8c8.99,4.26,12.83,15.01,8.57,24-4.26,8.99-15.01,12.83-24,8.57" fill="none" stroke="#231815" stroke-miterlimit="10" stroke-width="3.83"/>
        <line x1="192.82" y1="200.3" x2="192.82" y2="255.91" fill="none" stroke="#231815" stroke-miterlimit="10" stroke-width="3.83"/>
        <line x1="213.23" y1="200.3" x2="213.23" y2="255.91" fill="none" stroke="#231815" stroke-miterlimit="10" stroke-width="3.83"/>
        <line x1="203.95" y1="262.48" x2="203.95" y2="275.96" fill="none" stroke="#231815" stroke-miterlimit="10" stroke-width="3.83"/>
        <line x1="215.09" y1="262.52" x2="223.2" y2="273.28" fill="none" stroke="#231815" stroke-miterlimit="10" stroke-width="3.83"/>
        <line x1="192.82" y1="262.52" x2="184.7" y2="273.28" fill="none" stroke="#231815" stroke-miterlimit="10" stroke-width="3.83"/>
        <g>
          <path d="M188.61,176.03c0-3.78-4.05-6.55-7.71-6.55s-7.71,2.77-7.71,6.55" fill="none" stroke="#231815" stroke-miterlimit="10" stroke-width="3.83"/>
          <path d="M173.2,179.42c0,3.78,4.05,6.55,7.71,6.55s7.71-2.77,7.71-6.55" fill="none" stroke="#231815" stroke-miterlimit="10" stroke-width="3.83"/>
        </g>
        <g>
          <path d="M238.17,208.6c0-3.78-4.05-6.55-7.71-6.55s-7.71,2.77-7.71,6.55" fill="none" stroke="#231815" stroke-miterlimit="10" stroke-width="3.83"/>
          <path d="M222.76,211.99c0,3.78,4.05,6.55,7.71,6.55s7.71-2.77,7.71-6.55" fill="none" stroke="#231815" stroke-miterlimit="10" stroke-width="3.83"/>
        </g>
      </g>
      <g>
        <path d="M93.53,58.12c0-9.95,8.07-18.02,18.02-18.02s18.02,8.07,18.02,18.02" fill="none" stroke="#231815" stroke-miterlimit="10" stroke-width="3.83"/>
        <path d="M75.17,92.55c-8.99-4.26-12.83-15.01-8.57-24,4.26-8.99,15.01-12.83,24-8.57" fill="none" stroke="#231815" stroke-miterlimit="10" stroke-width="3.83"/>
        <path d="M75.17,96.31c-8.99,4.26-12.83,15.01-8.57,24,4.26,8.99,15.01,12.83,24,8.57" fill="none" stroke="#231815" stroke-miterlimit="10" stroke-width="3.83"/>
        <path d="M147.89,92.51c8.99-4.26,12.83-15.01,8.57-24-4.26-8.99-15.01-12.83-24-8.57" fill="none" stroke="#231815" stroke-miterlimit="10" stroke-width="3.83"/>
        <path d="M147.89,96.27c8.99,4.26,12.83,15.01,8.57,24-4.26,8.99-15.01,12.83-24,8.57" fill="none" stroke="#231815" stroke-miterlimit="10" stroke-width="3.83"/>
        <line x1="102.52" y1="101.77" x2="102.52" y2="157.37" fill="none" stroke="#231815" stroke-miterlimit="10" stroke-width="3.83"/>
        <line x1="122.93" y1="101.77" x2="122.93" y2="157.37" fill="none" stroke="#231815" stroke-miterlimit="10" stroke-width="3.83"/>
        <line x1="113.65" y1="163.95" x2="113.65" y2="177.42" fill="none" stroke="#231815" stroke-miterlimit="10" stroke-width="3.83"/>
        <line x1="124.79" y1="163.99" x2="132.91" y2="174.74" fill="none" stroke="#231815" stroke-miterlimit="10" stroke-width="3.83"/>
        <line x1="102.52" y1="163.99" x2="94.4" y2="174.74" fill="none" stroke="#231815" stroke-miterlimit="10" stroke-width="3.83"/>
      </g>
      <g>
        <path d="M70.97,221.85c0-4.44,3.6-8.04,8.04-8.04s8.04,3.6,8.04,8.04" fill="none" stroke="#231815" stroke-miterlimit="10" stroke-width="3.83"/>
        <path d="M57.43,271.29c0-4.44,3.6-8.04,8.04-8.04s8.04,3.6,8.04,8.04" fill="none" stroke="#231815" stroke-miterlimit="10" stroke-width="3.83"/>
        <path d="M84.51,271.29c0-4.44,3.6-8.04,8.04-8.04s8.04,3.6,8.04,8.04" fill="none" stroke="#231815" stroke-miterlimit="10" stroke-width="3.83"/>
        <path d="M63.49,238.97c-4.22-1.37-6.53-5.91-5.16-10.13,1.37-4.22,5.91-6.53,10.13-5.16" fill="none" stroke="#231815" stroke-miterlimit="10" stroke-width="3.83"/>
        <path d="M77.46,251.35c-2.61,3.59-7.64,4.39-11.23,1.78-3.59-2.61-4.39-7.64-1.78-11.23" fill="none" stroke="#231815" stroke-miterlimit="10" stroke-width="3.83"/>
        <path d="M94.53,238.96c4.22-1.37,6.53-5.91,5.16-10.13s-5.91-6.53-10.13-5.16" fill="none" stroke="#231815" stroke-miterlimit="10" stroke-width="3.83"/>
        <path d="M80.56,251.35c2.61,3.59,7.64,4.39,11.23,1.78,3.59-2.61,4.39-7.64,1.78-11.23" fill="none" stroke="#231815" stroke-miterlimit="10" stroke-width="3.83"/>
        <g>
          <path d="M86.72,234.1c0-3.78-4.05-6.55-7.71-6.55s-7.71,2.77-7.71,6.55" fill="none" stroke="#231815" stroke-miterlimit="10" stroke-width="3.83"/>
          <path d="M71.3,237.5c0,3.78,4.05,6.55,7.71,6.55s7.71-2.77,7.71-6.55" fill="none" stroke="#231815" stroke-miterlimit="10" stroke-width="3.83"/>
        </g>
      </g>
      <g>
        <path d="M279.23,199.81c0-4.44,3.6-8.04,8.04-8.04s8.04,3.6,8.04,8.04" fill="none" stroke="#231815" stroke-miterlimit="10" stroke-width="3.83"/>
        <path d="M265.69,249.24c0-4.44,3.6-8.04,8.04-8.04s8.04,3.6,8.04,8.04" fill="none" stroke="#231815" stroke-miterlimit="10" stroke-width="3.83"/>
        <path d="M292.76,249.24c0-4.44,3.6-8.04,8.04-8.04s8.04,3.6,8.04,8.04" fill="none" stroke="#231815" stroke-miterlimit="10" stroke-width="3.83"/>
        <path d="M271.75,216.92c-4.22-1.37-6.53-5.91-5.16-10.13,1.37-4.22,5.91-6.53,10.13-5.16" fill="none" stroke="#231815" stroke-miterlimit="10" stroke-width="3.83"/>
        <path d="M285.72,229.31c-2.61,3.59-7.64,4.39-11.23,1.78-3.59-2.61-4.39-7.64-1.78-11.23" fill="none" stroke="#231815" stroke-miterlimit="10" stroke-width="3.83"/>
        <path d="M302.78,216.92c4.22-1.37,6.53-5.91,5.16-10.13-1.37-4.22-5.91-6.53-10.13-5.16" fill="none" stroke="#231815" stroke-miterlimit="10" stroke-width="3.83"/>
        <path d="M288.81,229.3c2.61,3.59,7.64,4.39,11.23,1.78,3.59-2.61,4.39-7.64,1.78-11.23" fill="none" stroke="#231815" stroke-miterlimit="10" stroke-width="3.83"/>
        <g>
          <path d="M294.97,212.06c0-3.78-4.05-6.55-7.71-6.55s-7.71,2.77-7.71,6.55" fill="none" stroke="#231815" stroke-miterlimit="10" stroke-width="3.83"/>
          <path d="M279.56,215.45c0,3.78,4.05,6.55,7.71,6.55s7.71-2.77,7.71-6.55" fill="none" stroke="#231815" stroke-miterlimit="10" stroke-width="3.83"/>
        </g>
      </g>
      <g>
        <line x1="21.11" y1="202.69" x2="21.11" y2="226.28" fill="none" stroke="#231815" stroke-miterlimit="10" stroke-width="3.83"/>
        <path d="M1.9,182.76l.99,8.59.17,1.46c.51,4.41,4.5,7.58,8.91,7.07" fill="none" stroke="#231815" stroke-miterlimit="10" stroke-width="3.83"/>
        <path d="M7.5,179.83l6.4,5.82,1.09.99c3.29,2.99,3.53,8.07.54,11.36" fill="none" stroke="#231815" stroke-miterlimit="10" stroke-width="3.83"/>
        <path d="M40.68,182.76l-.99,8.59-.17,1.46c-.51,4.41-4.5,7.58-8.91,7.07" fill="none" stroke="#231815" stroke-miterlimit="10" stroke-width="3.83"/>
        <path d="M35.08,179.83l-6.4,5.82-1.09.99c-3.29,2.99-3.53,8.07-.54,11.36" fill="none" stroke="#231815" stroke-miterlimit="10" stroke-width="3.83"/>
      </g>
      <g>
        <line x1="385.13" y1="221.23" x2="385.13" y2="244.83" fill="none" stroke="#231815" stroke-miterlimit="10" stroke-width="3.83"/>
        <path d="M365.92,201.31l.99,8.59.17,1.46c.51,4.41,4.5,7.58,8.91,7.07" fill="none" stroke="#231815" stroke-miterlimit="10" stroke-width="3.83"/>
        <path d="M371.53,198.38l6.4,5.82,1.09.99c3.29,2.99,3.53,8.07.54,11.36" fill="none" stroke="#231815" stroke-miterlimit="10" stroke-width="3.83"/>
        <path d="M404.71,201.31l-.99,8.59-.17,1.46c-.51,4.41-4.5,7.58-8.91,7.07" fill="none" stroke="#231815" stroke-miterlimit="10" stroke-width="3.83"/>
        <path d="M399.1,198.38l-6.4,5.82-1.09.99c-3.29,2.99-3.53,8.07-.54,11.36" fill="none" stroke="#231815" stroke-miterlimit="10" stroke-width="3.83"/>
      </g>
      <g>
        <path d="M123.65,232.99v-8.65s0-1.47,0-1.47c0-4.44,3.6-8.04,8.04-8.04" fill="none" stroke="#231815" stroke-miterlimit="10" stroke-width="3.83"/>
        <path d="M123.65,232.99v-8.65s0-1.47,0-1.47c0-4.44-3.6-8.04-8.04-8.04" fill="none" stroke="#231815" stroke-miterlimit="10" stroke-width="3.83"/>
      </g>
      <g>
        <path d="M321.12,203.41v-8.65s0-1.47,0-1.47c0-4.44,3.6-8.04,8.04-8.04" fill="none" stroke="#231815" stroke-miterlimit="10" stroke-width="3.83"/>
        <path d="M321.12,203.41v-8.65s0-1.47,0-1.47c0-4.44-3.6-8.04-8.04-8.04" fill="none" stroke="#231815" stroke-miterlimit="10" stroke-width="3.83"/>
      </g>
      <g>
        <path d="M213.25,117.94v-8.65s0-1.47,0-1.47c0-4.44,3.6-8.04,8.04-8.04" fill="none" stroke="#231815" stroke-miterlimit="10" stroke-width="3.83"/>
        <path d="M213.25,117.94v-8.65s0-1.47,0-1.47c0-4.44-3.6-8.04-8.04-8.04" fill="none" stroke="#231815" stroke-miterlimit="10" stroke-width="3.83"/>
      </g>
      <g>
        <rect x="194.22" y="91.83" width="5.88" height="5.88" transform="translate(102.39 291.93) rotate(-90)" fill="#7cc8c7"/>
        <rect x="188.34" y="97.65" width="5.88" height="5.88" transform="translate(291.88 -90.69) rotate(90)" fill="#7cc8c7"/>
        <rect x="194.22" y="103.48" width="5.88" height="5.88" transform="translate(90.75 303.58) rotate(-90)" fill="#7cc8c7"/>
      </g>
      <g>
        <rect x="335.51" y="176.77" width="5.88" height="5.88" transform="translate(158.74 518.16) rotate(-90)" fill="#7cc8c7"/>
        <rect x="341.39" y="182.59" width="5.88" height="5.88" transform="translate(529.86 -158.79) rotate(90)" fill="#7cc8c7"/>
        <rect x="335.51" y="188.42" width="5.88" height="5.88" transform="translate(147.09 529.8) rotate(-90)" fill="#7cc8c7"/>
      </g>
      <g>
        <rect x="226.42" y="90.77" width="5.88" height="5.88" transform="translate(135.66 323.07) rotate(-90)" fill="#7cc8c7"/>
        <rect x="232.3" y="96.59" width="5.88" height="5.88" transform="translate(334.77 -135.71) rotate(90)" fill="#7cc8c7"/>
        <rect x="226.42" y="102.41" width="5.88" height="5.88" transform="translate(124.01 334.71) rotate(-90)" fill="#7cc8c7"/>
      </g>
    </g>
  </g>
</svg>